M48
; DRILL file {KiCad 8.0.3} date 2024-07-26T09:17:00-0400
; FORMAT={-:-/ absolute / inch / decimal}
; #@! TF.CreationDate,2024-07-26T09:17:00-04:00
; #@! TF.GenerationSoftware,Kicad,Pcbnew,8.0.3
; #@! TF.FileFunction,Plated,1,2,PTH
FMAT,2
INCH
; #@! TA.AperFunction,Plated,PTH,ViaDrill
T1C0.0118
; #@! TA.AperFunction,Plated,PTH,ComponentDrill
T2C0.0394
%
G90
G05
T1
X3.9862Y-2.2146
X4.124Y-3.4547
X4.1437Y-2.2146
X4.3012Y-3.4547
X4.3504Y-3.4547
X4.4291Y-2.3524
X4.498Y-3.5433
X4.498Y-3.6417
X4.5276Y-2.4409
X4.6161Y-2.313
X4.6161Y-2.4409
X4.6161Y-3.4921
X4.626Y-3.376
X4.626Y-3.563
X4.7539Y-2.4114
X4.7638Y-2.313
X4.7638Y-3.3957
X4.7736Y-2.4409
X4.7835Y-3.4941
X4.7835Y-3.5433
X4.7835Y-3.5866
T2
X4.065Y-2.1122
X4.065Y-2.2122
X4.065Y-2.3122
X4.065Y-2.4122
X4.065Y-2.5122
X4.065Y-2.6122
X4.4301Y-3.1959
X4.4301Y-3.2959
X4.4301Y-3.3959
X4.4301Y-3.4959
X4.4301Y-3.5959
X4.4301Y-3.6959
M30
