%TF.GenerationSoftware,KiCad,Pcbnew,8.0.3*%
%TF.CreationDate,2024-07-26T09:17:15-04:00*%
%TF.ProjectId,touch_adaptor,746f7563-685f-4616-9461-70746f722e6b,rev?*%
%TF.SameCoordinates,Original*%
%TF.FileFunction,Legend,Bot*%
%TF.FilePolarity,Positive*%
%FSLAX46Y46*%
G04 Gerber Fmt 4.6, Leading zero omitted, Abs format (unit mm)*
G04 Created by KiCad (PCBNEW 8.0.3) date 2024-07-26 09:17:15*
%MOMM*%
%LPD*%
G01*
G04 APERTURE LIST*
%ADD10C,0.150000*%
%ADD11C,0.120000*%
G04 APERTURE END LIST*
D10*
X110041792Y-88350390D02*
X110117982Y-88312295D01*
X110117982Y-88312295D02*
X110232268Y-88312295D01*
X110232268Y-88312295D02*
X110346554Y-88350390D01*
X110346554Y-88350390D02*
X110422744Y-88426580D01*
X110422744Y-88426580D02*
X110460839Y-88502771D01*
X110460839Y-88502771D02*
X110498935Y-88655152D01*
X110498935Y-88655152D02*
X110498935Y-88769438D01*
X110498935Y-88769438D02*
X110460839Y-88921819D01*
X110460839Y-88921819D02*
X110422744Y-88998009D01*
X110422744Y-88998009D02*
X110346554Y-89074200D01*
X110346554Y-89074200D02*
X110232268Y-89112295D01*
X110232268Y-89112295D02*
X110156077Y-89112295D01*
X110156077Y-89112295D02*
X110041792Y-89074200D01*
X110041792Y-89074200D02*
X110003696Y-89036104D01*
X110003696Y-89036104D02*
X110003696Y-88769438D01*
X110003696Y-88769438D02*
X110156077Y-88769438D01*
X109660839Y-89112295D02*
X109660839Y-88312295D01*
X109660839Y-88312295D02*
X109203696Y-89112295D01*
X109203696Y-89112295D02*
X109203696Y-88312295D01*
X108822744Y-89112295D02*
X108822744Y-88312295D01*
X108822744Y-88312295D02*
X108632268Y-88312295D01*
X108632268Y-88312295D02*
X108517982Y-88350390D01*
X108517982Y-88350390D02*
X108441792Y-88426580D01*
X108441792Y-88426580D02*
X108403697Y-88502771D01*
X108403697Y-88502771D02*
X108365601Y-88655152D01*
X108365601Y-88655152D02*
X108365601Y-88769438D01*
X108365601Y-88769438D02*
X108403697Y-88921819D01*
X108403697Y-88921819D02*
X108441792Y-88998009D01*
X108441792Y-88998009D02*
X108517982Y-89074200D01*
X108517982Y-89074200D02*
X108632268Y-89112295D01*
X108632268Y-89112295D02*
X108822744Y-89112295D01*
X110575125Y-90812295D02*
X110308458Y-91612295D01*
X110308458Y-91612295D02*
X110041792Y-90812295D01*
X109775125Y-91612295D02*
X109775125Y-90812295D01*
X109775125Y-90812295D02*
X109584649Y-90812295D01*
X109584649Y-90812295D02*
X109470363Y-90850390D01*
X109470363Y-90850390D02*
X109394173Y-90926580D01*
X109394173Y-90926580D02*
X109356078Y-91002771D01*
X109356078Y-91002771D02*
X109317982Y-91155152D01*
X109317982Y-91155152D02*
X109317982Y-91269438D01*
X109317982Y-91269438D02*
X109356078Y-91421819D01*
X109356078Y-91421819D02*
X109394173Y-91498009D01*
X109394173Y-91498009D02*
X109470363Y-91574200D01*
X109470363Y-91574200D02*
X109584649Y-91612295D01*
X109584649Y-91612295D02*
X109775125Y-91612295D01*
X108975125Y-91612295D02*
X108975125Y-90812295D01*
X108975125Y-90812295D02*
X108784649Y-90812295D01*
X108784649Y-90812295D02*
X108670363Y-90850390D01*
X108670363Y-90850390D02*
X108594173Y-90926580D01*
X108594173Y-90926580D02*
X108556078Y-91002771D01*
X108556078Y-91002771D02*
X108517982Y-91155152D01*
X108517982Y-91155152D02*
X108517982Y-91269438D01*
X108517982Y-91269438D02*
X108556078Y-91421819D01*
X108556078Y-91421819D02*
X108594173Y-91498009D01*
X108594173Y-91498009D02*
X108670363Y-91574200D01*
X108670363Y-91574200D02*
X108784649Y-91612295D01*
X108784649Y-91612295D02*
X108975125Y-91612295D01*
X110498935Y-84074200D02*
X110384649Y-84112295D01*
X110384649Y-84112295D02*
X110194173Y-84112295D01*
X110194173Y-84112295D02*
X110117982Y-84074200D01*
X110117982Y-84074200D02*
X110079887Y-84036104D01*
X110079887Y-84036104D02*
X110041792Y-83959914D01*
X110041792Y-83959914D02*
X110041792Y-83883723D01*
X110041792Y-83883723D02*
X110079887Y-83807533D01*
X110079887Y-83807533D02*
X110117982Y-83769438D01*
X110117982Y-83769438D02*
X110194173Y-83731342D01*
X110194173Y-83731342D02*
X110346554Y-83693247D01*
X110346554Y-83693247D02*
X110422744Y-83655152D01*
X110422744Y-83655152D02*
X110460839Y-83617057D01*
X110460839Y-83617057D02*
X110498935Y-83540866D01*
X110498935Y-83540866D02*
X110498935Y-83464676D01*
X110498935Y-83464676D02*
X110460839Y-83388485D01*
X110460839Y-83388485D02*
X110422744Y-83350390D01*
X110422744Y-83350390D02*
X110346554Y-83312295D01*
X110346554Y-83312295D02*
X110156077Y-83312295D01*
X110156077Y-83312295D02*
X110041792Y-83350390D01*
X109698934Y-84112295D02*
X109698934Y-83312295D01*
X109698934Y-83312295D02*
X109508458Y-83312295D01*
X109508458Y-83312295D02*
X109394172Y-83350390D01*
X109394172Y-83350390D02*
X109317982Y-83426580D01*
X109317982Y-83426580D02*
X109279887Y-83502771D01*
X109279887Y-83502771D02*
X109241791Y-83655152D01*
X109241791Y-83655152D02*
X109241791Y-83769438D01*
X109241791Y-83769438D02*
X109279887Y-83921819D01*
X109279887Y-83921819D02*
X109317982Y-83998009D01*
X109317982Y-83998009D02*
X109394172Y-84074200D01*
X109394172Y-84074200D02*
X109508458Y-84112295D01*
X109508458Y-84112295D02*
X109698934Y-84112295D01*
X108937030Y-83883723D02*
X108556077Y-83883723D01*
X109013220Y-84112295D02*
X108746553Y-83312295D01*
X108746553Y-83312295D02*
X108479887Y-84112295D01*
X110003696Y-94112295D02*
X110270363Y-93731342D01*
X110460839Y-94112295D02*
X110460839Y-93312295D01*
X110460839Y-93312295D02*
X110156077Y-93312295D01*
X110156077Y-93312295D02*
X110079887Y-93350390D01*
X110079887Y-93350390D02*
X110041792Y-93388485D01*
X110041792Y-93388485D02*
X110003696Y-93464676D01*
X110003696Y-93464676D02*
X110003696Y-93578961D01*
X110003696Y-93578961D02*
X110041792Y-93655152D01*
X110041792Y-93655152D02*
X110079887Y-93693247D01*
X110079887Y-93693247D02*
X110156077Y-93731342D01*
X110156077Y-93731342D02*
X110460839Y-93731342D01*
X109698935Y-94074200D02*
X109584649Y-94112295D01*
X109584649Y-94112295D02*
X109394173Y-94112295D01*
X109394173Y-94112295D02*
X109317982Y-94074200D01*
X109317982Y-94074200D02*
X109279887Y-94036104D01*
X109279887Y-94036104D02*
X109241792Y-93959914D01*
X109241792Y-93959914D02*
X109241792Y-93883723D01*
X109241792Y-93883723D02*
X109279887Y-93807533D01*
X109279887Y-93807533D02*
X109317982Y-93769438D01*
X109317982Y-93769438D02*
X109394173Y-93731342D01*
X109394173Y-93731342D02*
X109546554Y-93693247D01*
X109546554Y-93693247D02*
X109622744Y-93655152D01*
X109622744Y-93655152D02*
X109660839Y-93617057D01*
X109660839Y-93617057D02*
X109698935Y-93540866D01*
X109698935Y-93540866D02*
X109698935Y-93464676D01*
X109698935Y-93464676D02*
X109660839Y-93388485D01*
X109660839Y-93388485D02*
X109622744Y-93350390D01*
X109622744Y-93350390D02*
X109546554Y-93312295D01*
X109546554Y-93312295D02*
X109356077Y-93312295D01*
X109356077Y-93312295D02*
X109241792Y-93350390D01*
X109013220Y-93312295D02*
X108556077Y-93312295D01*
X108784649Y-94112295D02*
X108784649Y-93312295D01*
X110498935Y-81574200D02*
X110384649Y-81612295D01*
X110384649Y-81612295D02*
X110194173Y-81612295D01*
X110194173Y-81612295D02*
X110117982Y-81574200D01*
X110117982Y-81574200D02*
X110079887Y-81536104D01*
X110079887Y-81536104D02*
X110041792Y-81459914D01*
X110041792Y-81459914D02*
X110041792Y-81383723D01*
X110041792Y-81383723D02*
X110079887Y-81307533D01*
X110079887Y-81307533D02*
X110117982Y-81269438D01*
X110117982Y-81269438D02*
X110194173Y-81231342D01*
X110194173Y-81231342D02*
X110346554Y-81193247D01*
X110346554Y-81193247D02*
X110422744Y-81155152D01*
X110422744Y-81155152D02*
X110460839Y-81117057D01*
X110460839Y-81117057D02*
X110498935Y-81040866D01*
X110498935Y-81040866D02*
X110498935Y-80964676D01*
X110498935Y-80964676D02*
X110460839Y-80888485D01*
X110460839Y-80888485D02*
X110422744Y-80850390D01*
X110422744Y-80850390D02*
X110346554Y-80812295D01*
X110346554Y-80812295D02*
X110156077Y-80812295D01*
X110156077Y-80812295D02*
X110041792Y-80850390D01*
X109241791Y-81536104D02*
X109279887Y-81574200D01*
X109279887Y-81574200D02*
X109394172Y-81612295D01*
X109394172Y-81612295D02*
X109470363Y-81612295D01*
X109470363Y-81612295D02*
X109584649Y-81574200D01*
X109584649Y-81574200D02*
X109660839Y-81498009D01*
X109660839Y-81498009D02*
X109698934Y-81421819D01*
X109698934Y-81421819D02*
X109737030Y-81269438D01*
X109737030Y-81269438D02*
X109737030Y-81155152D01*
X109737030Y-81155152D02*
X109698934Y-81002771D01*
X109698934Y-81002771D02*
X109660839Y-80926580D01*
X109660839Y-80926580D02*
X109584649Y-80850390D01*
X109584649Y-80850390D02*
X109470363Y-80812295D01*
X109470363Y-80812295D02*
X109394172Y-80812295D01*
X109394172Y-80812295D02*
X109279887Y-80850390D01*
X109279887Y-80850390D02*
X109241791Y-80888485D01*
X108517982Y-81612295D02*
X108898934Y-81612295D01*
X108898934Y-81612295D02*
X108898934Y-80812295D01*
X110460839Y-86612295D02*
X110460839Y-85812295D01*
X110079887Y-86612295D02*
X110079887Y-85812295D01*
X110079887Y-85812295D02*
X109622744Y-86612295D01*
X109622744Y-86612295D02*
X109622744Y-85812295D01*
X109356078Y-85812295D02*
X108898935Y-85812295D01*
X109127507Y-86612295D02*
X109127507Y-85812295D01*
X105517731Y-60582942D02*
X105479636Y-60621038D01*
X105479636Y-60621038D02*
X105403445Y-60735323D01*
X105403445Y-60735323D02*
X105365350Y-60811514D01*
X105365350Y-60811514D02*
X105327255Y-60925800D01*
X105327255Y-60925800D02*
X105289160Y-61116276D01*
X105289160Y-61116276D02*
X105289160Y-61268657D01*
X105289160Y-61268657D02*
X105327255Y-61459133D01*
X105327255Y-61459133D02*
X105365350Y-61573419D01*
X105365350Y-61573419D02*
X105403445Y-61649609D01*
X105403445Y-61649609D02*
X105479636Y-61763895D01*
X105479636Y-61763895D02*
X105517731Y-61801990D01*
X106203445Y-61687704D02*
X105822493Y-61687704D01*
X105822493Y-61687704D02*
X105784397Y-61306752D01*
X105784397Y-61306752D02*
X105822493Y-61344847D01*
X105822493Y-61344847D02*
X105898683Y-61382942D01*
X105898683Y-61382942D02*
X106089159Y-61382942D01*
X106089159Y-61382942D02*
X106165350Y-61344847D01*
X106165350Y-61344847D02*
X106203445Y-61306752D01*
X106203445Y-61306752D02*
X106241540Y-61230561D01*
X106241540Y-61230561D02*
X106241540Y-61040085D01*
X106241540Y-61040085D02*
X106203445Y-60963895D01*
X106203445Y-60963895D02*
X106165350Y-60925800D01*
X106165350Y-60925800D02*
X106089159Y-60887704D01*
X106089159Y-60887704D02*
X105898683Y-60887704D01*
X105898683Y-60887704D02*
X105822493Y-60925800D01*
X105822493Y-60925800D02*
X105784397Y-60963895D01*
X106508207Y-60582942D02*
X106546302Y-60621038D01*
X106546302Y-60621038D02*
X106622493Y-60735323D01*
X106622493Y-60735323D02*
X106660588Y-60811514D01*
X106660588Y-60811514D02*
X106698683Y-60925800D01*
X106698683Y-60925800D02*
X106736779Y-61116276D01*
X106736779Y-61116276D02*
X106736779Y-61268657D01*
X106736779Y-61268657D02*
X106698683Y-61459133D01*
X106698683Y-61459133D02*
X106660588Y-61573419D01*
X106660588Y-61573419D02*
X106622493Y-61649609D01*
X106622493Y-61649609D02*
X106546302Y-61763895D01*
X106546302Y-61763895D02*
X106508207Y-61801990D01*
X108146302Y-61649609D02*
X108070112Y-61687704D01*
X108070112Y-61687704D02*
X107955826Y-61687704D01*
X107955826Y-61687704D02*
X107841540Y-61649609D01*
X107841540Y-61649609D02*
X107765350Y-61573419D01*
X107765350Y-61573419D02*
X107727255Y-61497228D01*
X107727255Y-61497228D02*
X107689159Y-61344847D01*
X107689159Y-61344847D02*
X107689159Y-61230561D01*
X107689159Y-61230561D02*
X107727255Y-61078180D01*
X107727255Y-61078180D02*
X107765350Y-61001990D01*
X107765350Y-61001990D02*
X107841540Y-60925800D01*
X107841540Y-60925800D02*
X107955826Y-60887704D01*
X107955826Y-60887704D02*
X108032017Y-60887704D01*
X108032017Y-60887704D02*
X108146302Y-60925800D01*
X108146302Y-60925800D02*
X108184398Y-60963895D01*
X108184398Y-60963895D02*
X108184398Y-61230561D01*
X108184398Y-61230561D02*
X108032017Y-61230561D01*
X108451064Y-61687704D02*
X108946302Y-61687704D01*
X108946302Y-61687704D02*
X108679636Y-61382942D01*
X108679636Y-61382942D02*
X108793921Y-61382942D01*
X108793921Y-61382942D02*
X108870112Y-61344847D01*
X108870112Y-61344847D02*
X108908207Y-61306752D01*
X108908207Y-61306752D02*
X108946302Y-61230561D01*
X108946302Y-61230561D02*
X108946302Y-61040085D01*
X108946302Y-61040085D02*
X108908207Y-60963895D01*
X108908207Y-60963895D02*
X108870112Y-60925800D01*
X108870112Y-60925800D02*
X108793921Y-60887704D01*
X108793921Y-60887704D02*
X108565350Y-60887704D01*
X108565350Y-60887704D02*
X108489159Y-60925800D01*
X108489159Y-60925800D02*
X108451064Y-60963895D01*
X109860588Y-60925800D02*
X109974874Y-60887704D01*
X109974874Y-60887704D02*
X110165350Y-60887704D01*
X110165350Y-60887704D02*
X110241541Y-60925800D01*
X110241541Y-60925800D02*
X110279636Y-60963895D01*
X110279636Y-60963895D02*
X110317731Y-61040085D01*
X110317731Y-61040085D02*
X110317731Y-61116276D01*
X110317731Y-61116276D02*
X110279636Y-61192466D01*
X110279636Y-61192466D02*
X110241541Y-61230561D01*
X110241541Y-61230561D02*
X110165350Y-61268657D01*
X110165350Y-61268657D02*
X110012969Y-61306752D01*
X110012969Y-61306752D02*
X109936779Y-61344847D01*
X109936779Y-61344847D02*
X109898684Y-61382942D01*
X109898684Y-61382942D02*
X109860588Y-61459133D01*
X109860588Y-61459133D02*
X109860588Y-61535323D01*
X109860588Y-61535323D02*
X109898684Y-61611514D01*
X109898684Y-61611514D02*
X109936779Y-61649609D01*
X109936779Y-61649609D02*
X110012969Y-61687704D01*
X110012969Y-61687704D02*
X110203446Y-61687704D01*
X110203446Y-61687704D02*
X110317731Y-61649609D01*
X111117732Y-60963895D02*
X111079636Y-60925800D01*
X111079636Y-60925800D02*
X110965351Y-60887704D01*
X110965351Y-60887704D02*
X110889160Y-60887704D01*
X110889160Y-60887704D02*
X110774874Y-60925800D01*
X110774874Y-60925800D02*
X110698684Y-61001990D01*
X110698684Y-61001990D02*
X110660589Y-61078180D01*
X110660589Y-61078180D02*
X110622493Y-61230561D01*
X110622493Y-61230561D02*
X110622493Y-61344847D01*
X110622493Y-61344847D02*
X110660589Y-61497228D01*
X110660589Y-61497228D02*
X110698684Y-61573419D01*
X110698684Y-61573419D02*
X110774874Y-61649609D01*
X110774874Y-61649609D02*
X110889160Y-61687704D01*
X110889160Y-61687704D02*
X110965351Y-61687704D01*
X110965351Y-61687704D02*
X111079636Y-61649609D01*
X111079636Y-61649609D02*
X111117732Y-61611514D01*
X111841541Y-60887704D02*
X111460589Y-60887704D01*
X111460589Y-60887704D02*
X111460589Y-61687704D01*
X105517731Y-63082942D02*
X105479636Y-63121038D01*
X105479636Y-63121038D02*
X105403445Y-63235323D01*
X105403445Y-63235323D02*
X105365350Y-63311514D01*
X105365350Y-63311514D02*
X105327255Y-63425800D01*
X105327255Y-63425800D02*
X105289160Y-63616276D01*
X105289160Y-63616276D02*
X105289160Y-63768657D01*
X105289160Y-63768657D02*
X105327255Y-63959133D01*
X105327255Y-63959133D02*
X105365350Y-64073419D01*
X105365350Y-64073419D02*
X105403445Y-64149609D01*
X105403445Y-64149609D02*
X105479636Y-64263895D01*
X105479636Y-64263895D02*
X105517731Y-64301990D01*
X105746302Y-64187704D02*
X106241540Y-64187704D01*
X106241540Y-64187704D02*
X105974874Y-63882942D01*
X105974874Y-63882942D02*
X106089159Y-63882942D01*
X106089159Y-63882942D02*
X106165350Y-63844847D01*
X106165350Y-63844847D02*
X106203445Y-63806752D01*
X106203445Y-63806752D02*
X106241540Y-63730561D01*
X106241540Y-63730561D02*
X106241540Y-63540085D01*
X106241540Y-63540085D02*
X106203445Y-63463895D01*
X106203445Y-63463895D02*
X106165350Y-63425800D01*
X106165350Y-63425800D02*
X106089159Y-63387704D01*
X106089159Y-63387704D02*
X105860588Y-63387704D01*
X105860588Y-63387704D02*
X105784397Y-63425800D01*
X105784397Y-63425800D02*
X105746302Y-63463895D01*
X106508207Y-63082942D02*
X106546302Y-63121038D01*
X106546302Y-63121038D02*
X106622493Y-63235323D01*
X106622493Y-63235323D02*
X106660588Y-63311514D01*
X106660588Y-63311514D02*
X106698683Y-63425800D01*
X106698683Y-63425800D02*
X106736779Y-63616276D01*
X106736779Y-63616276D02*
X106736779Y-63768657D01*
X106736779Y-63768657D02*
X106698683Y-63959133D01*
X106698683Y-63959133D02*
X106660588Y-64073419D01*
X106660588Y-64073419D02*
X106622493Y-64149609D01*
X106622493Y-64149609D02*
X106546302Y-64263895D01*
X106546302Y-64263895D02*
X106508207Y-64301990D01*
X108146302Y-64149609D02*
X108070112Y-64187704D01*
X108070112Y-64187704D02*
X107955826Y-64187704D01*
X107955826Y-64187704D02*
X107841540Y-64149609D01*
X107841540Y-64149609D02*
X107765350Y-64073419D01*
X107765350Y-64073419D02*
X107727255Y-63997228D01*
X107727255Y-63997228D02*
X107689159Y-63844847D01*
X107689159Y-63844847D02*
X107689159Y-63730561D01*
X107689159Y-63730561D02*
X107727255Y-63578180D01*
X107727255Y-63578180D02*
X107765350Y-63501990D01*
X107765350Y-63501990D02*
X107841540Y-63425800D01*
X107841540Y-63425800D02*
X107955826Y-63387704D01*
X107955826Y-63387704D02*
X108032017Y-63387704D01*
X108032017Y-63387704D02*
X108146302Y-63425800D01*
X108146302Y-63425800D02*
X108184398Y-63463895D01*
X108184398Y-63463895D02*
X108184398Y-63730561D01*
X108184398Y-63730561D02*
X108032017Y-63730561D01*
X108489159Y-64111514D02*
X108527255Y-64149609D01*
X108527255Y-64149609D02*
X108603445Y-64187704D01*
X108603445Y-64187704D02*
X108793921Y-64187704D01*
X108793921Y-64187704D02*
X108870112Y-64149609D01*
X108870112Y-64149609D02*
X108908207Y-64111514D01*
X108908207Y-64111514D02*
X108946302Y-64035323D01*
X108946302Y-64035323D02*
X108946302Y-63959133D01*
X108946302Y-63959133D02*
X108908207Y-63844847D01*
X108908207Y-63844847D02*
X108451064Y-63387704D01*
X108451064Y-63387704D02*
X108946302Y-63387704D01*
X109860588Y-63425800D02*
X109974874Y-63387704D01*
X109974874Y-63387704D02*
X110165350Y-63387704D01*
X110165350Y-63387704D02*
X110241541Y-63425800D01*
X110241541Y-63425800D02*
X110279636Y-63463895D01*
X110279636Y-63463895D02*
X110317731Y-63540085D01*
X110317731Y-63540085D02*
X110317731Y-63616276D01*
X110317731Y-63616276D02*
X110279636Y-63692466D01*
X110279636Y-63692466D02*
X110241541Y-63730561D01*
X110241541Y-63730561D02*
X110165350Y-63768657D01*
X110165350Y-63768657D02*
X110012969Y-63806752D01*
X110012969Y-63806752D02*
X109936779Y-63844847D01*
X109936779Y-63844847D02*
X109898684Y-63882942D01*
X109898684Y-63882942D02*
X109860588Y-63959133D01*
X109860588Y-63959133D02*
X109860588Y-64035323D01*
X109860588Y-64035323D02*
X109898684Y-64111514D01*
X109898684Y-64111514D02*
X109936779Y-64149609D01*
X109936779Y-64149609D02*
X110012969Y-64187704D01*
X110012969Y-64187704D02*
X110203446Y-64187704D01*
X110203446Y-64187704D02*
X110317731Y-64149609D01*
X110660589Y-63387704D02*
X110660589Y-64187704D01*
X110660589Y-64187704D02*
X110851065Y-64187704D01*
X110851065Y-64187704D02*
X110965351Y-64149609D01*
X110965351Y-64149609D02*
X111041541Y-64073419D01*
X111041541Y-64073419D02*
X111079636Y-63997228D01*
X111079636Y-63997228D02*
X111117732Y-63844847D01*
X111117732Y-63844847D02*
X111117732Y-63730561D01*
X111117732Y-63730561D02*
X111079636Y-63578180D01*
X111079636Y-63578180D02*
X111041541Y-63501990D01*
X111041541Y-63501990D02*
X110965351Y-63425800D01*
X110965351Y-63425800D02*
X110851065Y-63387704D01*
X110851065Y-63387704D02*
X110660589Y-63387704D01*
X111422493Y-63616276D02*
X111803446Y-63616276D01*
X111346303Y-63387704D02*
X111612970Y-64187704D01*
X111612970Y-64187704D02*
X111879636Y-63387704D01*
X105517731Y-55582942D02*
X105479636Y-55621038D01*
X105479636Y-55621038D02*
X105403445Y-55735323D01*
X105403445Y-55735323D02*
X105365350Y-55811514D01*
X105365350Y-55811514D02*
X105327255Y-55925800D01*
X105327255Y-55925800D02*
X105289160Y-56116276D01*
X105289160Y-56116276D02*
X105289160Y-56268657D01*
X105289160Y-56268657D02*
X105327255Y-56459133D01*
X105327255Y-56459133D02*
X105365350Y-56573419D01*
X105365350Y-56573419D02*
X105403445Y-56649609D01*
X105403445Y-56649609D02*
X105479636Y-56763895D01*
X105479636Y-56763895D02*
X105517731Y-56801990D01*
X105860588Y-55887704D02*
X106012969Y-55887704D01*
X106012969Y-55887704D02*
X106089159Y-55925800D01*
X106089159Y-55925800D02*
X106127255Y-55963895D01*
X106127255Y-55963895D02*
X106203445Y-56078180D01*
X106203445Y-56078180D02*
X106241540Y-56230561D01*
X106241540Y-56230561D02*
X106241540Y-56535323D01*
X106241540Y-56535323D02*
X106203445Y-56611514D01*
X106203445Y-56611514D02*
X106165350Y-56649609D01*
X106165350Y-56649609D02*
X106089159Y-56687704D01*
X106089159Y-56687704D02*
X105936778Y-56687704D01*
X105936778Y-56687704D02*
X105860588Y-56649609D01*
X105860588Y-56649609D02*
X105822493Y-56611514D01*
X105822493Y-56611514D02*
X105784397Y-56535323D01*
X105784397Y-56535323D02*
X105784397Y-56344847D01*
X105784397Y-56344847D02*
X105822493Y-56268657D01*
X105822493Y-56268657D02*
X105860588Y-56230561D01*
X105860588Y-56230561D02*
X105936778Y-56192466D01*
X105936778Y-56192466D02*
X106089159Y-56192466D01*
X106089159Y-56192466D02*
X106165350Y-56230561D01*
X106165350Y-56230561D02*
X106203445Y-56268657D01*
X106203445Y-56268657D02*
X106241540Y-56344847D01*
X106508207Y-55582942D02*
X106546302Y-55621038D01*
X106546302Y-55621038D02*
X106622493Y-55735323D01*
X106622493Y-55735323D02*
X106660588Y-55811514D01*
X106660588Y-55811514D02*
X106698683Y-55925800D01*
X106698683Y-55925800D02*
X106736779Y-56116276D01*
X106736779Y-56116276D02*
X106736779Y-56268657D01*
X106736779Y-56268657D02*
X106698683Y-56459133D01*
X106698683Y-56459133D02*
X106660588Y-56573419D01*
X106660588Y-56573419D02*
X106622493Y-56649609D01*
X106622493Y-56649609D02*
X106546302Y-56763895D01*
X106546302Y-56763895D02*
X106508207Y-56801990D01*
X108146302Y-56649609D02*
X108070112Y-56687704D01*
X108070112Y-56687704D02*
X107955826Y-56687704D01*
X107955826Y-56687704D02*
X107841540Y-56649609D01*
X107841540Y-56649609D02*
X107765350Y-56573419D01*
X107765350Y-56573419D02*
X107727255Y-56497228D01*
X107727255Y-56497228D02*
X107689159Y-56344847D01*
X107689159Y-56344847D02*
X107689159Y-56230561D01*
X107689159Y-56230561D02*
X107727255Y-56078180D01*
X107727255Y-56078180D02*
X107765350Y-56001990D01*
X107765350Y-56001990D02*
X107841540Y-55925800D01*
X107841540Y-55925800D02*
X107955826Y-55887704D01*
X107955826Y-55887704D02*
X108032017Y-55887704D01*
X108032017Y-55887704D02*
X108146302Y-55925800D01*
X108146302Y-55925800D02*
X108184398Y-55963895D01*
X108184398Y-55963895D02*
X108184398Y-56230561D01*
X108184398Y-56230561D02*
X108032017Y-56230561D01*
X108527255Y-55887704D02*
X108527255Y-56687704D01*
X108527255Y-56687704D02*
X108984398Y-55887704D01*
X108984398Y-55887704D02*
X108984398Y-56687704D01*
X109365350Y-55887704D02*
X109365350Y-56687704D01*
X109365350Y-56687704D02*
X109555826Y-56687704D01*
X109555826Y-56687704D02*
X109670112Y-56649609D01*
X109670112Y-56649609D02*
X109746302Y-56573419D01*
X109746302Y-56573419D02*
X109784397Y-56497228D01*
X109784397Y-56497228D02*
X109822493Y-56344847D01*
X109822493Y-56344847D02*
X109822493Y-56230561D01*
X109822493Y-56230561D02*
X109784397Y-56078180D01*
X109784397Y-56078180D02*
X109746302Y-56001990D01*
X109746302Y-56001990D02*
X109670112Y-55925800D01*
X109670112Y-55925800D02*
X109555826Y-55887704D01*
X109555826Y-55887704D02*
X109365350Y-55887704D01*
X105517731Y-65582942D02*
X105479636Y-65621038D01*
X105479636Y-65621038D02*
X105403445Y-65735323D01*
X105403445Y-65735323D02*
X105365350Y-65811514D01*
X105365350Y-65811514D02*
X105327255Y-65925800D01*
X105327255Y-65925800D02*
X105289160Y-66116276D01*
X105289160Y-66116276D02*
X105289160Y-66268657D01*
X105289160Y-66268657D02*
X105327255Y-66459133D01*
X105327255Y-66459133D02*
X105365350Y-66573419D01*
X105365350Y-66573419D02*
X105403445Y-66649609D01*
X105403445Y-66649609D02*
X105479636Y-66763895D01*
X105479636Y-66763895D02*
X105517731Y-66801990D01*
X106241540Y-65887704D02*
X105784397Y-65887704D01*
X106012969Y-65887704D02*
X106012969Y-66687704D01*
X106012969Y-66687704D02*
X105936778Y-66573419D01*
X105936778Y-66573419D02*
X105860588Y-66497228D01*
X105860588Y-66497228D02*
X105784397Y-66459133D01*
X106508207Y-65582942D02*
X106546302Y-65621038D01*
X106546302Y-65621038D02*
X106622493Y-65735323D01*
X106622493Y-65735323D02*
X106660588Y-65811514D01*
X106660588Y-65811514D02*
X106698683Y-65925800D01*
X106698683Y-65925800D02*
X106736779Y-66116276D01*
X106736779Y-66116276D02*
X106736779Y-66268657D01*
X106736779Y-66268657D02*
X106698683Y-66459133D01*
X106698683Y-66459133D02*
X106660588Y-66573419D01*
X106660588Y-66573419D02*
X106622493Y-66649609D01*
X106622493Y-66649609D02*
X106546302Y-66763895D01*
X106546302Y-66763895D02*
X106508207Y-66801990D01*
X107651064Y-66687704D02*
X108146302Y-66687704D01*
X108146302Y-66687704D02*
X107879636Y-66382942D01*
X107879636Y-66382942D02*
X107993921Y-66382942D01*
X107993921Y-66382942D02*
X108070112Y-66344847D01*
X108070112Y-66344847D02*
X108108207Y-66306752D01*
X108108207Y-66306752D02*
X108146302Y-66230561D01*
X108146302Y-66230561D02*
X108146302Y-66040085D01*
X108146302Y-66040085D02*
X108108207Y-65963895D01*
X108108207Y-65963895D02*
X108070112Y-65925800D01*
X108070112Y-65925800D02*
X107993921Y-65887704D01*
X107993921Y-65887704D02*
X107765350Y-65887704D01*
X107765350Y-65887704D02*
X107689159Y-65925800D01*
X107689159Y-65925800D02*
X107651064Y-65963895D01*
X108489160Y-65963895D02*
X108527255Y-65925800D01*
X108527255Y-65925800D02*
X108489160Y-65887704D01*
X108489160Y-65887704D02*
X108451064Y-65925800D01*
X108451064Y-65925800D02*
X108489160Y-65963895D01*
X108489160Y-65963895D02*
X108489160Y-65887704D01*
X108793921Y-66687704D02*
X109289159Y-66687704D01*
X109289159Y-66687704D02*
X109022493Y-66382942D01*
X109022493Y-66382942D02*
X109136778Y-66382942D01*
X109136778Y-66382942D02*
X109212969Y-66344847D01*
X109212969Y-66344847D02*
X109251064Y-66306752D01*
X109251064Y-66306752D02*
X109289159Y-66230561D01*
X109289159Y-66230561D02*
X109289159Y-66040085D01*
X109289159Y-66040085D02*
X109251064Y-65963895D01*
X109251064Y-65963895D02*
X109212969Y-65925800D01*
X109212969Y-65925800D02*
X109136778Y-65887704D01*
X109136778Y-65887704D02*
X108908207Y-65887704D01*
X108908207Y-65887704D02*
X108832016Y-65925800D01*
X108832016Y-65925800D02*
X108793921Y-65963895D01*
X109517731Y-66687704D02*
X109784398Y-65887704D01*
X109784398Y-65887704D02*
X110051064Y-66687704D01*
X110812969Y-66687704D02*
X111079636Y-65887704D01*
X111079636Y-65887704D02*
X111346302Y-66687704D01*
X111612969Y-65887704D02*
X111612969Y-66687704D01*
X111612969Y-66687704D02*
X111803445Y-66687704D01*
X111803445Y-66687704D02*
X111917731Y-66649609D01*
X111917731Y-66649609D02*
X111993921Y-66573419D01*
X111993921Y-66573419D02*
X112032016Y-66497228D01*
X112032016Y-66497228D02*
X112070112Y-66344847D01*
X112070112Y-66344847D02*
X112070112Y-66230561D01*
X112070112Y-66230561D02*
X112032016Y-66078180D01*
X112032016Y-66078180D02*
X111993921Y-66001990D01*
X111993921Y-66001990D02*
X111917731Y-65925800D01*
X111917731Y-65925800D02*
X111803445Y-65887704D01*
X111803445Y-65887704D02*
X111612969Y-65887704D01*
X112412969Y-65887704D02*
X112412969Y-66687704D01*
X112412969Y-66687704D02*
X112603445Y-66687704D01*
X112603445Y-66687704D02*
X112717731Y-66649609D01*
X112717731Y-66649609D02*
X112793921Y-66573419D01*
X112793921Y-66573419D02*
X112832016Y-66497228D01*
X112832016Y-66497228D02*
X112870112Y-66344847D01*
X112870112Y-66344847D02*
X112870112Y-66230561D01*
X112870112Y-66230561D02*
X112832016Y-66078180D01*
X112832016Y-66078180D02*
X112793921Y-66001990D01*
X112793921Y-66001990D02*
X112717731Y-65925800D01*
X112717731Y-65925800D02*
X112603445Y-65887704D01*
X112603445Y-65887704D02*
X112412969Y-65887704D01*
X105517731Y-58082942D02*
X105479636Y-58121038D01*
X105479636Y-58121038D02*
X105403445Y-58235323D01*
X105403445Y-58235323D02*
X105365350Y-58311514D01*
X105365350Y-58311514D02*
X105327255Y-58425800D01*
X105327255Y-58425800D02*
X105289160Y-58616276D01*
X105289160Y-58616276D02*
X105289160Y-58768657D01*
X105289160Y-58768657D02*
X105327255Y-58959133D01*
X105327255Y-58959133D02*
X105365350Y-59073419D01*
X105365350Y-59073419D02*
X105403445Y-59149609D01*
X105403445Y-59149609D02*
X105479636Y-59263895D01*
X105479636Y-59263895D02*
X105517731Y-59301990D01*
X105746302Y-59187704D02*
X106279636Y-59187704D01*
X106279636Y-59187704D02*
X105936778Y-58387704D01*
X106508207Y-58082942D02*
X106546302Y-58121038D01*
X106546302Y-58121038D02*
X106622493Y-58235323D01*
X106622493Y-58235323D02*
X106660588Y-58311514D01*
X106660588Y-58311514D02*
X106698683Y-58425800D01*
X106698683Y-58425800D02*
X106736779Y-58616276D01*
X106736779Y-58616276D02*
X106736779Y-58768657D01*
X106736779Y-58768657D02*
X106698683Y-58959133D01*
X106698683Y-58959133D02*
X106660588Y-59073419D01*
X106660588Y-59073419D02*
X106622493Y-59149609D01*
X106622493Y-59149609D02*
X106546302Y-59263895D01*
X106546302Y-59263895D02*
X106508207Y-59301990D01*
X108146302Y-59149609D02*
X108070112Y-59187704D01*
X108070112Y-59187704D02*
X107955826Y-59187704D01*
X107955826Y-59187704D02*
X107841540Y-59149609D01*
X107841540Y-59149609D02*
X107765350Y-59073419D01*
X107765350Y-59073419D02*
X107727255Y-58997228D01*
X107727255Y-58997228D02*
X107689159Y-58844847D01*
X107689159Y-58844847D02*
X107689159Y-58730561D01*
X107689159Y-58730561D02*
X107727255Y-58578180D01*
X107727255Y-58578180D02*
X107765350Y-58501990D01*
X107765350Y-58501990D02*
X107841540Y-58425800D01*
X107841540Y-58425800D02*
X107955826Y-58387704D01*
X107955826Y-58387704D02*
X108032017Y-58387704D01*
X108032017Y-58387704D02*
X108146302Y-58425800D01*
X108146302Y-58425800D02*
X108184398Y-58463895D01*
X108184398Y-58463895D02*
X108184398Y-58730561D01*
X108184398Y-58730561D02*
X108032017Y-58730561D01*
X108870112Y-58921038D02*
X108870112Y-58387704D01*
X108679636Y-59225800D02*
X108489159Y-58654371D01*
X108489159Y-58654371D02*
X108984398Y-58654371D01*
X109898684Y-58387704D02*
X109898684Y-59187704D01*
X110279636Y-58387704D02*
X110279636Y-59187704D01*
X110279636Y-59187704D02*
X110736779Y-58387704D01*
X110736779Y-58387704D02*
X110736779Y-59187704D01*
X111003445Y-59187704D02*
X111460588Y-59187704D01*
X111232016Y-58387704D02*
X111232016Y-59187704D01*
X105517731Y-53082942D02*
X105479636Y-53121038D01*
X105479636Y-53121038D02*
X105403445Y-53235323D01*
X105403445Y-53235323D02*
X105365350Y-53311514D01*
X105365350Y-53311514D02*
X105327255Y-53425800D01*
X105327255Y-53425800D02*
X105289160Y-53616276D01*
X105289160Y-53616276D02*
X105289160Y-53768657D01*
X105289160Y-53768657D02*
X105327255Y-53959133D01*
X105327255Y-53959133D02*
X105365350Y-54073419D01*
X105365350Y-54073419D02*
X105403445Y-54149609D01*
X105403445Y-54149609D02*
X105479636Y-54263895D01*
X105479636Y-54263895D02*
X105517731Y-54301990D01*
X106241540Y-53387704D02*
X105784397Y-53387704D01*
X106012969Y-53387704D02*
X106012969Y-54187704D01*
X106012969Y-54187704D02*
X105936778Y-54073419D01*
X105936778Y-54073419D02*
X105860588Y-53997228D01*
X105860588Y-53997228D02*
X105784397Y-53959133D01*
X107003445Y-53387704D02*
X106546302Y-53387704D01*
X106774874Y-53387704D02*
X106774874Y-54187704D01*
X106774874Y-54187704D02*
X106698683Y-54073419D01*
X106698683Y-54073419D02*
X106622493Y-53997228D01*
X106622493Y-53997228D02*
X106546302Y-53959133D01*
X107270112Y-53082942D02*
X107308207Y-53121038D01*
X107308207Y-53121038D02*
X107384398Y-53235323D01*
X107384398Y-53235323D02*
X107422493Y-53311514D01*
X107422493Y-53311514D02*
X107460588Y-53425800D01*
X107460588Y-53425800D02*
X107498684Y-53616276D01*
X107498684Y-53616276D02*
X107498684Y-53768657D01*
X107498684Y-53768657D02*
X107460588Y-53959133D01*
X107460588Y-53959133D02*
X107422493Y-54073419D01*
X107422493Y-54073419D02*
X107384398Y-54149609D01*
X107384398Y-54149609D02*
X107308207Y-54263895D01*
X107308207Y-54263895D02*
X107270112Y-54301990D01*
X108908207Y-54149609D02*
X108832017Y-54187704D01*
X108832017Y-54187704D02*
X108717731Y-54187704D01*
X108717731Y-54187704D02*
X108603445Y-54149609D01*
X108603445Y-54149609D02*
X108527255Y-54073419D01*
X108527255Y-54073419D02*
X108489160Y-53997228D01*
X108489160Y-53997228D02*
X108451064Y-53844847D01*
X108451064Y-53844847D02*
X108451064Y-53730561D01*
X108451064Y-53730561D02*
X108489160Y-53578180D01*
X108489160Y-53578180D02*
X108527255Y-53501990D01*
X108527255Y-53501990D02*
X108603445Y-53425800D01*
X108603445Y-53425800D02*
X108717731Y-53387704D01*
X108717731Y-53387704D02*
X108793922Y-53387704D01*
X108793922Y-53387704D02*
X108908207Y-53425800D01*
X108908207Y-53425800D02*
X108946303Y-53463895D01*
X108946303Y-53463895D02*
X108946303Y-53730561D01*
X108946303Y-53730561D02*
X108793922Y-53730561D01*
X109708207Y-53387704D02*
X109251064Y-53387704D01*
X109479636Y-53387704D02*
X109479636Y-54187704D01*
X109479636Y-54187704D02*
X109403445Y-54073419D01*
X109403445Y-54073419D02*
X109327255Y-53997228D01*
X109327255Y-53997228D02*
X109251064Y-53959133D01*
X109974874Y-54187704D02*
X110508208Y-54187704D01*
X110508208Y-54187704D02*
X110165350Y-53387704D01*
X111879637Y-53387704D02*
X111612970Y-53768657D01*
X111422494Y-53387704D02*
X111422494Y-54187704D01*
X111422494Y-54187704D02*
X111727256Y-54187704D01*
X111727256Y-54187704D02*
X111803446Y-54149609D01*
X111803446Y-54149609D02*
X111841541Y-54111514D01*
X111841541Y-54111514D02*
X111879637Y-54035323D01*
X111879637Y-54035323D02*
X111879637Y-53921038D01*
X111879637Y-53921038D02*
X111841541Y-53844847D01*
X111841541Y-53844847D02*
X111803446Y-53806752D01*
X111803446Y-53806752D02*
X111727256Y-53768657D01*
X111727256Y-53768657D02*
X111422494Y-53768657D01*
X112184398Y-53425800D02*
X112298684Y-53387704D01*
X112298684Y-53387704D02*
X112489160Y-53387704D01*
X112489160Y-53387704D02*
X112565351Y-53425800D01*
X112565351Y-53425800D02*
X112603446Y-53463895D01*
X112603446Y-53463895D02*
X112641541Y-53540085D01*
X112641541Y-53540085D02*
X112641541Y-53616276D01*
X112641541Y-53616276D02*
X112603446Y-53692466D01*
X112603446Y-53692466D02*
X112565351Y-53730561D01*
X112565351Y-53730561D02*
X112489160Y-53768657D01*
X112489160Y-53768657D02*
X112336779Y-53806752D01*
X112336779Y-53806752D02*
X112260589Y-53844847D01*
X112260589Y-53844847D02*
X112222494Y-53882942D01*
X112222494Y-53882942D02*
X112184398Y-53959133D01*
X112184398Y-53959133D02*
X112184398Y-54035323D01*
X112184398Y-54035323D02*
X112222494Y-54111514D01*
X112222494Y-54111514D02*
X112260589Y-54149609D01*
X112260589Y-54149609D02*
X112336779Y-54187704D01*
X112336779Y-54187704D02*
X112527256Y-54187704D01*
X112527256Y-54187704D02*
X112641541Y-54149609D01*
X112870113Y-54187704D02*
X113327256Y-54187704D01*
X113098684Y-53387704D02*
X113098684Y-54187704D01*
X112833333Y-78204819D02*
X112833333Y-78919104D01*
X112833333Y-78919104D02*
X112880952Y-79061961D01*
X112880952Y-79061961D02*
X112976190Y-79157200D01*
X112976190Y-79157200D02*
X113119047Y-79204819D01*
X113119047Y-79204819D02*
X113214285Y-79204819D01*
X112404761Y-78300057D02*
X112357142Y-78252438D01*
X112357142Y-78252438D02*
X112261904Y-78204819D01*
X112261904Y-78204819D02*
X112023809Y-78204819D01*
X112023809Y-78204819D02*
X111928571Y-78252438D01*
X111928571Y-78252438D02*
X111880952Y-78300057D01*
X111880952Y-78300057D02*
X111833333Y-78395295D01*
X111833333Y-78395295D02*
X111833333Y-78490533D01*
X111833333Y-78490533D02*
X111880952Y-78633390D01*
X111880952Y-78633390D02*
X112452380Y-79204819D01*
X112452380Y-79204819D02*
X111833333Y-79204819D01*
D11*
%TO.C,J2*%
X111195000Y-79845000D02*
X112525000Y-79845000D01*
X111195000Y-81175000D02*
X111195000Y-79845000D01*
X111195000Y-82445000D02*
X113855000Y-82445000D01*
X111195000Y-95205000D02*
X111195000Y-82445000D01*
X111195000Y-95205000D02*
X113855000Y-95205000D01*
X113855000Y-95205000D02*
X113855000Y-82445000D01*
%TD*%
M02*
