%TF.GenerationSoftware,KiCad,Pcbnew,8.0.3*%
%TF.CreationDate,2024-07-26T09:17:15-04:00*%
%TF.ProjectId,touch_adaptor,746f7563-685f-4616-9461-70746f722e6b,rev?*%
%TF.SameCoordinates,Original*%
%TF.FileFunction,Soldermask,Top*%
%TF.FilePolarity,Negative*%
%FSLAX46Y46*%
G04 Gerber Fmt 4.6, Leading zero omitted, Abs format (unit mm)*
G04 Created by KiCad (PCBNEW 8.0.3) date 2024-07-26 09:17:15*
%MOMM*%
%LPD*%
G01*
G04 APERTURE LIST*
G04 Aperture macros list*
%AMRoundRect*
0 Rectangle with rounded corners*
0 $1 Rounding radius*
0 $2 $3 $4 $5 $6 $7 $8 $9 X,Y pos of 4 corners*
0 Add a 4 corners polygon primitive as box body*
4,1,4,$2,$3,$4,$5,$6,$7,$8,$9,$2,$3,0*
0 Add four circle primitives for the rounded corners*
1,1,$1+$1,$2,$3*
1,1,$1+$1,$4,$5*
1,1,$1+$1,$6,$7*
1,1,$1+$1,$8,$9*
0 Add four rect primitives between the rounded corners*
20,1,$1+$1,$2,$3,$4,$5,0*
20,1,$1+$1,$4,$5,$6,$7,0*
20,1,$1+$1,$6,$7,$8,$9,0*
20,1,$1+$1,$8,$9,$2,$3,0*%
G04 Aperture macros list end*
%ADD10C,0.010000*%
%ADD11C,1.450000*%
%ADD12RoundRect,0.102000X-0.550000X0.250000X-0.550000X-0.250000X0.550000X-0.250000X0.550000X0.250000X0*%
%ADD13R,1.700000X1.700000*%
%ADD14O,1.700000X1.700000*%
%ADD15RoundRect,0.102000X-1.100000X0.900000X-1.100000X-0.900000X1.100000X-0.900000X1.100000X0.900000X0*%
G04 APERTURE END LIST*
D10*
%TO.C,J1*%
X106950000Y-86450000D02*
X105550000Y-86450000D01*
X105550000Y-86050000D01*
X106950000Y-86050000D01*
X106950000Y-86450000D01*
G36*
X106950000Y-86450000D02*
G01*
X105550000Y-86450000D01*
X105550000Y-86050000D01*
X106950000Y-86050000D01*
X106950000Y-86450000D01*
G37*
X106950000Y-86950000D02*
X105550000Y-86950000D01*
X105550000Y-86550000D01*
X106950000Y-86550000D01*
X106950000Y-86950000D01*
G36*
X106950000Y-86950000D02*
G01*
X105550000Y-86950000D01*
X105550000Y-86550000D01*
X106950000Y-86550000D01*
X106950000Y-86950000D01*
G37*
X106950000Y-87450000D02*
X105550000Y-87450000D01*
X105550000Y-87050000D01*
X106950000Y-87050000D01*
X106950000Y-87450000D01*
G36*
X106950000Y-87450000D02*
G01*
X105550000Y-87450000D01*
X105550000Y-87050000D01*
X106950000Y-87050000D01*
X106950000Y-87450000D01*
G37*
X106950000Y-87950000D02*
X105550000Y-87950000D01*
X105550000Y-87550000D01*
X106950000Y-87550000D01*
X106950000Y-87950000D01*
G36*
X106950000Y-87950000D02*
G01*
X105550000Y-87950000D01*
X105550000Y-87550000D01*
X106950000Y-87550000D01*
X106950000Y-87950000D01*
G37*
X106950000Y-88450000D02*
X105550000Y-88450000D01*
X105550000Y-88050000D01*
X106950000Y-88050000D01*
X106950000Y-88450000D01*
G36*
X106950000Y-88450000D02*
G01*
X105550000Y-88450000D01*
X105550000Y-88050000D01*
X106950000Y-88050000D01*
X106950000Y-88450000D01*
G37*
X106950000Y-88950000D02*
X105550000Y-88950000D01*
X105550000Y-88550000D01*
X106950000Y-88550000D01*
X106950000Y-88950000D01*
G36*
X106950000Y-88950000D02*
G01*
X105550000Y-88950000D01*
X105550000Y-88550000D01*
X106950000Y-88550000D01*
X106950000Y-88950000D01*
G37*
%TD*%
D11*
%TO.C,J3*%
X119500000Y-54600000D03*
X119500000Y-65400000D03*
D12*
X122900000Y-56400000D03*
X119100000Y-56400000D03*
X122900000Y-57200000D03*
X119100000Y-57200000D03*
X122900000Y-58000000D03*
X119100000Y-58000000D03*
X122900000Y-58800000D03*
X119100000Y-58800000D03*
X122900000Y-59600000D03*
X119100000Y-59600000D03*
X122900000Y-60400000D03*
X119100000Y-60400000D03*
X122900000Y-61200000D03*
X119100000Y-61200000D03*
X122900000Y-62000000D03*
X119100000Y-62000000D03*
X122900000Y-62800000D03*
X119100000Y-62800000D03*
X122900000Y-63600000D03*
X119100000Y-63600000D03*
%TD*%
D11*
%TO.C,J4*%
X119500000Y-82100000D03*
X119500000Y-92900000D03*
D12*
X122900000Y-83900000D03*
X119100000Y-83900000D03*
X122900000Y-84700000D03*
X119100000Y-84700000D03*
X122900000Y-85500000D03*
X119100000Y-85500000D03*
X122900000Y-86300000D03*
X119100000Y-86300000D03*
X122900000Y-87100000D03*
X119100000Y-87100000D03*
X122900000Y-87900000D03*
X119100000Y-87900000D03*
X122900000Y-88700000D03*
X119100000Y-88700000D03*
X122900000Y-89500000D03*
X119100000Y-89500000D03*
X122900000Y-90300000D03*
X119100000Y-90300000D03*
X122900000Y-91100000D03*
X119100000Y-91100000D03*
%TD*%
D13*
%TO.C,J5*%
X103250000Y-66350000D03*
D14*
X103250000Y-63810000D03*
X103250000Y-61270000D03*
X103250000Y-58730000D03*
X103250000Y-56190000D03*
X103250000Y-53650000D03*
%TD*%
D15*
%TO.C,J1*%
X103000000Y-84350000D03*
X103000000Y-90650000D03*
%TD*%
D13*
%TO.C,J2*%
X112525000Y-81175000D03*
D14*
X112525000Y-83715000D03*
X112525000Y-86255000D03*
X112525000Y-88795000D03*
X112525000Y-91335000D03*
X112525000Y-93875000D03*
%TD*%
M02*
