%TF.GenerationSoftware,KiCad,Pcbnew,8.0.3*%
%TF.CreationDate,2024-07-26T09:17:15-04:00*%
%TF.ProjectId,touch_adaptor,746f7563-685f-4616-9461-70746f722e6b,rev?*%
%TF.SameCoordinates,Original*%
%TF.FileFunction,Copper,L2,Bot*%
%TF.FilePolarity,Positive*%
%FSLAX46Y46*%
G04 Gerber Fmt 4.6, Leading zero omitted, Abs format (unit mm)*
G04 Created by KiCad (PCBNEW 8.0.3) date 2024-07-26 09:17:15*
%MOMM*%
%LPD*%
G01*
G04 APERTURE LIST*
%TA.AperFunction,ComponentPad*%
%ADD10R,1.700000X1.700000*%
%TD*%
%TA.AperFunction,ComponentPad*%
%ADD11O,1.700000X1.700000*%
%TD*%
%TA.AperFunction,ViaPad*%
%ADD12C,0.600000*%
%TD*%
%TA.AperFunction,Conductor*%
%ADD13C,0.200000*%
%TD*%
%TA.AperFunction,Conductor*%
%ADD14C,0.300000*%
%TD*%
G04 APERTURE END LIST*
D10*
%TO.P,J5,1,Pin_1*%
%TO.N,unconnected-(J5-Pin_1-Pad1)*%
X103250000Y-66350000D03*
D11*
%TO.P,J5,2,Pin_2*%
%TO.N,SER_SDA*%
X103250000Y-63810000D03*
%TO.P,J5,3,Pin_3*%
%TO.N,SER_SCL*%
X103250000Y-61270000D03*
%TO.P,J5,4,Pin_4*%
%TO.N,SER_GPIO07*%
X103250000Y-58730000D03*
%TO.P,J5,5,Pin_5*%
%TO.N,GND*%
X103250000Y-56190000D03*
%TO.P,J5,6,Pin_6*%
%TO.N,SER_GPIO08*%
X103250000Y-53650000D03*
%TD*%
D10*
%TO.P,J2,1,Pin_1*%
%TO.N,DES_SCL*%
X112525000Y-81175000D03*
D11*
%TO.P,J2,2,Pin_2*%
%TO.N,DES_SDA*%
X112525000Y-83715000D03*
%TO.P,J2,3,Pin_3*%
%TO.N,DES_GPIO07*%
X112525000Y-86255000D03*
%TO.P,J2,4,Pin_4*%
%TO.N,GND*%
X112525000Y-88795000D03*
%TO.P,J2,5,Pin_5*%
%TO.N,DES_3V3*%
X112525000Y-91335000D03*
%TO.P,J2,6,Pin_6*%
%TO.N,DES_GPIO08*%
X112525000Y-93875000D03*
%TD*%
D12*
%TO.N,SER_GPIO08*%
X112500000Y-59750000D03*
%TO.N,SER_SDA*%
X115000000Y-62000000D03*
X120750000Y-61250000D03*
%TO.N,GND*%
X101250000Y-56250000D03*
X105250000Y-56250000D03*
X117250000Y-62000000D03*
X117250000Y-58750000D03*
X121000000Y-58750000D03*
X121250000Y-62000000D03*
X114250000Y-90000000D03*
X109250000Y-87750000D03*
X114250000Y-92500000D03*
X121500000Y-90000000D03*
X121000000Y-86250000D03*
X117500000Y-90500000D03*
X117500000Y-85750000D03*
X104750000Y-87750000D03*
X110500000Y-87750000D03*
%TO.N,DES_SDA*%
X121500000Y-88750000D03*
%TO.N,DES_SCL*%
X117250000Y-88700000D03*
%TO.N,DES_3V3*%
X121500000Y-91100000D03*
%TD*%
D13*
%TO.N,SER_GPIO08*%
X106400000Y-53650000D02*
X103250000Y-53650000D01*
X112500000Y-59750000D02*
X106400000Y-53650000D01*
%TO.N,SER_SDA*%
X115750000Y-61250000D02*
X115000000Y-62000000D01*
X120750000Y-61250000D02*
X115750000Y-61250000D01*
%TO.N,DES_SDA*%
X114750000Y-84250000D02*
X114750000Y-88750000D01*
X115500000Y-89500000D02*
X120750000Y-89500000D01*
X120750000Y-89500000D02*
X121500000Y-88750000D01*
X114215000Y-83715000D02*
X114750000Y-84250000D01*
X114750000Y-88750000D02*
X115500000Y-89500000D01*
X112525000Y-83715000D02*
X114215000Y-83715000D01*
%TO.N,DES_SCL*%
X115750000Y-84400000D02*
X112525000Y-81175000D01*
X115750000Y-87598529D02*
X115750000Y-84400000D01*
X116851471Y-88700000D02*
X115750000Y-87598529D01*
X117250000Y-88700000D02*
X116851471Y-88700000D01*
D14*
%TO.N,DES_3V3*%
X121500000Y-94750000D02*
X119500000Y-96750000D01*
X109500000Y-92500000D02*
X110665000Y-91335000D01*
X121500000Y-91100000D02*
X121500000Y-94750000D01*
X119500000Y-96750000D02*
X111000000Y-96750000D01*
X111000000Y-96750000D02*
X109500000Y-95250000D01*
X110665000Y-91335000D02*
X112525000Y-91335000D01*
X109500000Y-95250000D02*
X109500000Y-92500000D01*
%TD*%
%TA.AperFunction,Conductor*%
%TO.N,GND*%
G36*
X119418336Y-75245545D02*
G01*
X119462683Y-75274046D01*
X119529111Y-75340474D01*
X119529117Y-75340479D01*
X119672304Y-75430450D01*
X119672307Y-75430452D01*
X119672311Y-75430453D01*
X119672312Y-75430454D01*
X119672318Y-75430456D01*
X119831945Y-75486312D01*
X119999999Y-75505247D01*
X120000002Y-75505247D01*
X120000005Y-75505247D01*
X120168058Y-75486312D01*
X120168061Y-75486311D01*
X120327692Y-75430454D01*
X120434417Y-75363393D01*
X120501653Y-75344393D01*
X120551899Y-75355592D01*
X120595302Y-75375414D01*
X120636702Y-75394321D01*
X120636708Y-75394323D01*
X120839788Y-75453951D01*
X120876954Y-75464864D01*
X121124802Y-75500500D01*
X121184108Y-75500500D01*
X122434108Y-75500500D01*
X122495933Y-75500500D01*
X122504043Y-75500765D01*
X122752895Y-75517075D01*
X122768953Y-75519190D01*
X122976105Y-75560395D01*
X123009535Y-75567045D01*
X123025202Y-75571243D01*
X123194947Y-75628863D01*
X123257481Y-75650091D01*
X123272458Y-75656294D01*
X123481799Y-75759529D01*
X123492460Y-75764787D01*
X123506508Y-75772897D01*
X123710464Y-75909177D01*
X123723328Y-75919048D01*
X123907749Y-76080781D01*
X123919218Y-76092250D01*
X124080951Y-76276671D01*
X124090825Y-76289539D01*
X124227102Y-76493492D01*
X124235212Y-76507539D01*
X124343702Y-76727534D01*
X124349909Y-76742520D01*
X124428756Y-76974797D01*
X124432954Y-76990464D01*
X124480807Y-77231035D01*
X124482925Y-77247116D01*
X124499235Y-77495956D01*
X124499500Y-77504066D01*
X124499500Y-97495930D01*
X124499235Y-97504040D01*
X124482925Y-97752883D01*
X124480807Y-97768964D01*
X124432954Y-98009535D01*
X124428756Y-98025202D01*
X124349909Y-98257479D01*
X124343702Y-98272465D01*
X124235212Y-98492460D01*
X124227102Y-98506507D01*
X124090825Y-98710460D01*
X124080951Y-98723328D01*
X123919218Y-98907749D01*
X123907749Y-98919218D01*
X123723328Y-99080951D01*
X123710460Y-99090825D01*
X123506507Y-99227102D01*
X123492460Y-99235212D01*
X123272465Y-99343702D01*
X123257479Y-99349909D01*
X123025202Y-99428756D01*
X123009535Y-99432954D01*
X122768964Y-99480807D01*
X122752883Y-99482925D01*
X122504043Y-99499235D01*
X122495933Y-99499500D01*
X102504067Y-99499500D01*
X102495957Y-99499235D01*
X102247116Y-99482925D01*
X102231035Y-99480807D01*
X101990464Y-99432954D01*
X101974797Y-99428756D01*
X101742520Y-99349909D01*
X101727534Y-99343702D01*
X101507539Y-99235212D01*
X101493492Y-99227102D01*
X101289539Y-99090825D01*
X101276671Y-99080951D01*
X101092250Y-98919218D01*
X101080781Y-98907749D01*
X100919048Y-98723328D01*
X100909174Y-98710460D01*
X100772897Y-98506507D01*
X100764787Y-98492460D01*
X100658855Y-98277652D01*
X100656294Y-98272458D01*
X100650090Y-98257479D01*
X100571243Y-98025202D01*
X100567045Y-98009535D01*
X100559186Y-97970026D01*
X100519190Y-97768953D01*
X100517075Y-97752893D01*
X100500765Y-97504039D01*
X100500500Y-97495930D01*
X100500500Y-92435928D01*
X108849500Y-92435928D01*
X108849500Y-95314070D01*
X108861720Y-95375500D01*
X108861720Y-95375502D01*
X108874497Y-95439736D01*
X108874499Y-95439744D01*
X108923534Y-95558125D01*
X108994726Y-95664673D01*
X110585327Y-97255274D01*
X110662462Y-97306814D01*
X110662463Y-97306814D01*
X110672311Y-97313394D01*
X110691872Y-97326465D01*
X110740908Y-97346776D01*
X110810256Y-97375501D01*
X110810260Y-97375501D01*
X110810261Y-97375502D01*
X110935928Y-97400500D01*
X110935931Y-97400500D01*
X119564071Y-97400500D01*
X119648615Y-97383682D01*
X119689744Y-97375501D01*
X119808127Y-97326465D01*
X119837537Y-97306814D01*
X119914669Y-97255277D01*
X122005276Y-95164669D01*
X122076465Y-95058127D01*
X122125501Y-94939744D01*
X122145928Y-94837051D01*
X122145929Y-94837047D01*
X122150500Y-94814073D01*
X122150500Y-91605067D01*
X122169507Y-91539094D01*
X122225788Y-91449524D01*
X122285368Y-91279254D01*
X122285369Y-91279249D01*
X122305565Y-91100003D01*
X122305565Y-91099996D01*
X122285369Y-90920750D01*
X122285368Y-90920745D01*
X122225788Y-90750476D01*
X122129815Y-90597737D01*
X122002262Y-90470184D01*
X121849523Y-90374211D01*
X121679254Y-90314631D01*
X121679249Y-90314630D01*
X121500004Y-90294435D01*
X121499996Y-90294435D01*
X121320750Y-90314630D01*
X121320745Y-90314631D01*
X121150476Y-90374211D01*
X120997737Y-90470184D01*
X120870184Y-90597737D01*
X120774211Y-90750476D01*
X120714631Y-90920745D01*
X120714630Y-90920750D01*
X120694435Y-91099996D01*
X120694435Y-91100003D01*
X120714630Y-91279249D01*
X120714631Y-91279254D01*
X120774211Y-91449524D01*
X120830493Y-91539094D01*
X120849500Y-91605067D01*
X120849500Y-94429192D01*
X120829815Y-94496231D01*
X120813181Y-94516873D01*
X119266873Y-96063181D01*
X119205550Y-96096666D01*
X119179192Y-96099500D01*
X111320808Y-96099500D01*
X111253769Y-96079815D01*
X111233127Y-96063181D01*
X110186819Y-95016873D01*
X110153334Y-94955550D01*
X110150500Y-94929192D01*
X110150500Y-92820808D01*
X110170185Y-92753769D01*
X110186819Y-92733127D01*
X110898127Y-92021819D01*
X110959450Y-91988334D01*
X110985808Y-91985500D01*
X111267278Y-91985500D01*
X111334317Y-92005185D01*
X111368853Y-92038377D01*
X111486501Y-92206396D01*
X111486506Y-92206402D01*
X111653597Y-92373493D01*
X111653603Y-92373498D01*
X111839158Y-92503425D01*
X111882783Y-92558002D01*
X111889977Y-92627500D01*
X111858454Y-92689855D01*
X111839158Y-92706575D01*
X111653597Y-92836505D01*
X111486505Y-93003597D01*
X111350965Y-93197169D01*
X111350964Y-93197171D01*
X111251098Y-93411335D01*
X111251094Y-93411344D01*
X111189938Y-93639586D01*
X111189936Y-93639596D01*
X111169341Y-93874999D01*
X111169341Y-93875000D01*
X111189936Y-94110403D01*
X111189938Y-94110413D01*
X111251094Y-94338655D01*
X111251096Y-94338659D01*
X111251097Y-94338663D01*
X111334198Y-94516873D01*
X111350965Y-94552830D01*
X111350967Y-94552834D01*
X111459281Y-94707521D01*
X111486505Y-94746401D01*
X111653599Y-94913495D01*
X111713660Y-94955550D01*
X111847165Y-95049032D01*
X111847167Y-95049033D01*
X111847170Y-95049035D01*
X112061337Y-95148903D01*
X112289592Y-95210063D01*
X112477918Y-95226539D01*
X112524999Y-95230659D01*
X112525000Y-95230659D01*
X112525001Y-95230659D01*
X112564234Y-95227226D01*
X112760408Y-95210063D01*
X112988663Y-95148903D01*
X113202830Y-95049035D01*
X113396401Y-94913495D01*
X113563495Y-94746401D01*
X113699035Y-94552830D01*
X113798903Y-94338663D01*
X113860063Y-94110408D01*
X113880659Y-93875000D01*
X113860063Y-93639592D01*
X113798903Y-93411337D01*
X113699035Y-93197171D01*
X113690188Y-93184535D01*
X113563494Y-93003597D01*
X113396402Y-92836506D01*
X113396396Y-92836501D01*
X113349861Y-92803917D01*
X118524500Y-92803917D01*
X118524500Y-92996082D01*
X118561986Y-93184535D01*
X118561989Y-93184547D01*
X118635520Y-93362068D01*
X118635521Y-93362070D01*
X118742279Y-93521844D01*
X118742282Y-93521848D01*
X118878151Y-93657717D01*
X118878155Y-93657720D01*
X119037927Y-93764477D01*
X119037928Y-93764477D01*
X119037929Y-93764478D01*
X119037931Y-93764479D01*
X119215452Y-93838010D01*
X119215457Y-93838012D01*
X119401403Y-93874999D01*
X119403917Y-93875499D01*
X119403920Y-93875500D01*
X119403922Y-93875500D01*
X119596080Y-93875500D01*
X119596081Y-93875499D01*
X119784543Y-93838012D01*
X119962073Y-93764477D01*
X120121845Y-93657720D01*
X120257720Y-93521845D01*
X120364477Y-93362073D01*
X120438012Y-93184543D01*
X120475500Y-92996078D01*
X120475500Y-92803922D01*
X120475500Y-92803919D01*
X120475499Y-92803917D01*
X120456136Y-92706575D01*
X120438012Y-92615457D01*
X120424361Y-92582500D01*
X120364479Y-92437931D01*
X120364478Y-92437929D01*
X120321426Y-92373498D01*
X120257720Y-92278155D01*
X120257717Y-92278151D01*
X120121848Y-92142282D01*
X120121844Y-92142279D01*
X119962070Y-92035521D01*
X119962068Y-92035520D01*
X119784547Y-91961989D01*
X119784535Y-91961986D01*
X119596081Y-91924500D01*
X119596078Y-91924500D01*
X119403922Y-91924500D01*
X119403919Y-91924500D01*
X119215464Y-91961986D01*
X119215452Y-91961989D01*
X119037931Y-92035520D01*
X119037929Y-92035521D01*
X118878155Y-92142279D01*
X118878151Y-92142282D01*
X118742282Y-92278151D01*
X118742279Y-92278155D01*
X118635521Y-92437929D01*
X118635520Y-92437931D01*
X118561989Y-92615452D01*
X118561986Y-92615464D01*
X118524500Y-92803917D01*
X113349861Y-92803917D01*
X113210842Y-92706575D01*
X113167217Y-92651998D01*
X113160023Y-92582500D01*
X113191546Y-92520145D01*
X113210842Y-92503425D01*
X113304377Y-92437931D01*
X113396401Y-92373495D01*
X113563495Y-92206401D01*
X113699035Y-92012830D01*
X113798903Y-91798663D01*
X113860063Y-91570408D01*
X113880659Y-91335000D01*
X113860063Y-91099592D01*
X113798903Y-90871337D01*
X113699035Y-90657171D01*
X113681147Y-90631623D01*
X113563494Y-90463597D01*
X113396402Y-90296506D01*
X113396401Y-90296505D01*
X113210405Y-90166269D01*
X113166781Y-90111692D01*
X113159588Y-90042193D01*
X113191110Y-89979839D01*
X113210405Y-89963119D01*
X113396082Y-89833105D01*
X113563105Y-89666082D01*
X113698600Y-89472578D01*
X113798429Y-89258492D01*
X113798432Y-89258486D01*
X113855636Y-89045000D01*
X112958012Y-89045000D01*
X112990925Y-88987993D01*
X113025000Y-88860826D01*
X113025000Y-88729174D01*
X112990925Y-88602007D01*
X112958012Y-88545000D01*
X113855636Y-88545000D01*
X113855635Y-88544999D01*
X113798432Y-88331513D01*
X113798429Y-88331507D01*
X113698600Y-88117422D01*
X113698599Y-88117420D01*
X113563113Y-87923926D01*
X113563108Y-87923920D01*
X113396078Y-87756890D01*
X113210405Y-87626879D01*
X113166780Y-87572302D01*
X113159588Y-87502804D01*
X113191110Y-87440449D01*
X113210406Y-87423730D01*
X113396401Y-87293495D01*
X113563495Y-87126401D01*
X113699035Y-86932830D01*
X113798903Y-86718663D01*
X113860063Y-86490408D01*
X113880659Y-86255000D01*
X113860063Y-86019592D01*
X113798903Y-85791337D01*
X113699035Y-85577171D01*
X113563495Y-85383599D01*
X113563494Y-85383597D01*
X113396402Y-85216506D01*
X113396396Y-85216501D01*
X113210842Y-85086575D01*
X113167217Y-85031998D01*
X113160023Y-84962500D01*
X113191546Y-84900145D01*
X113210842Y-84883425D01*
X113233026Y-84867891D01*
X113396401Y-84753495D01*
X113563495Y-84586401D01*
X113699035Y-84392830D01*
X113701707Y-84387097D01*
X113747878Y-84334658D01*
X113814091Y-84315500D01*
X113914903Y-84315500D01*
X113981942Y-84335185D01*
X114002584Y-84351819D01*
X114113181Y-84462416D01*
X114146666Y-84523739D01*
X114149500Y-84550097D01*
X114149500Y-88663330D01*
X114149499Y-88663348D01*
X114149499Y-88829054D01*
X114149498Y-88829054D01*
X114190423Y-88981785D01*
X114219358Y-89031900D01*
X114219359Y-89031904D01*
X114219360Y-89031904D01*
X114269479Y-89118714D01*
X114269481Y-89118717D01*
X114388349Y-89237585D01*
X114388355Y-89237590D01*
X115015139Y-89864374D01*
X115015149Y-89864385D01*
X115019479Y-89868715D01*
X115019480Y-89868716D01*
X115131284Y-89980520D01*
X115218095Y-90030639D01*
X115218097Y-90030641D01*
X115238106Y-90042193D01*
X115268215Y-90059577D01*
X115420943Y-90100500D01*
X115579057Y-90100500D01*
X120663331Y-90100500D01*
X120663347Y-90100501D01*
X120670943Y-90100501D01*
X120829054Y-90100501D01*
X120829057Y-90100501D01*
X120981785Y-90059577D01*
X121031904Y-90030639D01*
X121118716Y-89980520D01*
X121230520Y-89868716D01*
X121230520Y-89868714D01*
X121240728Y-89858507D01*
X121240730Y-89858504D01*
X121518535Y-89580698D01*
X121579856Y-89547215D01*
X121592311Y-89545163D01*
X121679255Y-89535368D01*
X121849522Y-89475789D01*
X122002262Y-89379816D01*
X122129816Y-89252262D01*
X122225789Y-89099522D01*
X122285368Y-88929255D01*
X122289040Y-88896666D01*
X122305565Y-88750003D01*
X122305565Y-88749996D01*
X122285369Y-88570750D01*
X122285368Y-88570745D01*
X122256412Y-88487993D01*
X122225789Y-88400478D01*
X122129816Y-88247738D01*
X122002262Y-88120184D01*
X121936798Y-88079050D01*
X121849523Y-88024211D01*
X121679254Y-87964631D01*
X121679249Y-87964630D01*
X121500004Y-87944435D01*
X121499996Y-87944435D01*
X121320750Y-87964630D01*
X121320745Y-87964631D01*
X121150476Y-88024211D01*
X120997737Y-88120184D01*
X120870184Y-88247737D01*
X120774210Y-88400478D01*
X120714630Y-88570750D01*
X120704837Y-88657668D01*
X120677770Y-88722082D01*
X120669299Y-88731465D01*
X120537582Y-88863182D01*
X120476262Y-88896666D01*
X120449903Y-88899500D01*
X118171843Y-88899500D01*
X118104804Y-88879815D01*
X118059049Y-88827011D01*
X118048623Y-88761617D01*
X118055565Y-88700003D01*
X118055565Y-88699996D01*
X118035369Y-88520750D01*
X118035368Y-88520745D01*
X117975788Y-88350476D01*
X117936582Y-88288080D01*
X117879816Y-88197738D01*
X117752262Y-88070184D01*
X117717378Y-88048265D01*
X117599523Y-87974211D01*
X117429254Y-87914631D01*
X117429249Y-87914630D01*
X117250004Y-87894435D01*
X117249996Y-87894435D01*
X117070746Y-87914631D01*
X117070745Y-87914631D01*
X117029161Y-87929182D01*
X116959383Y-87932743D01*
X116900527Y-87899821D01*
X116386819Y-87386113D01*
X116353334Y-87324790D01*
X116350500Y-87298432D01*
X116350500Y-84489060D01*
X116350501Y-84489047D01*
X116350501Y-84320944D01*
X116350501Y-84320943D01*
X116309577Y-84168216D01*
X116309573Y-84168209D01*
X116230524Y-84031290D01*
X116230518Y-84031282D01*
X114203153Y-82003917D01*
X118524500Y-82003917D01*
X118524500Y-82196082D01*
X118561986Y-82384535D01*
X118561989Y-82384547D01*
X118635520Y-82562068D01*
X118635521Y-82562070D01*
X118742279Y-82721844D01*
X118742282Y-82721848D01*
X118878151Y-82857717D01*
X118878155Y-82857720D01*
X119037927Y-82964477D01*
X119037928Y-82964477D01*
X119037929Y-82964478D01*
X119037931Y-82964479D01*
X119215452Y-83038010D01*
X119215457Y-83038012D01*
X119403917Y-83075499D01*
X119403920Y-83075500D01*
X119403922Y-83075500D01*
X119596080Y-83075500D01*
X119596081Y-83075499D01*
X119784543Y-83038012D01*
X119962073Y-82964477D01*
X120121845Y-82857720D01*
X120257720Y-82721845D01*
X120364477Y-82562073D01*
X120438012Y-82384543D01*
X120475500Y-82196078D01*
X120475500Y-82003922D01*
X120475500Y-82003919D01*
X120475499Y-82003917D01*
X120438013Y-81815464D01*
X120438012Y-81815457D01*
X120380357Y-81676264D01*
X120364479Y-81637931D01*
X120364478Y-81637929D01*
X120257720Y-81478155D01*
X120257717Y-81478151D01*
X120121848Y-81342282D01*
X120121844Y-81342279D01*
X119962070Y-81235521D01*
X119962068Y-81235520D01*
X119784547Y-81161989D01*
X119784535Y-81161986D01*
X119596081Y-81124500D01*
X119596078Y-81124500D01*
X119403922Y-81124500D01*
X119403919Y-81124500D01*
X119215464Y-81161986D01*
X119215452Y-81161989D01*
X119037931Y-81235520D01*
X119037929Y-81235521D01*
X118878155Y-81342279D01*
X118878151Y-81342282D01*
X118742282Y-81478151D01*
X118742279Y-81478155D01*
X118635521Y-81637929D01*
X118635520Y-81637931D01*
X118561989Y-81815452D01*
X118561986Y-81815464D01*
X118524500Y-82003917D01*
X114203153Y-82003917D01*
X113911818Y-81712582D01*
X113878333Y-81651259D01*
X113875499Y-81624901D01*
X113875499Y-80277129D01*
X113875498Y-80277123D01*
X113875497Y-80277116D01*
X113869091Y-80217517D01*
X113818796Y-80082669D01*
X113818795Y-80082668D01*
X113818793Y-80082664D01*
X113732547Y-79967455D01*
X113732544Y-79967452D01*
X113617335Y-79881206D01*
X113617328Y-79881202D01*
X113482482Y-79830908D01*
X113482483Y-79830908D01*
X113422883Y-79824501D01*
X113422881Y-79824500D01*
X113422873Y-79824500D01*
X113422864Y-79824500D01*
X111627129Y-79824500D01*
X111627123Y-79824501D01*
X111567516Y-79830908D01*
X111432671Y-79881202D01*
X111432664Y-79881206D01*
X111317455Y-79967452D01*
X111317452Y-79967455D01*
X111231206Y-80082664D01*
X111231202Y-80082671D01*
X111180908Y-80217517D01*
X111174501Y-80277116D01*
X111174501Y-80277123D01*
X111174500Y-80277135D01*
X111174500Y-82072870D01*
X111174501Y-82072876D01*
X111180908Y-82132483D01*
X111231202Y-82267328D01*
X111231206Y-82267335D01*
X111317452Y-82382544D01*
X111317455Y-82382547D01*
X111432664Y-82468793D01*
X111432671Y-82468797D01*
X111564081Y-82517810D01*
X111620015Y-82559681D01*
X111644432Y-82625145D01*
X111629580Y-82693418D01*
X111608430Y-82721673D01*
X111486503Y-82843600D01*
X111350965Y-83037169D01*
X111350964Y-83037171D01*
X111251098Y-83251335D01*
X111251094Y-83251344D01*
X111189938Y-83479586D01*
X111189936Y-83479596D01*
X111169341Y-83714999D01*
X111169341Y-83715000D01*
X111189936Y-83950403D01*
X111189938Y-83950413D01*
X111251094Y-84178655D01*
X111251096Y-84178659D01*
X111251097Y-84178663D01*
X111317444Y-84320944D01*
X111350965Y-84392830D01*
X111350967Y-84392834D01*
X111486501Y-84586395D01*
X111486506Y-84586402D01*
X111653597Y-84753493D01*
X111653603Y-84753498D01*
X111839158Y-84883425D01*
X111882783Y-84938002D01*
X111889977Y-85007500D01*
X111858454Y-85069855D01*
X111839158Y-85086575D01*
X111653597Y-85216505D01*
X111486505Y-85383597D01*
X111350965Y-85577169D01*
X111350964Y-85577171D01*
X111251098Y-85791335D01*
X111251094Y-85791344D01*
X111189938Y-86019586D01*
X111189936Y-86019596D01*
X111169341Y-86254999D01*
X111169341Y-86255000D01*
X111189936Y-86490403D01*
X111189938Y-86490413D01*
X111251094Y-86718655D01*
X111251096Y-86718659D01*
X111251097Y-86718663D01*
X111350965Y-86932830D01*
X111350967Y-86932834D01*
X111486501Y-87126395D01*
X111486506Y-87126402D01*
X111653597Y-87293493D01*
X111653603Y-87293498D01*
X111839594Y-87423730D01*
X111883219Y-87478307D01*
X111890413Y-87547805D01*
X111858890Y-87610160D01*
X111839595Y-87626880D01*
X111653922Y-87756890D01*
X111653920Y-87756891D01*
X111486891Y-87923920D01*
X111486886Y-87923926D01*
X111351400Y-88117420D01*
X111351399Y-88117422D01*
X111251570Y-88331507D01*
X111251567Y-88331513D01*
X111194364Y-88544999D01*
X111194364Y-88545000D01*
X112091988Y-88545000D01*
X112059075Y-88602007D01*
X112025000Y-88729174D01*
X112025000Y-88860826D01*
X112059075Y-88987993D01*
X112091988Y-89045000D01*
X111194364Y-89045000D01*
X111251567Y-89258486D01*
X111251570Y-89258492D01*
X111351399Y-89472578D01*
X111486894Y-89666082D01*
X111653917Y-89833105D01*
X111839595Y-89963119D01*
X111883219Y-90017696D01*
X111890412Y-90087195D01*
X111858890Y-90149549D01*
X111839595Y-90166269D01*
X111653594Y-90296508D01*
X111486506Y-90463596D01*
X111368854Y-90631623D01*
X111314277Y-90675248D01*
X111267279Y-90684500D01*
X110600929Y-90684500D01*
X110475261Y-90709497D01*
X110475255Y-90709499D01*
X110376324Y-90750478D01*
X110356874Y-90758534D01*
X110250326Y-90829726D01*
X108994726Y-92085326D01*
X108923534Y-92191874D01*
X108874499Y-92310255D01*
X108874497Y-92310261D01*
X108849500Y-92435928D01*
X100500500Y-92435928D01*
X100500500Y-77504066D01*
X100500765Y-77495956D01*
X100504819Y-77434108D01*
X100517075Y-77247102D01*
X100519190Y-77231048D01*
X100567045Y-76990462D01*
X100571243Y-76974797D01*
X100594337Y-76906762D01*
X100650093Y-76742512D01*
X100656291Y-76727547D01*
X100764790Y-76507533D01*
X100772893Y-76493498D01*
X100909182Y-76289527D01*
X100919039Y-76276681D01*
X101080786Y-76092244D01*
X101092244Y-76080786D01*
X101276681Y-75919039D01*
X101289527Y-75909182D01*
X101493498Y-75772893D01*
X101507533Y-75764790D01*
X101727547Y-75656291D01*
X101742512Y-75650093D01*
X101906762Y-75594337D01*
X101974797Y-75571243D01*
X101990464Y-75567045D01*
X102231048Y-75519190D01*
X102247102Y-75517075D01*
X102495957Y-75500765D01*
X102504067Y-75500500D01*
X102565892Y-75500500D01*
X103675456Y-75500500D01*
X103675484Y-75500502D01*
X103684111Y-75500502D01*
X103750002Y-75500502D01*
X103750003Y-75500502D01*
X103875201Y-75500501D01*
X104074147Y-75471896D01*
X104123043Y-75464867D01*
X104123044Y-75464866D01*
X104123048Y-75464866D01*
X104363302Y-75394321D01*
X104363305Y-75394319D01*
X104363307Y-75394319D01*
X104389965Y-75382143D01*
X104448098Y-75355594D01*
X104517256Y-75345650D01*
X104565583Y-75363394D01*
X104672304Y-75430452D01*
X104672307Y-75430454D01*
X104672305Y-75430454D01*
X104672309Y-75430455D01*
X104672310Y-75430456D01*
X104744913Y-75455860D01*
X104831943Y-75486314D01*
X104999997Y-75505249D01*
X105000000Y-75505249D01*
X105000003Y-75505249D01*
X105168056Y-75486314D01*
X105168065Y-75486311D01*
X105327690Y-75430456D01*
X105327692Y-75430454D01*
X105327694Y-75430454D01*
X105327697Y-75430452D01*
X105470884Y-75340481D01*
X105470885Y-75340480D01*
X105470890Y-75340477D01*
X105537319Y-75274048D01*
X105598642Y-75240563D01*
X105668334Y-75245547D01*
X105712681Y-75274048D01*
X105779109Y-75340476D01*
X105779115Y-75340481D01*
X105922302Y-75430452D01*
X105922305Y-75430454D01*
X105922309Y-75430455D01*
X105922310Y-75430456D01*
X105994913Y-75455860D01*
X106081943Y-75486314D01*
X106249997Y-75505249D01*
X106250000Y-75505249D01*
X106250003Y-75505249D01*
X106418056Y-75486314D01*
X106418065Y-75486311D01*
X106577690Y-75430456D01*
X106577692Y-75430454D01*
X106577694Y-75430454D01*
X106577697Y-75430452D01*
X106720884Y-75340481D01*
X106720885Y-75340480D01*
X106720890Y-75340477D01*
X106787319Y-75274048D01*
X106848642Y-75240563D01*
X106918334Y-75245547D01*
X106962681Y-75274048D01*
X107029109Y-75340476D01*
X107029115Y-75340481D01*
X107172302Y-75430452D01*
X107172305Y-75430454D01*
X107172309Y-75430455D01*
X107172310Y-75430456D01*
X107244913Y-75455860D01*
X107331943Y-75486314D01*
X107499997Y-75505249D01*
X107500000Y-75505249D01*
X107500003Y-75505249D01*
X107668056Y-75486314D01*
X107668065Y-75486311D01*
X107827690Y-75430456D01*
X107934417Y-75363394D01*
X108001651Y-75344394D01*
X108051896Y-75355593D01*
X108136698Y-75394321D01*
X108376952Y-75464866D01*
X108376953Y-75464866D01*
X108376956Y-75464867D01*
X108444086Y-75474518D01*
X108624799Y-75500501D01*
X108624802Y-75500501D01*
X108684104Y-75500501D01*
X108684106Y-75500502D01*
X108747903Y-75500501D01*
X108749997Y-75500502D01*
X108750025Y-75500502D01*
X108867245Y-75500502D01*
X108867248Y-75500500D01*
X116198640Y-75500500D01*
X116198653Y-75500503D01*
X116250006Y-75500503D01*
X116250006Y-75500504D01*
X116375204Y-75500503D01*
X116596481Y-75468687D01*
X116623046Y-75464868D01*
X116623047Y-75464867D01*
X116623052Y-75464867D01*
X116863305Y-75394322D01*
X116948103Y-75355594D01*
X117017261Y-75345650D01*
X117065588Y-75363394D01*
X117114807Y-75394321D01*
X117172309Y-75430452D01*
X117172307Y-75430452D01*
X117172311Y-75430453D01*
X117172312Y-75430454D01*
X117172318Y-75430456D01*
X117331945Y-75486312D01*
X117499999Y-75505247D01*
X117500002Y-75505247D01*
X117500005Y-75505247D01*
X117668058Y-75486312D01*
X117668061Y-75486311D01*
X117827692Y-75430454D01*
X117827694Y-75430452D01*
X117827696Y-75430452D01*
X117827699Y-75430450D01*
X117970886Y-75340479D01*
X117970887Y-75340478D01*
X117970892Y-75340475D01*
X118037321Y-75274046D01*
X118098644Y-75240561D01*
X118168336Y-75245545D01*
X118212683Y-75274046D01*
X118279111Y-75340474D01*
X118279117Y-75340479D01*
X118422304Y-75430450D01*
X118422307Y-75430452D01*
X118422311Y-75430453D01*
X118422312Y-75430454D01*
X118422318Y-75430456D01*
X118581945Y-75486312D01*
X118749999Y-75505247D01*
X118750002Y-75505247D01*
X118750005Y-75505247D01*
X118918058Y-75486312D01*
X118918061Y-75486311D01*
X119077692Y-75430454D01*
X119077694Y-75430452D01*
X119077696Y-75430452D01*
X119077699Y-75430450D01*
X119220886Y-75340479D01*
X119220887Y-75340478D01*
X119220892Y-75340475D01*
X119287321Y-75274046D01*
X119348644Y-75240561D01*
X119418336Y-75245545D01*
G37*
%TD.AperFunction*%
%TA.AperFunction,Conductor*%
G36*
X122504043Y-48000765D02*
G01*
X122752895Y-48017075D01*
X122768953Y-48019190D01*
X122976105Y-48060395D01*
X123009535Y-48067045D01*
X123025202Y-48071243D01*
X123194947Y-48128863D01*
X123257481Y-48150091D01*
X123272458Y-48156294D01*
X123481799Y-48259529D01*
X123492460Y-48264787D01*
X123506508Y-48272897D01*
X123710464Y-48409177D01*
X123723328Y-48419048D01*
X123907749Y-48580781D01*
X123919218Y-48592250D01*
X124080951Y-48776671D01*
X124090825Y-48789539D01*
X124227102Y-48993492D01*
X124235212Y-49007539D01*
X124343702Y-49227534D01*
X124349909Y-49242520D01*
X124428756Y-49474797D01*
X124432954Y-49490464D01*
X124480807Y-49731035D01*
X124482925Y-49747116D01*
X124499235Y-49995956D01*
X124499500Y-50004066D01*
X124499500Y-69995933D01*
X124499235Y-70004043D01*
X124482925Y-70252883D01*
X124480807Y-70268964D01*
X124432954Y-70509535D01*
X124428756Y-70525202D01*
X124349909Y-70757479D01*
X124343702Y-70772465D01*
X124235212Y-70992460D01*
X124227102Y-71006507D01*
X124090825Y-71210460D01*
X124080951Y-71223328D01*
X123919218Y-71407749D01*
X123907749Y-71419218D01*
X123723328Y-71580951D01*
X123710460Y-71590825D01*
X123506507Y-71727102D01*
X123492460Y-71735212D01*
X123272465Y-71843702D01*
X123257479Y-71849909D01*
X123025202Y-71928756D01*
X123009535Y-71932954D01*
X122768964Y-71980807D01*
X122752883Y-71982925D01*
X122504043Y-71999235D01*
X122495933Y-71999500D01*
X121324550Y-71999500D01*
X121324522Y-71999498D01*
X121315895Y-71999498D01*
X121250003Y-71999498D01*
X121198658Y-71999498D01*
X121198639Y-71999500D01*
X121175481Y-71999500D01*
X121175453Y-71999502D01*
X121124805Y-71999502D01*
X121099797Y-72003097D01*
X120876962Y-72035135D01*
X120876948Y-72035139D01*
X120636715Y-72105676D01*
X120551903Y-72144407D01*
X120482744Y-72154348D01*
X120434422Y-72136605D01*
X120327694Y-72069543D01*
X120327693Y-72069542D01*
X120327692Y-72069542D01*
X120289372Y-72056133D01*
X120168058Y-72013683D01*
X120000005Y-71994749D01*
X119999999Y-71994749D01*
X119831945Y-72013683D01*
X119672307Y-72069543D01*
X119672304Y-72069545D01*
X119529117Y-72159516D01*
X119529111Y-72159521D01*
X119462683Y-72225950D01*
X119401360Y-72259435D01*
X119331668Y-72254451D01*
X119287321Y-72225950D01*
X119220892Y-72159521D01*
X119220886Y-72159516D01*
X119077699Y-72069545D01*
X119077696Y-72069543D01*
X118918058Y-72013683D01*
X118750005Y-71994749D01*
X118749999Y-71994749D01*
X118581945Y-72013683D01*
X118422307Y-72069543D01*
X118422304Y-72069545D01*
X118279117Y-72159516D01*
X118279111Y-72159521D01*
X118212683Y-72225950D01*
X118151360Y-72259435D01*
X118081668Y-72254451D01*
X118037321Y-72225950D01*
X117970892Y-72159521D01*
X117970886Y-72159516D01*
X117827699Y-72069545D01*
X117827696Y-72069543D01*
X117668058Y-72013683D01*
X117500005Y-71994749D01*
X117499999Y-71994749D01*
X117331945Y-72013683D01*
X117172309Y-72069543D01*
X117065585Y-72136603D01*
X116998348Y-72155603D01*
X116948103Y-72144404D01*
X116863304Y-72105678D01*
X116740237Y-72069542D01*
X116623056Y-72035134D01*
X116623045Y-72035131D01*
X116403019Y-72003496D01*
X116375204Y-71999497D01*
X116375202Y-71999496D01*
X116375201Y-71999496D01*
X116250006Y-71999496D01*
X116184113Y-71999496D01*
X116176054Y-71999496D01*
X116175992Y-71999500D01*
X108815892Y-71999500D01*
X108750000Y-71999500D01*
X108624802Y-71999500D01*
X108589167Y-72004623D01*
X108376955Y-72035135D01*
X108376951Y-72035136D01*
X108136708Y-72105676D01*
X108136702Y-72105678D01*
X108051899Y-72144406D01*
X107982740Y-72154349D01*
X107934417Y-72136605D01*
X107827692Y-72069545D01*
X107827691Y-72069544D01*
X107827690Y-72069544D01*
X107789370Y-72056135D01*
X107668056Y-72013685D01*
X107500003Y-71994751D01*
X107499997Y-71994751D01*
X107331943Y-72013685D01*
X107172305Y-72069545D01*
X107172302Y-72069547D01*
X107029115Y-72159518D01*
X107029109Y-72159523D01*
X106962681Y-72225952D01*
X106901358Y-72259437D01*
X106831666Y-72254453D01*
X106787319Y-72225952D01*
X106720890Y-72159523D01*
X106720884Y-72159518D01*
X106577697Y-72069547D01*
X106577694Y-72069545D01*
X106418056Y-72013685D01*
X106250003Y-71994751D01*
X106249997Y-71994751D01*
X106081943Y-72013685D01*
X105922305Y-72069545D01*
X105922302Y-72069547D01*
X105779115Y-72159518D01*
X105779109Y-72159523D01*
X105712681Y-72225952D01*
X105651358Y-72259437D01*
X105581666Y-72254453D01*
X105537319Y-72225952D01*
X105470890Y-72159523D01*
X105470884Y-72159518D01*
X105327697Y-72069547D01*
X105327694Y-72069545D01*
X105168056Y-72013685D01*
X105000003Y-71994751D01*
X104999997Y-71994751D01*
X104831943Y-72013685D01*
X104672307Y-72069545D01*
X104565583Y-72136605D01*
X104498346Y-72155605D01*
X104448100Y-72144405D01*
X104363302Y-72105679D01*
X104240231Y-72069542D01*
X104123053Y-72035135D01*
X104123043Y-72035132D01*
X103900208Y-72003094D01*
X103875201Y-71999499D01*
X103875199Y-71999498D01*
X103750003Y-71999498D01*
X103684111Y-71999498D01*
X103675484Y-71999498D01*
X103675456Y-71999500D01*
X102504067Y-71999500D01*
X102495957Y-71999235D01*
X102247116Y-71982925D01*
X102231035Y-71980807D01*
X101990464Y-71932954D01*
X101974797Y-71928756D01*
X101742520Y-71849909D01*
X101727534Y-71843702D01*
X101507539Y-71735212D01*
X101493492Y-71727102D01*
X101289539Y-71590825D01*
X101276671Y-71580951D01*
X101092250Y-71419218D01*
X101080781Y-71407749D01*
X100919048Y-71223328D01*
X100909174Y-71210460D01*
X100772897Y-71006507D01*
X100764787Y-70992460D01*
X100658855Y-70777652D01*
X100656294Y-70772458D01*
X100650090Y-70757479D01*
X100571243Y-70525202D01*
X100567045Y-70509535D01*
X100559186Y-70470026D01*
X100519190Y-70268953D01*
X100517075Y-70252895D01*
X100500765Y-70004043D01*
X100500500Y-69995933D01*
X100500500Y-53649999D01*
X101894341Y-53649999D01*
X101894341Y-53650000D01*
X101914936Y-53885403D01*
X101914938Y-53885413D01*
X101976094Y-54113655D01*
X101976096Y-54113659D01*
X101976097Y-54113663D01*
X102048839Y-54269658D01*
X102075965Y-54327830D01*
X102075967Y-54327834D01*
X102211501Y-54521395D01*
X102211506Y-54521402D01*
X102378597Y-54688493D01*
X102378603Y-54688498D01*
X102564594Y-54818730D01*
X102608219Y-54873307D01*
X102615413Y-54942805D01*
X102583890Y-55005160D01*
X102564595Y-55021880D01*
X102378922Y-55151890D01*
X102378920Y-55151891D01*
X102211891Y-55318920D01*
X102211886Y-55318926D01*
X102076400Y-55512420D01*
X102076399Y-55512422D01*
X101976570Y-55726507D01*
X101976567Y-55726513D01*
X101919364Y-55939999D01*
X101919364Y-55940000D01*
X102816988Y-55940000D01*
X102784075Y-55997007D01*
X102750000Y-56124174D01*
X102750000Y-56255826D01*
X102784075Y-56382993D01*
X102816988Y-56440000D01*
X101919364Y-56440000D01*
X101976567Y-56653486D01*
X101976570Y-56653492D01*
X102076399Y-56867578D01*
X102211894Y-57061082D01*
X102378917Y-57228105D01*
X102564595Y-57358119D01*
X102608219Y-57412696D01*
X102615412Y-57482195D01*
X102583890Y-57544549D01*
X102564595Y-57561269D01*
X102378594Y-57691508D01*
X102211505Y-57858597D01*
X102075965Y-58052169D01*
X102075964Y-58052171D01*
X101976098Y-58266335D01*
X101976094Y-58266344D01*
X101914938Y-58494586D01*
X101914936Y-58494596D01*
X101894341Y-58729999D01*
X101894341Y-58730000D01*
X101914936Y-58965403D01*
X101914938Y-58965411D01*
X101976094Y-59193655D01*
X101976096Y-59193659D01*
X101976097Y-59193663D01*
X102001313Y-59247738D01*
X102075965Y-59407830D01*
X102075967Y-59407834D01*
X102211501Y-59601395D01*
X102211506Y-59601402D01*
X102378597Y-59768493D01*
X102378603Y-59768498D01*
X102564158Y-59898425D01*
X102607783Y-59953002D01*
X102614977Y-60022500D01*
X102583454Y-60084855D01*
X102564158Y-60101575D01*
X102378597Y-60231505D01*
X102211505Y-60398597D01*
X102075965Y-60592169D01*
X102075964Y-60592171D01*
X101976098Y-60806335D01*
X101976094Y-60806344D01*
X101914938Y-61034586D01*
X101914936Y-61034596D01*
X101894341Y-61269999D01*
X101894341Y-61270000D01*
X101914936Y-61505403D01*
X101914938Y-61505413D01*
X101976094Y-61733655D01*
X101976096Y-61733659D01*
X101976097Y-61733663D01*
X102047515Y-61886818D01*
X102075965Y-61947830D01*
X102075967Y-61947834D01*
X102211501Y-62141395D01*
X102211506Y-62141402D01*
X102378597Y-62308493D01*
X102378603Y-62308498D01*
X102564158Y-62438425D01*
X102607783Y-62493002D01*
X102614977Y-62562500D01*
X102583454Y-62624855D01*
X102564158Y-62641575D01*
X102378597Y-62771505D01*
X102211505Y-62938597D01*
X102075965Y-63132169D01*
X102075964Y-63132171D01*
X101976098Y-63346335D01*
X101976094Y-63346344D01*
X101914938Y-63574586D01*
X101914936Y-63574596D01*
X101894341Y-63809999D01*
X101894341Y-63810000D01*
X101914936Y-64045403D01*
X101914938Y-64045413D01*
X101976094Y-64273655D01*
X101976096Y-64273659D01*
X101976097Y-64273663D01*
X102046434Y-64424500D01*
X102075965Y-64487830D01*
X102075967Y-64487834D01*
X102184111Y-64642279D01*
X102211501Y-64681396D01*
X102211506Y-64681402D01*
X102333430Y-64803326D01*
X102366915Y-64864649D01*
X102361931Y-64934341D01*
X102320059Y-64990274D01*
X102289083Y-65007189D01*
X102157669Y-65056203D01*
X102157664Y-65056206D01*
X102042455Y-65142452D01*
X102042452Y-65142455D01*
X101956206Y-65257664D01*
X101956202Y-65257671D01*
X101905908Y-65392517D01*
X101899501Y-65452116D01*
X101899501Y-65452123D01*
X101899500Y-65452135D01*
X101899500Y-67247870D01*
X101899501Y-67247876D01*
X101905908Y-67307483D01*
X101956202Y-67442328D01*
X101956206Y-67442335D01*
X102042452Y-67557544D01*
X102042455Y-67557547D01*
X102157664Y-67643793D01*
X102157671Y-67643797D01*
X102292517Y-67694091D01*
X102292516Y-67694091D01*
X102299444Y-67694835D01*
X102352127Y-67700500D01*
X104147872Y-67700499D01*
X104207483Y-67694091D01*
X104342331Y-67643796D01*
X104457546Y-67557546D01*
X104543796Y-67442331D01*
X104594091Y-67307483D01*
X104600500Y-67247873D01*
X104600499Y-65452128D01*
X104594091Y-65392517D01*
X104561047Y-65303922D01*
X104561045Y-65303917D01*
X118524500Y-65303917D01*
X118524500Y-65496082D01*
X118561986Y-65684535D01*
X118561989Y-65684547D01*
X118635520Y-65862068D01*
X118635521Y-65862070D01*
X118742279Y-66021844D01*
X118742282Y-66021848D01*
X118878151Y-66157717D01*
X118878155Y-66157720D01*
X119037927Y-66264477D01*
X119037928Y-66264477D01*
X119037929Y-66264478D01*
X119037931Y-66264479D01*
X119215452Y-66338010D01*
X119215457Y-66338012D01*
X119403917Y-66375499D01*
X119403920Y-66375500D01*
X119403922Y-66375500D01*
X119596080Y-66375500D01*
X119596081Y-66375499D01*
X119784543Y-66338012D01*
X119962073Y-66264477D01*
X120121845Y-66157720D01*
X120257720Y-66021845D01*
X120364477Y-65862073D01*
X120438012Y-65684543D01*
X120475500Y-65496078D01*
X120475500Y-65303922D01*
X120475500Y-65303919D01*
X120475499Y-65303917D01*
X120443382Y-65142454D01*
X120438012Y-65115457D01*
X120389982Y-64999501D01*
X120364479Y-64937931D01*
X120364478Y-64937929D01*
X120339036Y-64899853D01*
X120257720Y-64778155D01*
X120257717Y-64778151D01*
X120121848Y-64642282D01*
X120121844Y-64642279D01*
X119962070Y-64535521D01*
X119962068Y-64535520D01*
X119784547Y-64461989D01*
X119784535Y-64461986D01*
X119596081Y-64424500D01*
X119596078Y-64424500D01*
X119403922Y-64424500D01*
X119403919Y-64424500D01*
X119215464Y-64461986D01*
X119215452Y-64461989D01*
X119037931Y-64535520D01*
X119037929Y-64535521D01*
X118878155Y-64642279D01*
X118878151Y-64642282D01*
X118742282Y-64778151D01*
X118742279Y-64778155D01*
X118635521Y-64937929D01*
X118635520Y-64937931D01*
X118561989Y-65115452D01*
X118561986Y-65115464D01*
X118524500Y-65303917D01*
X104561045Y-65303917D01*
X104543797Y-65257671D01*
X104543793Y-65257664D01*
X104457547Y-65142455D01*
X104457544Y-65142452D01*
X104342335Y-65056206D01*
X104342328Y-65056202D01*
X104210917Y-65007189D01*
X104154983Y-64965318D01*
X104130566Y-64899853D01*
X104145418Y-64831580D01*
X104166563Y-64803332D01*
X104288495Y-64681401D01*
X104424035Y-64487830D01*
X104523903Y-64273663D01*
X104585063Y-64045408D01*
X104605659Y-63810000D01*
X104585063Y-63574592D01*
X104523903Y-63346337D01*
X104424035Y-63132171D01*
X104288495Y-62938599D01*
X104288494Y-62938597D01*
X104121402Y-62771506D01*
X104121396Y-62771501D01*
X103935842Y-62641575D01*
X103892217Y-62586998D01*
X103885023Y-62517500D01*
X103916546Y-62455145D01*
X103935842Y-62438425D01*
X104062808Y-62349522D01*
X104121401Y-62308495D01*
X104288495Y-62141401D01*
X104387508Y-61999996D01*
X114194435Y-61999996D01*
X114194435Y-62000003D01*
X114214630Y-62179249D01*
X114214631Y-62179254D01*
X114274211Y-62349523D01*
X114340578Y-62455145D01*
X114370184Y-62502262D01*
X114497738Y-62629816D01*
X114650478Y-62725789D01*
X114781127Y-62771505D01*
X114820745Y-62785368D01*
X114820750Y-62785369D01*
X114999996Y-62805565D01*
X115000000Y-62805565D01*
X115000004Y-62805565D01*
X115179249Y-62785369D01*
X115179252Y-62785368D01*
X115179255Y-62785368D01*
X115349522Y-62725789D01*
X115502262Y-62629816D01*
X115629816Y-62502262D01*
X115725789Y-62349522D01*
X115785368Y-62179255D01*
X115795161Y-62092329D01*
X115822226Y-62027918D01*
X115830679Y-62018554D01*
X115962417Y-61886817D01*
X116023740Y-61853334D01*
X116050097Y-61850500D01*
X120167588Y-61850500D01*
X120234627Y-61870185D01*
X120244903Y-61877555D01*
X120247736Y-61879814D01*
X120247738Y-61879816D01*
X120400478Y-61975789D01*
X120549454Y-62027918D01*
X120570745Y-62035368D01*
X120570750Y-62035369D01*
X120749996Y-62055565D01*
X120750000Y-62055565D01*
X120750004Y-62055565D01*
X120929249Y-62035369D01*
X120929252Y-62035368D01*
X120929255Y-62035368D01*
X121099522Y-61975789D01*
X121252262Y-61879816D01*
X121379816Y-61752262D01*
X121475789Y-61599522D01*
X121535368Y-61429255D01*
X121552837Y-61274211D01*
X121555565Y-61250003D01*
X121555565Y-61249996D01*
X121535369Y-61070750D01*
X121535368Y-61070745D01*
X121522719Y-61034596D01*
X121475789Y-60900478D01*
X121379816Y-60747738D01*
X121252262Y-60620184D01*
X121207680Y-60592171D01*
X121099523Y-60524211D01*
X120929254Y-60464631D01*
X120929249Y-60464630D01*
X120750004Y-60444435D01*
X120749996Y-60444435D01*
X120570750Y-60464630D01*
X120570745Y-60464631D01*
X120400476Y-60524211D01*
X120247736Y-60620185D01*
X120244903Y-60622445D01*
X120242724Y-60623334D01*
X120241842Y-60623889D01*
X120241744Y-60623734D01*
X120180217Y-60648855D01*
X120167588Y-60649500D01*
X115829057Y-60649500D01*
X115670943Y-60649500D01*
X115518215Y-60690423D01*
X115518214Y-60690423D01*
X115518212Y-60690424D01*
X115518209Y-60690425D01*
X115483066Y-60710716D01*
X115483064Y-60710717D01*
X115381290Y-60769475D01*
X115381282Y-60769481D01*
X115269478Y-60881286D01*
X114981465Y-61169298D01*
X114920142Y-61202783D01*
X114907668Y-61204837D01*
X114820750Y-61214630D01*
X114650478Y-61274210D01*
X114497737Y-61370184D01*
X114370184Y-61497737D01*
X114274211Y-61650476D01*
X114214631Y-61820745D01*
X114214630Y-61820750D01*
X114194435Y-61999996D01*
X104387508Y-61999996D01*
X104424035Y-61947830D01*
X104523903Y-61733663D01*
X104585063Y-61505408D01*
X104605659Y-61270000D01*
X104585063Y-61034592D01*
X104523903Y-60806337D01*
X104424035Y-60592171D01*
X104398404Y-60555565D01*
X104288494Y-60398597D01*
X104121402Y-60231506D01*
X104121396Y-60231501D01*
X103935842Y-60101575D01*
X103892217Y-60046998D01*
X103885023Y-59977500D01*
X103916546Y-59915145D01*
X103935842Y-59898425D01*
X104033767Y-59829857D01*
X104121401Y-59768495D01*
X104288495Y-59601401D01*
X104424035Y-59407830D01*
X104523903Y-59193663D01*
X104585063Y-58965408D01*
X104605659Y-58730000D01*
X104585063Y-58494592D01*
X104523903Y-58266337D01*
X104424035Y-58052171D01*
X104288495Y-57858599D01*
X104288494Y-57858597D01*
X104121402Y-57691506D01*
X104121401Y-57691505D01*
X103935405Y-57561269D01*
X103891781Y-57506692D01*
X103884588Y-57437193D01*
X103916110Y-57374839D01*
X103935405Y-57358119D01*
X104121082Y-57228105D01*
X104288105Y-57061082D01*
X104423600Y-56867578D01*
X104523429Y-56653492D01*
X104523432Y-56653486D01*
X104580636Y-56440000D01*
X103683012Y-56440000D01*
X103715925Y-56382993D01*
X103750000Y-56255826D01*
X103750000Y-56124174D01*
X103715925Y-55997007D01*
X103683012Y-55940000D01*
X104580636Y-55940000D01*
X104580635Y-55939999D01*
X104523432Y-55726513D01*
X104523429Y-55726507D01*
X104423600Y-55512422D01*
X104423599Y-55512420D01*
X104288113Y-55318926D01*
X104288108Y-55318920D01*
X104121078Y-55151890D01*
X103935405Y-55021879D01*
X103891780Y-54967302D01*
X103884588Y-54897804D01*
X103916110Y-54835449D01*
X103935406Y-54818730D01*
X104121401Y-54688495D01*
X104288495Y-54521401D01*
X104424035Y-54327830D01*
X104426707Y-54322097D01*
X104472878Y-54269658D01*
X104539091Y-54250500D01*
X106099903Y-54250500D01*
X106166942Y-54270185D01*
X106187584Y-54286819D01*
X111669298Y-59768534D01*
X111702783Y-59829857D01*
X111704837Y-59842331D01*
X111714630Y-59929249D01*
X111774210Y-60099521D01*
X111775501Y-60101575D01*
X111870184Y-60252262D01*
X111997738Y-60379816D01*
X112027628Y-60398597D01*
X112132721Y-60464632D01*
X112150478Y-60475789D01*
X112288860Y-60524211D01*
X112320745Y-60535368D01*
X112320750Y-60535369D01*
X112499996Y-60555565D01*
X112500000Y-60555565D01*
X112500004Y-60555565D01*
X112679249Y-60535369D01*
X112679252Y-60535368D01*
X112679255Y-60535368D01*
X112849522Y-60475789D01*
X113002262Y-60379816D01*
X113129816Y-60252262D01*
X113225789Y-60099522D01*
X113285368Y-59929255D01*
X113295162Y-59842331D01*
X113305565Y-59750003D01*
X113305565Y-59749996D01*
X113285369Y-59570750D01*
X113285368Y-59570745D01*
X113228363Y-59407834D01*
X113225789Y-59400478D01*
X113129816Y-59247738D01*
X113002262Y-59120184D01*
X112849521Y-59024210D01*
X112681481Y-58965411D01*
X112679255Y-58964632D01*
X112679254Y-58964631D01*
X112679249Y-58964630D01*
X112592331Y-58954837D01*
X112527917Y-58927770D01*
X112518534Y-58919298D01*
X108103152Y-54503917D01*
X118524500Y-54503917D01*
X118524500Y-54696082D01*
X118561986Y-54884535D01*
X118561989Y-54884547D01*
X118635520Y-55062068D01*
X118635521Y-55062070D01*
X118742279Y-55221844D01*
X118742282Y-55221848D01*
X118878151Y-55357717D01*
X118878155Y-55357720D01*
X119037927Y-55464477D01*
X119037928Y-55464477D01*
X119037929Y-55464478D01*
X119037931Y-55464479D01*
X119153672Y-55512420D01*
X119215457Y-55538012D01*
X119403917Y-55575499D01*
X119403920Y-55575500D01*
X119403922Y-55575500D01*
X119596080Y-55575500D01*
X119596081Y-55575499D01*
X119784543Y-55538012D01*
X119962073Y-55464477D01*
X120121845Y-55357720D01*
X120257720Y-55221845D01*
X120364477Y-55062073D01*
X120438012Y-54884543D01*
X120475500Y-54696078D01*
X120475500Y-54503922D01*
X120475500Y-54503919D01*
X120475499Y-54503917D01*
X120438013Y-54315464D01*
X120438012Y-54315457D01*
X120364477Y-54137927D01*
X120257720Y-53978155D01*
X120257717Y-53978151D01*
X120121848Y-53842282D01*
X120121844Y-53842279D01*
X119962070Y-53735521D01*
X119962068Y-53735520D01*
X119784547Y-53661989D01*
X119784535Y-53661986D01*
X119596081Y-53624500D01*
X119596078Y-53624500D01*
X119403922Y-53624500D01*
X119403919Y-53624500D01*
X119215464Y-53661986D01*
X119215452Y-53661989D01*
X119037931Y-53735520D01*
X119037929Y-53735521D01*
X118878155Y-53842279D01*
X118878151Y-53842282D01*
X118742282Y-53978151D01*
X118742279Y-53978155D01*
X118635521Y-54137929D01*
X118635520Y-54137931D01*
X118561989Y-54315452D01*
X118561986Y-54315464D01*
X118524500Y-54503917D01*
X108103152Y-54503917D01*
X106887590Y-53288355D01*
X106887588Y-53288352D01*
X106768717Y-53169481D01*
X106768716Y-53169480D01*
X106681904Y-53119360D01*
X106681904Y-53119359D01*
X106681900Y-53119358D01*
X106631785Y-53090423D01*
X106479057Y-53049499D01*
X106320943Y-53049499D01*
X106313347Y-53049499D01*
X106313331Y-53049500D01*
X104539091Y-53049500D01*
X104472052Y-53029815D01*
X104426711Y-52977909D01*
X104424037Y-52972175D01*
X104424034Y-52972170D01*
X104424033Y-52972169D01*
X104288495Y-52778599D01*
X104288494Y-52778597D01*
X104121402Y-52611506D01*
X104121395Y-52611501D01*
X103927834Y-52475967D01*
X103927830Y-52475965D01*
X103927828Y-52475964D01*
X103713663Y-52376097D01*
X103713659Y-52376096D01*
X103713655Y-52376094D01*
X103485413Y-52314938D01*
X103485403Y-52314936D01*
X103250001Y-52294341D01*
X103249999Y-52294341D01*
X103014596Y-52314936D01*
X103014586Y-52314938D01*
X102786344Y-52376094D01*
X102786335Y-52376098D01*
X102572171Y-52475964D01*
X102572169Y-52475965D01*
X102378597Y-52611505D01*
X102211505Y-52778597D01*
X102075965Y-52972169D01*
X102075964Y-52972171D01*
X101976098Y-53186335D01*
X101976094Y-53186344D01*
X101914938Y-53414586D01*
X101914936Y-53414596D01*
X101894341Y-53649999D01*
X100500500Y-53649999D01*
X100500500Y-50004066D01*
X100500765Y-49995956D01*
X100504819Y-49934108D01*
X100517075Y-49747102D01*
X100519190Y-49731048D01*
X100567045Y-49490462D01*
X100571243Y-49474797D01*
X100594337Y-49406762D01*
X100650093Y-49242512D01*
X100656291Y-49227547D01*
X100764790Y-49007533D01*
X100772893Y-48993498D01*
X100909182Y-48789527D01*
X100919039Y-48776681D01*
X101080786Y-48592244D01*
X101092244Y-48580786D01*
X101276681Y-48419039D01*
X101289527Y-48409182D01*
X101493498Y-48272893D01*
X101507533Y-48264790D01*
X101727547Y-48156291D01*
X101742512Y-48150093D01*
X101906762Y-48094337D01*
X101974797Y-48071243D01*
X101990464Y-48067045D01*
X102231048Y-48019190D01*
X102247102Y-48017075D01*
X102495957Y-48000765D01*
X102504067Y-48000500D01*
X102565892Y-48000500D01*
X122434108Y-48000500D01*
X122495933Y-48000500D01*
X122504043Y-48000765D01*
G37*
%TD.AperFunction*%
%TD*%
M02*
