%TF.GenerationSoftware,KiCad,Pcbnew,8.0.3*%
%TF.CreationDate,2024-07-26T09:17:15-04:00*%
%TF.ProjectId,touch_adaptor,746f7563-685f-4616-9461-70746f722e6b,rev?*%
%TF.SameCoordinates,Original*%
%TF.FileFunction,Paste,Top*%
%TF.FilePolarity,Positive*%
%FSLAX46Y46*%
G04 Gerber Fmt 4.6, Leading zero omitted, Abs format (unit mm)*
G04 Created by KiCad (PCBNEW 8.0.3) date 2024-07-26 09:17:15*
%MOMM*%
%LPD*%
G01*
G04 APERTURE LIST*
%ADD10R,1.100000X0.500000*%
%ADD11R,1.300000X0.300000*%
%ADD12R,2.200000X1.800000*%
G04 APERTURE END LIST*
D10*
%TO.C,J3*%
X122900000Y-56400000D03*
X119100000Y-56400000D03*
X122900000Y-57200000D03*
X119100000Y-57200000D03*
X122900000Y-58000000D03*
X119100000Y-58000000D03*
X122900000Y-58800000D03*
X119100000Y-58800000D03*
X122900000Y-59600000D03*
X119100000Y-59600000D03*
X122900000Y-60400000D03*
X119100000Y-60400000D03*
X122900000Y-61200000D03*
X119100000Y-61200000D03*
X122900000Y-62000000D03*
X119100000Y-62000000D03*
X122900000Y-62800000D03*
X119100000Y-62800000D03*
X122900000Y-63600000D03*
X119100000Y-63600000D03*
%TD*%
%TO.C,J4*%
X122900000Y-83900000D03*
X119100000Y-83900000D03*
X122900000Y-84700000D03*
X119100000Y-84700000D03*
X122900000Y-85500000D03*
X119100000Y-85500000D03*
X122900000Y-86300000D03*
X119100000Y-86300000D03*
X122900000Y-87100000D03*
X119100000Y-87100000D03*
X122900000Y-87900000D03*
X119100000Y-87900000D03*
X122900000Y-88700000D03*
X119100000Y-88700000D03*
X122900000Y-89500000D03*
X119100000Y-89500000D03*
X122900000Y-90300000D03*
X119100000Y-90300000D03*
X122900000Y-91100000D03*
X119100000Y-91100000D03*
%TD*%
D11*
%TO.C,J1*%
X106250000Y-86250000D03*
X106250000Y-86750000D03*
X106250000Y-87250000D03*
X106250000Y-87750000D03*
X106250000Y-88250000D03*
X106250000Y-88750000D03*
D12*
X103000000Y-84350000D03*
X103000000Y-90650000D03*
%TD*%
M02*
