%TF.GenerationSoftware,KiCad,Pcbnew,8.0.3*%
%TF.CreationDate,2024-07-26T09:17:15-04:00*%
%TF.ProjectId,touch_adaptor,746f7563-685f-4616-9461-70746f722e6b,rev?*%
%TF.SameCoordinates,Original*%
%TF.FileFunction,Copper,L1,Top*%
%TF.FilePolarity,Positive*%
%FSLAX46Y46*%
G04 Gerber Fmt 4.6, Leading zero omitted, Abs format (unit mm)*
G04 Created by KiCad (PCBNEW 8.0.3) date 2024-07-26 09:17:15*
%MOMM*%
%LPD*%
G01*
G04 APERTURE LIST*
%TA.AperFunction,SMDPad,CuDef*%
%ADD10R,1.100000X0.500000*%
%TD*%
%TA.AperFunction,ComponentPad*%
%ADD11R,1.700000X1.700000*%
%TD*%
%TA.AperFunction,ComponentPad*%
%ADD12O,1.700000X1.700000*%
%TD*%
%TA.AperFunction,SMDPad,CuDef*%
%ADD13R,1.300000X0.300000*%
%TD*%
%TA.AperFunction,SMDPad,CuDef*%
%ADD14R,2.200000X1.800000*%
%TD*%
%TA.AperFunction,ViaPad*%
%ADD15C,0.600000*%
%TD*%
%TA.AperFunction,Conductor*%
%ADD16C,0.300000*%
%TD*%
%TA.AperFunction,Conductor*%
%ADD17C,0.200000*%
%TD*%
G04 APERTURE END LIST*
D10*
%TO.P,J3,01,01*%
%TO.N,SER_WSOR_ADD2*%
X122900000Y-56400000D03*
%TO.P,J3,02,02*%
%TO.N,SER_WS*%
X119100000Y-56400000D03*
%TO.P,J3,03,03*%
%TO.N,SER_SCKOR_ADD1*%
X122900000Y-57200000D03*
%TO.P,J3,04,04*%
%TO.N,SER_SCK*%
X119100000Y-57200000D03*
%TO.P,J3,05,05*%
%TO.N,SER_SDOR_ADD0*%
X122900000Y-58000000D03*
%TO.P,J3,06,06*%
%TO.N,SER_SD*%
X119100000Y-58000000D03*
%TO.P,J3,07,07*%
%TO.N,GND*%
X122900000Y-58800000D03*
%TO.P,J3,08,08*%
X119100000Y-58800000D03*
%TO.P,J3,09,09*%
%TO.N,SER_GPIO09*%
X122900000Y-59600000D03*
%TO.P,J3,10,10*%
%TO.N,SER_GPIO07*%
X119100000Y-59600000D03*
%TO.P,J3,11,11*%
%TO.N,SER_GPIO05*%
X122900000Y-60400000D03*
%TO.P,J3,12,12*%
%TO.N,SER_GPIO08*%
X119100000Y-60400000D03*
%TO.P,J3,13,13*%
%TO.N,SER_SDA*%
X122900000Y-61200000D03*
%TO.P,J3,14,14*%
%TO.N,SER_SCL*%
X119100000Y-61200000D03*
%TO.P,J3,15,15*%
%TO.N,GND*%
X122900000Y-62000000D03*
%TO.P,J3,16,16*%
X119100000Y-62000000D03*
%TO.P,J3,17,17*%
%TO.N,SER_VDDIO*%
X122900000Y-62800000D03*
%TO.P,J3,18,18*%
%TO.N,SER_USB_5V*%
X119100000Y-62800000D03*
%TO.P,J3,19,19*%
%TO.N,SER_3V3*%
X122900000Y-63600000D03*
%TO.P,J3,20,20*%
%TO.N,SER_12V*%
X119100000Y-63600000D03*
%TD*%
%TO.P,J4,01,01*%
%TO.N,DES_WSOR_ADD2*%
X122900000Y-83900000D03*
%TO.P,J4,02,02*%
%TO.N,DES_WS*%
X119100000Y-83900000D03*
%TO.P,J4,03,03*%
%TO.N,DES_SCKOR_ADD1*%
X122900000Y-84700000D03*
%TO.P,J4,04,04*%
%TO.N,DES_SCK*%
X119100000Y-84700000D03*
%TO.P,J4,05,05*%
%TO.N,DES_SDOR_ADD0*%
X122900000Y-85500000D03*
%TO.P,J4,06,06*%
%TO.N,DES_SD*%
X119100000Y-85500000D03*
%TO.P,J4,07,07*%
%TO.N,GND*%
X122900000Y-86300000D03*
%TO.P,J4,08,08*%
X119100000Y-86300000D03*
%TO.P,J4,09,09*%
%TO.N,DES_GPIO09*%
X122900000Y-87100000D03*
%TO.P,J4,10,10*%
%TO.N,DES_GPIO07*%
X119100000Y-87100000D03*
%TO.P,J4,11,11*%
%TO.N,DES_GPIO05*%
X122900000Y-87900000D03*
%TO.P,J4,12,12*%
%TO.N,DES_GPIO08*%
X119100000Y-87900000D03*
%TO.P,J4,13,13*%
%TO.N,DES_SDA*%
X122900000Y-88700000D03*
%TO.P,J4,14,14*%
%TO.N,DES_SCL*%
X119100000Y-88700000D03*
%TO.P,J4,15,15*%
%TO.N,GND*%
X122900000Y-89500000D03*
%TO.P,J4,16,16*%
X119100000Y-89500000D03*
%TO.P,J4,17,17*%
%TO.N,DES_VDDIO*%
X122900000Y-90300000D03*
%TO.P,J4,18,18*%
%TO.N,DES_USB_5V*%
X119100000Y-90300000D03*
%TO.P,J4,19,19*%
%TO.N,DES_3V3*%
X122900000Y-91100000D03*
%TO.P,J4,20,20*%
%TO.N,DES_12V*%
X119100000Y-91100000D03*
%TD*%
D11*
%TO.P,J5,1,Pin_1*%
%TO.N,unconnected-(J5-Pin_1-Pad1)*%
X103250000Y-66350000D03*
D12*
%TO.P,J5,2,Pin_2*%
%TO.N,SER_SDA*%
X103250000Y-63810000D03*
%TO.P,J5,3,Pin_3*%
%TO.N,SER_SCL*%
X103250000Y-61270000D03*
%TO.P,J5,4,Pin_4*%
%TO.N,SER_GPIO07*%
X103250000Y-58730000D03*
%TO.P,J5,5,Pin_5*%
%TO.N,GND*%
X103250000Y-56190000D03*
%TO.P,J5,6,Pin_6*%
%TO.N,SER_GPIO08*%
X103250000Y-53650000D03*
%TD*%
D13*
%TO.P,J1,1,1*%
%TO.N,DES_SCL*%
X106250000Y-86250000D03*
%TO.P,J1,2,2*%
%TO.N,DES_SDA*%
X106250000Y-86750000D03*
%TO.P,J1,3,3*%
%TO.N,DES_GPIO07*%
X106250000Y-87250000D03*
%TO.P,J1,4,4*%
%TO.N,GND*%
X106250000Y-87750000D03*
%TO.P,J1,5,5*%
%TO.N,DES_3V3*%
X106250000Y-88250000D03*
%TO.P,J1,6,6*%
%TO.N,DES_GPIO08*%
X106250000Y-88750000D03*
D14*
%TO.P,J1,S1*%
%TO.N,N/C*%
X103000000Y-84350000D03*
%TO.P,J1,S2*%
X103000000Y-90650000D03*
%TD*%
D11*
%TO.P,J2,1,Pin_1*%
%TO.N,DES_SCL*%
X112525000Y-81175000D03*
D12*
%TO.P,J2,2,Pin_2*%
%TO.N,DES_SDA*%
X112525000Y-83715000D03*
%TO.P,J2,3,Pin_3*%
%TO.N,DES_GPIO07*%
X112525000Y-86255000D03*
%TO.P,J2,4,Pin_4*%
%TO.N,GND*%
X112525000Y-88795000D03*
%TO.P,J2,5,Pin_5*%
%TO.N,DES_3V3*%
X112525000Y-91335000D03*
%TO.P,J2,6,Pin_6*%
%TO.N,DES_GPIO08*%
X112525000Y-93875000D03*
%TD*%
D15*
%TO.N,SER_GPIO08*%
X112500000Y-59750000D03*
%TO.N,SER_SDA*%
X115000000Y-62000000D03*
X120750000Y-61250000D03*
%TO.N,GND*%
X101250000Y-56250000D03*
X105250000Y-56250000D03*
X117250000Y-62000000D03*
X117250000Y-58750000D03*
X121000000Y-58750000D03*
X121250000Y-62000000D03*
X114250000Y-90000000D03*
X109250000Y-87750000D03*
X114250000Y-92500000D03*
X121500000Y-90000000D03*
X121000000Y-86250000D03*
X117500000Y-90500000D03*
X117500000Y-85750000D03*
X104750000Y-87750000D03*
X110500000Y-87750000D03*
%TO.N,DES_SDA*%
X121500000Y-88750000D03*
%TO.N,DES_SCL*%
X117250000Y-88700000D03*
%TO.N,DES_3V3*%
X121500000Y-91100000D03*
%TD*%
D16*
%TO.N,GND*%
X106250000Y-87750000D02*
X104750000Y-87750000D01*
D17*
%TO.N,DES_GPIO08*%
X107400000Y-88750000D02*
X112525000Y-93875000D01*
X106250000Y-88750000D02*
X107400000Y-88750000D01*
D16*
%TO.N,DES_3V3*%
X110835000Y-91335000D02*
X112525000Y-91335000D01*
X107750000Y-88250000D02*
X110835000Y-91335000D01*
X106250000Y-88250000D02*
X107750000Y-88250000D01*
D17*
%TO.N,DES_GPIO07*%
X108995000Y-86255000D02*
X112525000Y-86255000D01*
X108000000Y-87250000D02*
X108995000Y-86255000D01*
X106250000Y-87250000D02*
X108000000Y-87250000D01*
%TO.N,DES_SCL*%
X107450000Y-86250000D02*
X112525000Y-81175000D01*
X106250000Y-86250000D02*
X107450000Y-86250000D01*
%TO.N,DES_SDA*%
X110785000Y-83715000D02*
X112525000Y-83715000D01*
X107750000Y-86750000D02*
X110785000Y-83715000D01*
X106250000Y-86750000D02*
X107750000Y-86750000D01*
%TO.N,SER_GPIO07*%
X114100000Y-59600000D02*
X113230000Y-58730000D01*
X119100000Y-59600000D02*
X114100000Y-59600000D01*
X113230000Y-58730000D02*
X103250000Y-58730000D01*
%TO.N,SER_GPIO08*%
X113150000Y-60400000D02*
X112500000Y-59750000D01*
X119100000Y-60400000D02*
X113150000Y-60400000D01*
D16*
%TO.N,GND*%
X122750000Y-62000000D02*
X118950000Y-62000000D01*
D17*
%TO.N,SER_SDA*%
X103590000Y-64150000D02*
X103250000Y-63810000D01*
X103590000Y-63660000D02*
X103590000Y-64150000D01*
X105250000Y-62000000D02*
X103590000Y-63660000D01*
X115000000Y-62000000D02*
X105250000Y-62000000D01*
X120800000Y-61200000D02*
X120750000Y-61250000D01*
X122150000Y-61200000D02*
X120800000Y-61200000D01*
X122900000Y-61200000D02*
X122150000Y-61200000D01*
%TO.N,SER_SCL*%
X103320000Y-61200000D02*
X103250000Y-61270000D01*
X119100000Y-61200000D02*
X103320000Y-61200000D01*
%TO.N,GND*%
X117500000Y-58750000D02*
X117550000Y-58800000D01*
D16*
X119100000Y-58800000D02*
X117550000Y-58800000D01*
X119100000Y-62000000D02*
X117750000Y-62000000D01*
X122900000Y-62000000D02*
X124000000Y-62000000D01*
X122900000Y-58800000D02*
X119100000Y-58800000D01*
X122900000Y-58800000D02*
X124050000Y-58800000D01*
D17*
X124050000Y-58800000D02*
X124250000Y-59000000D01*
%TO.N,DES_GPIO07*%
X112525000Y-86255000D02*
X114255000Y-86255000D01*
X114255000Y-86255000D02*
X115100000Y-87100000D01*
X115100000Y-87100000D02*
X119100000Y-87100000D01*
%TO.N,GND*%
X124250000Y-86250000D02*
X124200000Y-86300000D01*
D16*
X122900000Y-89500000D02*
X121500000Y-89500000D01*
X118350000Y-89500000D02*
X117500000Y-90350000D01*
D17*
X117500000Y-90350000D02*
X117500000Y-90500000D01*
D16*
X119100000Y-89500000D02*
X118350000Y-89500000D01*
D17*
X117500000Y-85750000D02*
X118050000Y-86300000D01*
X120950000Y-86300000D02*
X121000000Y-86250000D01*
X121050000Y-86300000D02*
X124200000Y-86300000D01*
X119100000Y-86300000D02*
X120950000Y-86300000D01*
D16*
X122900000Y-89500000D02*
X124000000Y-89500000D01*
X119100000Y-89500000D02*
X120500000Y-89500000D01*
D17*
X121000000Y-86250000D02*
X121050000Y-86300000D01*
X118050000Y-86300000D02*
X119100000Y-86300000D01*
%TO.N,DES_GPIO08*%
X116600000Y-87900000D02*
X119100000Y-87900000D01*
X115750000Y-88750000D02*
X116600000Y-87900000D01*
X114875000Y-93875000D02*
X115750000Y-93000000D01*
X112525000Y-93875000D02*
X114875000Y-93875000D01*
X115750000Y-93000000D02*
X115750000Y-88750000D01*
%TO.N,DES_SDA*%
X121500000Y-88750000D02*
X121484315Y-88750000D01*
X122900000Y-88700000D02*
X121534315Y-88700000D01*
X121534315Y-88700000D02*
X121500000Y-88734315D01*
X121500000Y-88734315D02*
X121500000Y-88750000D01*
%TO.N,DES_SCL*%
X117250000Y-88700000D02*
X119100000Y-88700000D01*
D16*
%TO.N,DES_3V3*%
X121500000Y-91100000D02*
X122900000Y-91100000D01*
%TD*%
%TA.AperFunction,Conductor*%
%TO.N,GND*%
G36*
X114021942Y-86875185D02*
G01*
X114042584Y-86891819D01*
X114615139Y-87464374D01*
X114615149Y-87464385D01*
X114619479Y-87468715D01*
X114619480Y-87468716D01*
X114731284Y-87580520D01*
X114731286Y-87580521D01*
X114731290Y-87580524D01*
X114838345Y-87642331D01*
X114868216Y-87659577D01*
X114980019Y-87689534D01*
X115020942Y-87700500D01*
X115020943Y-87700500D01*
X115650902Y-87700500D01*
X115717941Y-87720185D01*
X115763696Y-87772989D01*
X115773640Y-87842147D01*
X115744615Y-87905703D01*
X115738583Y-87912181D01*
X115269481Y-88381282D01*
X115269477Y-88381287D01*
X115231036Y-88447871D01*
X115231036Y-88447872D01*
X115190423Y-88518214D01*
X115181336Y-88552127D01*
X115149499Y-88670943D01*
X115149499Y-88670945D01*
X115149499Y-88839046D01*
X115149500Y-88839059D01*
X115149500Y-92699903D01*
X115129815Y-92766942D01*
X115113181Y-92787584D01*
X114662584Y-93238181D01*
X114601261Y-93271666D01*
X114574903Y-93274500D01*
X113814091Y-93274500D01*
X113747052Y-93254815D01*
X113701711Y-93202909D01*
X113699037Y-93197175D01*
X113699034Y-93197170D01*
X113690195Y-93184547D01*
X113563495Y-93003599D01*
X113563494Y-93003597D01*
X113396402Y-92836506D01*
X113396396Y-92836501D01*
X113210842Y-92706575D01*
X113167217Y-92651998D01*
X113160023Y-92582500D01*
X113191546Y-92520145D01*
X113210842Y-92503425D01*
X113304377Y-92437931D01*
X113396401Y-92373495D01*
X113563495Y-92206401D01*
X113699035Y-92012830D01*
X113798903Y-91798663D01*
X113860063Y-91570408D01*
X113880659Y-91335000D01*
X113860063Y-91099592D01*
X113798903Y-90871337D01*
X113699035Y-90657171D01*
X113692741Y-90648181D01*
X113563494Y-90463597D01*
X113396402Y-90296506D01*
X113396401Y-90296505D01*
X113210405Y-90166269D01*
X113166781Y-90111692D01*
X113159588Y-90042193D01*
X113191110Y-89979839D01*
X113210405Y-89963119D01*
X113396082Y-89833105D01*
X113563105Y-89666082D01*
X113698600Y-89472578D01*
X113798429Y-89258492D01*
X113798432Y-89258486D01*
X113855636Y-89045000D01*
X112958012Y-89045000D01*
X112990925Y-88987993D01*
X113025000Y-88860826D01*
X113025000Y-88729174D01*
X112990925Y-88602007D01*
X112958012Y-88545000D01*
X113855636Y-88545000D01*
X113855635Y-88544999D01*
X113798432Y-88331513D01*
X113798429Y-88331507D01*
X113698600Y-88117422D01*
X113698599Y-88117420D01*
X113563113Y-87923926D01*
X113563108Y-87923920D01*
X113396078Y-87756890D01*
X113210405Y-87626879D01*
X113166780Y-87572302D01*
X113159588Y-87502804D01*
X113191110Y-87440449D01*
X113210406Y-87423730D01*
X113396401Y-87293495D01*
X113563495Y-87126401D01*
X113699035Y-86932830D01*
X113701707Y-86927097D01*
X113747878Y-86874658D01*
X113814091Y-86855500D01*
X113954903Y-86855500D01*
X114021942Y-86875185D01*
G37*
%TD.AperFunction*%
%TA.AperFunction,Conductor*%
G36*
X111302948Y-86875185D02*
G01*
X111348292Y-86927097D01*
X111350965Y-86932830D01*
X111486505Y-87126401D01*
X111653599Y-87293495D01*
X111802670Y-87397876D01*
X111839594Y-87423730D01*
X111883219Y-87478307D01*
X111890413Y-87547805D01*
X111858890Y-87610160D01*
X111839595Y-87626880D01*
X111653922Y-87756890D01*
X111653920Y-87756891D01*
X111486891Y-87923920D01*
X111486886Y-87923926D01*
X111351400Y-88117420D01*
X111351399Y-88117422D01*
X111251570Y-88331507D01*
X111251567Y-88331513D01*
X111194364Y-88544999D01*
X111194364Y-88545000D01*
X112091988Y-88545000D01*
X112059075Y-88602007D01*
X112025000Y-88729174D01*
X112025000Y-88860826D01*
X112059075Y-88987993D01*
X112091988Y-89045000D01*
X111194364Y-89045000D01*
X111251567Y-89258486D01*
X111251570Y-89258492D01*
X111351399Y-89472578D01*
X111486894Y-89666082D01*
X111653917Y-89833105D01*
X111839595Y-89963119D01*
X111883219Y-90017696D01*
X111890412Y-90087195D01*
X111858890Y-90149549D01*
X111839595Y-90166269D01*
X111653594Y-90296508D01*
X111486506Y-90463596D01*
X111368854Y-90631623D01*
X111314277Y-90675248D01*
X111267279Y-90684500D01*
X111155808Y-90684500D01*
X111088769Y-90664815D01*
X111068127Y-90648181D01*
X108344619Y-87924673D01*
X108311134Y-87863350D01*
X108316118Y-87793658D01*
X108357990Y-87737725D01*
X108367511Y-87731444D01*
X108368710Y-87730523D01*
X108368716Y-87730520D01*
X108480520Y-87618716D01*
X108480520Y-87618714D01*
X108490728Y-87608507D01*
X108490729Y-87608504D01*
X109207416Y-86891819D01*
X109268739Y-86858334D01*
X109295097Y-86855500D01*
X111235909Y-86855500D01*
X111302948Y-86875185D01*
G37*
%TD.AperFunction*%
%TA.AperFunction,Conductor*%
G36*
X119418336Y-75245545D02*
G01*
X119462683Y-75274046D01*
X119529111Y-75340474D01*
X119529117Y-75340479D01*
X119672304Y-75430450D01*
X119672307Y-75430452D01*
X119672311Y-75430453D01*
X119672312Y-75430454D01*
X119672318Y-75430456D01*
X119831945Y-75486312D01*
X119999999Y-75505247D01*
X120000002Y-75505247D01*
X120000005Y-75505247D01*
X120168058Y-75486312D01*
X120168061Y-75486311D01*
X120327692Y-75430454D01*
X120434417Y-75363393D01*
X120501653Y-75344393D01*
X120551899Y-75355592D01*
X120595302Y-75375414D01*
X120636702Y-75394321D01*
X120636708Y-75394323D01*
X120839788Y-75453951D01*
X120876954Y-75464864D01*
X121124802Y-75500500D01*
X121184108Y-75500500D01*
X122434108Y-75500500D01*
X122495933Y-75500500D01*
X122504043Y-75500765D01*
X122752895Y-75517075D01*
X122768953Y-75519190D01*
X122976105Y-75560395D01*
X123009535Y-75567045D01*
X123025202Y-75571243D01*
X123194947Y-75628863D01*
X123257481Y-75650091D01*
X123272458Y-75656294D01*
X123481799Y-75759529D01*
X123492460Y-75764787D01*
X123506508Y-75772897D01*
X123710464Y-75909177D01*
X123723328Y-75919048D01*
X123907749Y-76080781D01*
X123919218Y-76092250D01*
X124080951Y-76276671D01*
X124090825Y-76289539D01*
X124227102Y-76493492D01*
X124235212Y-76507539D01*
X124343702Y-76727534D01*
X124349909Y-76742520D01*
X124428756Y-76974797D01*
X124432954Y-76990464D01*
X124480807Y-77231035D01*
X124482925Y-77247116D01*
X124499235Y-77495956D01*
X124499500Y-77504066D01*
X124499500Y-97495933D01*
X124499235Y-97504043D01*
X124482925Y-97752883D01*
X124480807Y-97768964D01*
X124432954Y-98009535D01*
X124428756Y-98025202D01*
X124349909Y-98257479D01*
X124343702Y-98272465D01*
X124235212Y-98492460D01*
X124227102Y-98506507D01*
X124090825Y-98710460D01*
X124080951Y-98723328D01*
X123919218Y-98907749D01*
X123907749Y-98919218D01*
X123723328Y-99080951D01*
X123710460Y-99090825D01*
X123506507Y-99227102D01*
X123492460Y-99235212D01*
X123272465Y-99343702D01*
X123257479Y-99349909D01*
X123025202Y-99428756D01*
X123009535Y-99432954D01*
X122768964Y-99480807D01*
X122752883Y-99482925D01*
X122504043Y-99499235D01*
X122495933Y-99499500D01*
X102504067Y-99499500D01*
X102495957Y-99499235D01*
X102247116Y-99482925D01*
X102231035Y-99480807D01*
X101990464Y-99432954D01*
X101974797Y-99428756D01*
X101742520Y-99349909D01*
X101727534Y-99343702D01*
X101507539Y-99235212D01*
X101493492Y-99227102D01*
X101289539Y-99090825D01*
X101276671Y-99080951D01*
X101092250Y-98919218D01*
X101080781Y-98907749D01*
X100919048Y-98723328D01*
X100909174Y-98710460D01*
X100772897Y-98506507D01*
X100764787Y-98492460D01*
X100658855Y-98277652D01*
X100656294Y-98272458D01*
X100650090Y-98257479D01*
X100571243Y-98025202D01*
X100567045Y-98009535D01*
X100559186Y-97970026D01*
X100519190Y-97768953D01*
X100517075Y-97752895D01*
X100500765Y-97504043D01*
X100500500Y-97495933D01*
X100500500Y-89702135D01*
X101399500Y-89702135D01*
X101399500Y-91597870D01*
X101399501Y-91597876D01*
X101405908Y-91657483D01*
X101456202Y-91792328D01*
X101456206Y-91792335D01*
X101542452Y-91907544D01*
X101542455Y-91907547D01*
X101657664Y-91993793D01*
X101657671Y-91993797D01*
X101792517Y-92044091D01*
X101792516Y-92044091D01*
X101799444Y-92044835D01*
X101852127Y-92050500D01*
X104147872Y-92050499D01*
X104207483Y-92044091D01*
X104342331Y-91993796D01*
X104457546Y-91907546D01*
X104543796Y-91792331D01*
X104594091Y-91657483D01*
X104600500Y-91597873D01*
X104600499Y-89702128D01*
X104594091Y-89642517D01*
X104588114Y-89626493D01*
X104543797Y-89507671D01*
X104543793Y-89507664D01*
X104457547Y-89392455D01*
X104457544Y-89392452D01*
X104342335Y-89306206D01*
X104342328Y-89306202D01*
X104207482Y-89255908D01*
X104207483Y-89255908D01*
X104147883Y-89249501D01*
X104147881Y-89249500D01*
X104147873Y-89249500D01*
X104147864Y-89249500D01*
X101852129Y-89249500D01*
X101852123Y-89249501D01*
X101792516Y-89255908D01*
X101657671Y-89306202D01*
X101657664Y-89306206D01*
X101542455Y-89392452D01*
X101542452Y-89392455D01*
X101456206Y-89507664D01*
X101456202Y-89507671D01*
X101405908Y-89642517D01*
X101403375Y-89666082D01*
X101399501Y-89702123D01*
X101399500Y-89702135D01*
X100500500Y-89702135D01*
X100500500Y-86052127D01*
X105099500Y-86052127D01*
X105099500Y-86052134D01*
X105099500Y-86052135D01*
X105099500Y-86447869D01*
X105099501Y-86447878D01*
X105103679Y-86486745D01*
X105103679Y-86513250D01*
X105099500Y-86552122D01*
X105099500Y-86947869D01*
X105099501Y-86947878D01*
X105103679Y-86986745D01*
X105103679Y-87013250D01*
X105099500Y-87052122D01*
X105099500Y-87447869D01*
X105099501Y-87447880D01*
X105103931Y-87489093D01*
X105103931Y-87515596D01*
X105100000Y-87552165D01*
X105100000Y-87600000D01*
X105115611Y-87615611D01*
X105129484Y-87619685D01*
X105161713Y-87649690D01*
X105181176Y-87675690D01*
X105205592Y-87741155D01*
X105190740Y-87809428D01*
X105181176Y-87824310D01*
X105167824Y-87842147D01*
X105162364Y-87849441D01*
X105161713Y-87850310D01*
X105113890Y-87886109D01*
X105100000Y-87900000D01*
X105100000Y-87947832D01*
X105103931Y-87984399D01*
X105103931Y-88010905D01*
X105099500Y-88052122D01*
X105099500Y-88447869D01*
X105099501Y-88447871D01*
X105103679Y-88486745D01*
X105103679Y-88513250D01*
X105099500Y-88552122D01*
X105099500Y-88947870D01*
X105099501Y-88947876D01*
X105105908Y-89007483D01*
X105156202Y-89142328D01*
X105156206Y-89142335D01*
X105242452Y-89257544D01*
X105242455Y-89257547D01*
X105357664Y-89343793D01*
X105357671Y-89343797D01*
X105492517Y-89394091D01*
X105492516Y-89394091D01*
X105499444Y-89394835D01*
X105552127Y-89400500D01*
X106947872Y-89400499D01*
X107007483Y-89394091D01*
X107069292Y-89371037D01*
X107138981Y-89366054D01*
X107200301Y-89399536D01*
X107200304Y-89399539D01*
X111192233Y-93391469D01*
X111225718Y-93452792D01*
X111224327Y-93511243D01*
X111189938Y-93639586D01*
X111189936Y-93639596D01*
X111169341Y-93874999D01*
X111169341Y-93875000D01*
X111189936Y-94110403D01*
X111189938Y-94110413D01*
X111251094Y-94338655D01*
X111251096Y-94338659D01*
X111251097Y-94338663D01*
X111314906Y-94475501D01*
X111350965Y-94552830D01*
X111350967Y-94552834D01*
X111459281Y-94707521D01*
X111486505Y-94746401D01*
X111653599Y-94913495D01*
X111750384Y-94981265D01*
X111847165Y-95049032D01*
X111847167Y-95049033D01*
X111847170Y-95049035D01*
X112061337Y-95148903D01*
X112289592Y-95210063D01*
X112477918Y-95226539D01*
X112524999Y-95230659D01*
X112525000Y-95230659D01*
X112525001Y-95230659D01*
X112564234Y-95227226D01*
X112760408Y-95210063D01*
X112988663Y-95148903D01*
X113202830Y-95049035D01*
X113396401Y-94913495D01*
X113563495Y-94746401D01*
X113699035Y-94552830D01*
X113701707Y-94547097D01*
X113747878Y-94494658D01*
X113814091Y-94475500D01*
X114788331Y-94475500D01*
X114788347Y-94475501D01*
X114795943Y-94475501D01*
X114954054Y-94475501D01*
X114954057Y-94475501D01*
X115106785Y-94434577D01*
X115156904Y-94405639D01*
X115243716Y-94355520D01*
X115355520Y-94243716D01*
X115355520Y-94243714D01*
X115365728Y-94233507D01*
X115365730Y-94233504D01*
X116108506Y-93490728D01*
X116108511Y-93490724D01*
X116118714Y-93480520D01*
X116118716Y-93480520D01*
X116230520Y-93368716D01*
X116286552Y-93271666D01*
X116306438Y-93237222D01*
X116306439Y-93237220D01*
X116306924Y-93236379D01*
X116309577Y-93231785D01*
X116350501Y-93079057D01*
X116350501Y-92920943D01*
X116350501Y-92913348D01*
X116350500Y-92913330D01*
X116350500Y-89203476D01*
X116370185Y-89136437D01*
X116422989Y-89090682D01*
X116492147Y-89080738D01*
X116555703Y-89109763D01*
X116579493Y-89137503D01*
X116620184Y-89202262D01*
X116747738Y-89329816D01*
X116838080Y-89386582D01*
X116900331Y-89425697D01*
X116900478Y-89425789D01*
X116971098Y-89450500D01*
X117070745Y-89485368D01*
X117070750Y-89485369D01*
X117249996Y-89505565D01*
X117250000Y-89505565D01*
X117250004Y-89505565D01*
X117429249Y-89485369D01*
X117429252Y-89485368D01*
X117429255Y-89485368D01*
X117599522Y-89425789D01*
X117752262Y-89329816D01*
X117752267Y-89329810D01*
X117755097Y-89327555D01*
X117757275Y-89326665D01*
X117758158Y-89326111D01*
X117758255Y-89326265D01*
X117819783Y-89301145D01*
X117832412Y-89300500D01*
X118141769Y-89300500D01*
X118208808Y-89320185D01*
X118216080Y-89325233D01*
X118314769Y-89399111D01*
X118313069Y-89401380D01*
X118352264Y-89440580D01*
X118367111Y-89508854D01*
X118342690Y-89574317D01*
X118313689Y-89599445D01*
X118314769Y-89600888D01*
X118192456Y-89692451D01*
X118192454Y-89692454D01*
X118186571Y-89700312D01*
X118130639Y-89742182D01*
X118087306Y-89750000D01*
X118050000Y-89750000D01*
X118050000Y-89797844D01*
X118056401Y-89857372D01*
X118058187Y-89864930D01*
X118056542Y-89865318D01*
X118060851Y-89925656D01*
X118055943Y-89942371D01*
X118055908Y-89942520D01*
X118051950Y-89979341D01*
X118049501Y-90002123D01*
X118049500Y-90002136D01*
X118049500Y-90597870D01*
X118049501Y-90597876D01*
X118055908Y-90657479D01*
X118057692Y-90665026D01*
X118056229Y-90665371D01*
X118060585Y-90726371D01*
X118056173Y-90741396D01*
X118055908Y-90742517D01*
X118049501Y-90802117D01*
X118049501Y-90802123D01*
X118049500Y-90802136D01*
X118049500Y-91397870D01*
X118049501Y-91397876D01*
X118055908Y-91457483D01*
X118106202Y-91592328D01*
X118106206Y-91592335D01*
X118192452Y-91707544D01*
X118192455Y-91707547D01*
X118307664Y-91793793D01*
X118307671Y-91793797D01*
X118442517Y-91844091D01*
X118442516Y-91844091D01*
X118449444Y-91844835D01*
X118502127Y-91850500D01*
X118906063Y-91850499D01*
X118973100Y-91870183D01*
X119018855Y-91922987D01*
X119028799Y-91992146D01*
X118999774Y-92055702D01*
X118974952Y-92077601D01*
X118878155Y-92142279D01*
X118878151Y-92142282D01*
X118742282Y-92278151D01*
X118742279Y-92278155D01*
X118635521Y-92437929D01*
X118635520Y-92437931D01*
X118561989Y-92615452D01*
X118561986Y-92615464D01*
X118524500Y-92803917D01*
X118524500Y-92996082D01*
X118561986Y-93184535D01*
X118561989Y-93184547D01*
X118635520Y-93362068D01*
X118635521Y-93362070D01*
X118742279Y-93521844D01*
X118742282Y-93521848D01*
X118878151Y-93657717D01*
X118878155Y-93657720D01*
X119037927Y-93764477D01*
X119037928Y-93764477D01*
X119037929Y-93764478D01*
X119037931Y-93764479D01*
X119215452Y-93838010D01*
X119215457Y-93838012D01*
X119401403Y-93874999D01*
X119403917Y-93875499D01*
X119403920Y-93875500D01*
X119403922Y-93875500D01*
X119596080Y-93875500D01*
X119596081Y-93875499D01*
X119784543Y-93838012D01*
X119962073Y-93764477D01*
X120121845Y-93657720D01*
X120257720Y-93521845D01*
X120364477Y-93362073D01*
X120438012Y-93184543D01*
X120475500Y-92996078D01*
X120475500Y-92803922D01*
X120475500Y-92803919D01*
X120475499Y-92803917D01*
X120456136Y-92706575D01*
X120438012Y-92615457D01*
X120364477Y-92437927D01*
X120257720Y-92278155D01*
X120257717Y-92278151D01*
X120121848Y-92142282D01*
X120121844Y-92142279D01*
X119962070Y-92035521D01*
X119962068Y-92035520D01*
X119910132Y-92014008D01*
X119855728Y-91970167D01*
X119833663Y-91903873D01*
X119850942Y-91836174D01*
X119886959Y-91801421D01*
X119885231Y-91799112D01*
X119977798Y-91729815D01*
X120007546Y-91707546D01*
X120093796Y-91592331D01*
X120144091Y-91457483D01*
X120150500Y-91397873D01*
X120150499Y-90802128D01*
X120144091Y-90742517D01*
X120144090Y-90742515D01*
X120144090Y-90742512D01*
X120142308Y-90734969D01*
X120143773Y-90734622D01*
X120139409Y-90673651D01*
X120143819Y-90658633D01*
X120144089Y-90657488D01*
X120144088Y-90657488D01*
X120144091Y-90657483D01*
X120150500Y-90597873D01*
X120150499Y-90002128D01*
X120144091Y-89942517D01*
X120144091Y-89942516D01*
X120142307Y-89934966D01*
X120143559Y-89934669D01*
X120139145Y-89872924D01*
X120143132Y-89859346D01*
X120143598Y-89857375D01*
X120149999Y-89797844D01*
X120150000Y-89797827D01*
X120150000Y-89750000D01*
X120112694Y-89750000D01*
X120045655Y-89730315D01*
X120013429Y-89700313D01*
X120007546Y-89692454D01*
X120007544Y-89692452D01*
X120007543Y-89692451D01*
X119885231Y-89600888D01*
X119886930Y-89598617D01*
X119847743Y-89559435D01*
X119832886Y-89491163D01*
X119857298Y-89425697D01*
X119886311Y-89400556D01*
X119885231Y-89399112D01*
X120007543Y-89307548D01*
X120007542Y-89307548D01*
X120007546Y-89307546D01*
X120013428Y-89299687D01*
X120069361Y-89257818D01*
X120112694Y-89250000D01*
X120150000Y-89250000D01*
X120150000Y-89202172D01*
X120149999Y-89202155D01*
X120143598Y-89142627D01*
X120141814Y-89135076D01*
X120143459Y-89134687D01*
X120139143Y-89074361D01*
X120144058Y-89057619D01*
X120144089Y-89057489D01*
X120144089Y-89057488D01*
X120144091Y-89057483D01*
X120150500Y-88997873D01*
X120150500Y-88749996D01*
X120694435Y-88749996D01*
X120694435Y-88750003D01*
X120714630Y-88929249D01*
X120714631Y-88929254D01*
X120774211Y-89099523D01*
X120868449Y-89249500D01*
X120870184Y-89252262D01*
X120997738Y-89379816D01*
X121032057Y-89401380D01*
X121145367Y-89472578D01*
X121150478Y-89475789D01*
X121304770Y-89529778D01*
X121320745Y-89535368D01*
X121320750Y-89535369D01*
X121499996Y-89555565D01*
X121500000Y-89555565D01*
X121500004Y-89555565D01*
X121679249Y-89535369D01*
X121679249Y-89535368D01*
X121679255Y-89535368D01*
X121685039Y-89533343D01*
X121754816Y-89529778D01*
X121815445Y-89564502D01*
X121847677Y-89626493D01*
X121850000Y-89650383D01*
X121850000Y-89797844D01*
X121856401Y-89857372D01*
X121858187Y-89864930D01*
X121856542Y-89865318D01*
X121860851Y-89925656D01*
X121855943Y-89942371D01*
X121855908Y-89942520D01*
X121851896Y-89979839D01*
X121849501Y-90002123D01*
X121849500Y-90002135D01*
X121849500Y-90199441D01*
X121829815Y-90266480D01*
X121777011Y-90312235D01*
X121707853Y-90322179D01*
X121684546Y-90316483D01*
X121679257Y-90314632D01*
X121679249Y-90314630D01*
X121500004Y-90294435D01*
X121499996Y-90294435D01*
X121320750Y-90314630D01*
X121320745Y-90314631D01*
X121150476Y-90374211D01*
X120997737Y-90470184D01*
X120870184Y-90597737D01*
X120774211Y-90750476D01*
X120714631Y-90920745D01*
X120714630Y-90920750D01*
X120694435Y-91099996D01*
X120694435Y-91100003D01*
X120714630Y-91279249D01*
X120714631Y-91279254D01*
X120774211Y-91449523D01*
X120779213Y-91457483D01*
X120870184Y-91602262D01*
X120997738Y-91729816D01*
X121060904Y-91769506D01*
X121111696Y-91801421D01*
X121150478Y-91825789D01*
X121221098Y-91850500D01*
X121320745Y-91885368D01*
X121320750Y-91885369D01*
X121499996Y-91905565D01*
X121500000Y-91905565D01*
X121500004Y-91905565D01*
X121679249Y-91885369D01*
X121679251Y-91885368D01*
X121679255Y-91885368D01*
X121679258Y-91885366D01*
X121679262Y-91885366D01*
X121778908Y-91850498D01*
X121849522Y-91825789D01*
X121939096Y-91769505D01*
X122005068Y-91750500D01*
X122008561Y-91750500D01*
X122075600Y-91770185D01*
X122082872Y-91775233D01*
X122105717Y-91792335D01*
X122107668Y-91793795D01*
X122107671Y-91793797D01*
X122242517Y-91844091D01*
X122242516Y-91844091D01*
X122249444Y-91844835D01*
X122302127Y-91850500D01*
X123497872Y-91850499D01*
X123557483Y-91844091D01*
X123692331Y-91793796D01*
X123807546Y-91707546D01*
X123893796Y-91592331D01*
X123944091Y-91457483D01*
X123950500Y-91397873D01*
X123950499Y-90802128D01*
X123944091Y-90742517D01*
X123944090Y-90742515D01*
X123944090Y-90742512D01*
X123942308Y-90734969D01*
X123943773Y-90734622D01*
X123939409Y-90673651D01*
X123943819Y-90658633D01*
X123944089Y-90657488D01*
X123944088Y-90657488D01*
X123944091Y-90657483D01*
X123950500Y-90597873D01*
X123950499Y-90002128D01*
X123944091Y-89942517D01*
X123944091Y-89942516D01*
X123942307Y-89934966D01*
X123943559Y-89934669D01*
X123939145Y-89872924D01*
X123943132Y-89859346D01*
X123943598Y-89857375D01*
X123949999Y-89797844D01*
X123950000Y-89797827D01*
X123950000Y-89750000D01*
X123912694Y-89750000D01*
X123845655Y-89730315D01*
X123813429Y-89700313D01*
X123807546Y-89692454D01*
X123807544Y-89692452D01*
X123807543Y-89692451D01*
X123685231Y-89600888D01*
X123686930Y-89598617D01*
X123647743Y-89559435D01*
X123632886Y-89491163D01*
X123657298Y-89425697D01*
X123686311Y-89400556D01*
X123685231Y-89399112D01*
X123807543Y-89307548D01*
X123807542Y-89307548D01*
X123807546Y-89307546D01*
X123813428Y-89299687D01*
X123869361Y-89257818D01*
X123912694Y-89250000D01*
X123950000Y-89250000D01*
X123950000Y-89202172D01*
X123949999Y-89202155D01*
X123943598Y-89142627D01*
X123941814Y-89135076D01*
X123943459Y-89134687D01*
X123939143Y-89074361D01*
X123944058Y-89057619D01*
X123944089Y-89057489D01*
X123944089Y-89057488D01*
X123944091Y-89057483D01*
X123950500Y-88997873D01*
X123950499Y-88402128D01*
X123944091Y-88342517D01*
X123944090Y-88342515D01*
X123944090Y-88342512D01*
X123942308Y-88334969D01*
X123943773Y-88334622D01*
X123939409Y-88273651D01*
X123943819Y-88258633D01*
X123944089Y-88257488D01*
X123944088Y-88257488D01*
X123944091Y-88257483D01*
X123950500Y-88197873D01*
X123950499Y-87602128D01*
X123944091Y-87542517D01*
X123944090Y-87542515D01*
X123944090Y-87542512D01*
X123942308Y-87534969D01*
X123943773Y-87534622D01*
X123939409Y-87473651D01*
X123943819Y-87458633D01*
X123944089Y-87457488D01*
X123944088Y-87457488D01*
X123944091Y-87457483D01*
X123950500Y-87397873D01*
X123950499Y-86802128D01*
X123944091Y-86742517D01*
X123944091Y-86742516D01*
X123942307Y-86734966D01*
X123943559Y-86734669D01*
X123939145Y-86672924D01*
X123943132Y-86659346D01*
X123943598Y-86657375D01*
X123949999Y-86597844D01*
X123950000Y-86597827D01*
X123950000Y-86550000D01*
X123912694Y-86550000D01*
X123845655Y-86530315D01*
X123813429Y-86500313D01*
X123807546Y-86492454D01*
X123807544Y-86492452D01*
X123807543Y-86492451D01*
X123685231Y-86400888D01*
X123686930Y-86398617D01*
X123647743Y-86359435D01*
X123632886Y-86291163D01*
X123657298Y-86225697D01*
X123686311Y-86200556D01*
X123685231Y-86199112D01*
X123807543Y-86107548D01*
X123807542Y-86107548D01*
X123807546Y-86107546D01*
X123813428Y-86099687D01*
X123869361Y-86057818D01*
X123912694Y-86050000D01*
X123950000Y-86050000D01*
X123950000Y-86002172D01*
X123949999Y-86002155D01*
X123943598Y-85942627D01*
X123941814Y-85935076D01*
X123943459Y-85934687D01*
X123939143Y-85874361D01*
X123944058Y-85857619D01*
X123944089Y-85857489D01*
X123944089Y-85857488D01*
X123944091Y-85857483D01*
X123950500Y-85797873D01*
X123950499Y-85202128D01*
X123944091Y-85142517D01*
X123944090Y-85142515D01*
X123944090Y-85142512D01*
X123942308Y-85134969D01*
X123943773Y-85134622D01*
X123939409Y-85073651D01*
X123943819Y-85058633D01*
X123944089Y-85057488D01*
X123944088Y-85057488D01*
X123944091Y-85057483D01*
X123950500Y-84997873D01*
X123950499Y-84402128D01*
X123944091Y-84342517D01*
X123944090Y-84342515D01*
X123944090Y-84342512D01*
X123942308Y-84334969D01*
X123943773Y-84334622D01*
X123939409Y-84273651D01*
X123943819Y-84258633D01*
X123944089Y-84257488D01*
X123944088Y-84257488D01*
X123944091Y-84257483D01*
X123950500Y-84197873D01*
X123950499Y-83602128D01*
X123944091Y-83542517D01*
X123920619Y-83479586D01*
X123893797Y-83407671D01*
X123893793Y-83407664D01*
X123807547Y-83292455D01*
X123807544Y-83292452D01*
X123692335Y-83206206D01*
X123692328Y-83206202D01*
X123557482Y-83155908D01*
X123557483Y-83155908D01*
X123497883Y-83149501D01*
X123497881Y-83149500D01*
X123497873Y-83149500D01*
X123497864Y-83149500D01*
X122302129Y-83149500D01*
X122302123Y-83149501D01*
X122242516Y-83155908D01*
X122107671Y-83206202D01*
X122107664Y-83206206D01*
X121992455Y-83292452D01*
X121992452Y-83292455D01*
X121906206Y-83407664D01*
X121906202Y-83407671D01*
X121855910Y-83542513D01*
X121855909Y-83542517D01*
X121849500Y-83602127D01*
X121849500Y-83602134D01*
X121849500Y-83602135D01*
X121849500Y-84197870D01*
X121849501Y-84197876D01*
X121855908Y-84257479D01*
X121857692Y-84265026D01*
X121856229Y-84265371D01*
X121860585Y-84326371D01*
X121856173Y-84341396D01*
X121855908Y-84342517D01*
X121850499Y-84392831D01*
X121849501Y-84402123D01*
X121849500Y-84402136D01*
X121849500Y-84997870D01*
X121849501Y-84997876D01*
X121855908Y-85057479D01*
X121857692Y-85065026D01*
X121856229Y-85065371D01*
X121860585Y-85126371D01*
X121856173Y-85141396D01*
X121855908Y-85142517D01*
X121849501Y-85202117D01*
X121849501Y-85202123D01*
X121849500Y-85202136D01*
X121849500Y-85797870D01*
X121849501Y-85797876D01*
X121855909Y-85857487D01*
X121857692Y-85865031D01*
X121856438Y-85865327D01*
X121860856Y-85927069D01*
X121856864Y-85940664D01*
X121856401Y-85942624D01*
X121850000Y-86002155D01*
X121850000Y-86050000D01*
X121887306Y-86050000D01*
X121954345Y-86069685D01*
X121986570Y-86099686D01*
X121992454Y-86107546D01*
X121992455Y-86107546D01*
X121992456Y-86107548D01*
X122114769Y-86199112D01*
X122113070Y-86201381D01*
X122152264Y-86240580D01*
X122167111Y-86308854D01*
X122142690Y-86374317D01*
X122113689Y-86399445D01*
X122114769Y-86400888D01*
X121992456Y-86492451D01*
X121992454Y-86492454D01*
X121986571Y-86500312D01*
X121930639Y-86542182D01*
X121887306Y-86550000D01*
X121850000Y-86550000D01*
X121850000Y-86597844D01*
X121856401Y-86657372D01*
X121858187Y-86664930D01*
X121856542Y-86665318D01*
X121860851Y-86725656D01*
X121855943Y-86742371D01*
X121855908Y-86742520D01*
X121849501Y-86802117D01*
X121849501Y-86802123D01*
X121849500Y-86802136D01*
X121849500Y-87397870D01*
X121849501Y-87397876D01*
X121855908Y-87457479D01*
X121857692Y-87465026D01*
X121856229Y-87465371D01*
X121860585Y-87526371D01*
X121856173Y-87541396D01*
X121855908Y-87542517D01*
X121849501Y-87602116D01*
X121849501Y-87602123D01*
X121849500Y-87602135D01*
X121849500Y-87849441D01*
X121829815Y-87916480D01*
X121777011Y-87962235D01*
X121707853Y-87972179D01*
X121684546Y-87966483D01*
X121679257Y-87964632D01*
X121679249Y-87964630D01*
X121500004Y-87944435D01*
X121499996Y-87944435D01*
X121320750Y-87964630D01*
X121320745Y-87964631D01*
X121150476Y-88024211D01*
X120997737Y-88120184D01*
X120870184Y-88247737D01*
X120774211Y-88400476D01*
X120714631Y-88570745D01*
X120714630Y-88570750D01*
X120694435Y-88749996D01*
X120150500Y-88749996D01*
X120150499Y-88402128D01*
X120144091Y-88342517D01*
X120144090Y-88342515D01*
X120144090Y-88342512D01*
X120142308Y-88334969D01*
X120143773Y-88334622D01*
X120139409Y-88273651D01*
X120143819Y-88258633D01*
X120144089Y-88257488D01*
X120144088Y-88257488D01*
X120144091Y-88257483D01*
X120150500Y-88197873D01*
X120150499Y-87602128D01*
X120144091Y-87542517D01*
X120144090Y-87542515D01*
X120144090Y-87542512D01*
X120142308Y-87534969D01*
X120143773Y-87534622D01*
X120139409Y-87473651D01*
X120143819Y-87458633D01*
X120144089Y-87457488D01*
X120144088Y-87457488D01*
X120144091Y-87457483D01*
X120150500Y-87397873D01*
X120150499Y-86802128D01*
X120144091Y-86742517D01*
X120144091Y-86742516D01*
X120142307Y-86734966D01*
X120143559Y-86734669D01*
X120139145Y-86672924D01*
X120143132Y-86659346D01*
X120143598Y-86657375D01*
X120149999Y-86597844D01*
X120150000Y-86597827D01*
X120150000Y-86550000D01*
X120112694Y-86550000D01*
X120045655Y-86530315D01*
X120013429Y-86500313D01*
X120007546Y-86492454D01*
X120007544Y-86492452D01*
X120007543Y-86492451D01*
X119885231Y-86400888D01*
X119886930Y-86398617D01*
X119847743Y-86359435D01*
X119832886Y-86291163D01*
X119857298Y-86225697D01*
X119886311Y-86200556D01*
X119885231Y-86199112D01*
X120007543Y-86107548D01*
X120007542Y-86107548D01*
X120007546Y-86107546D01*
X120013428Y-86099687D01*
X120069361Y-86057818D01*
X120112694Y-86050000D01*
X120150000Y-86050000D01*
X120150000Y-86002172D01*
X120149999Y-86002155D01*
X120143598Y-85942627D01*
X120141814Y-85935076D01*
X120143459Y-85934687D01*
X120139143Y-85874361D01*
X120144058Y-85857619D01*
X120144089Y-85857489D01*
X120144089Y-85857488D01*
X120144091Y-85857483D01*
X120150500Y-85797873D01*
X120150499Y-85202128D01*
X120144091Y-85142517D01*
X120144090Y-85142515D01*
X120144090Y-85142512D01*
X120142308Y-85134969D01*
X120143773Y-85134622D01*
X120139409Y-85073651D01*
X120143819Y-85058633D01*
X120144089Y-85057488D01*
X120144088Y-85057488D01*
X120144091Y-85057483D01*
X120150500Y-84997873D01*
X120150499Y-84402128D01*
X120144091Y-84342517D01*
X120144090Y-84342515D01*
X120144090Y-84342512D01*
X120142308Y-84334969D01*
X120143773Y-84334622D01*
X120139409Y-84273651D01*
X120143819Y-84258633D01*
X120144089Y-84257488D01*
X120144088Y-84257488D01*
X120144091Y-84257483D01*
X120150500Y-84197873D01*
X120150499Y-83602128D01*
X120144091Y-83542517D01*
X120120619Y-83479586D01*
X120093797Y-83407671D01*
X120093793Y-83407664D01*
X120007547Y-83292455D01*
X120007544Y-83292452D01*
X119885231Y-83200888D01*
X119887123Y-83198359D01*
X119848732Y-83159942D01*
X119833903Y-83091665D01*
X119858342Y-83026208D01*
X119910129Y-82985992D01*
X119962073Y-82964477D01*
X120121845Y-82857720D01*
X120257720Y-82721845D01*
X120364477Y-82562073D01*
X120438012Y-82384543D01*
X120475500Y-82196078D01*
X120475500Y-82003922D01*
X120475500Y-82003919D01*
X120475499Y-82003917D01*
X120438013Y-81815464D01*
X120438012Y-81815457D01*
X120438010Y-81815452D01*
X120364479Y-81637931D01*
X120364478Y-81637929D01*
X120257720Y-81478155D01*
X120257717Y-81478151D01*
X120121848Y-81342282D01*
X120121844Y-81342279D01*
X119962070Y-81235521D01*
X119962068Y-81235520D01*
X119784547Y-81161989D01*
X119784535Y-81161986D01*
X119596081Y-81124500D01*
X119596078Y-81124500D01*
X119403922Y-81124500D01*
X119403919Y-81124500D01*
X119215464Y-81161986D01*
X119215452Y-81161989D01*
X119037931Y-81235520D01*
X119037929Y-81235521D01*
X118878155Y-81342279D01*
X118878151Y-81342282D01*
X118742282Y-81478151D01*
X118742279Y-81478155D01*
X118635521Y-81637929D01*
X118635520Y-81637931D01*
X118561989Y-81815452D01*
X118561986Y-81815464D01*
X118524500Y-82003917D01*
X118524500Y-82196082D01*
X118561986Y-82384535D01*
X118561989Y-82384547D01*
X118635520Y-82562068D01*
X118635521Y-82562070D01*
X118742279Y-82721844D01*
X118742282Y-82721848D01*
X118878151Y-82857717D01*
X118878155Y-82857720D01*
X118974952Y-82922398D01*
X119019757Y-82976010D01*
X119028464Y-83045335D01*
X118998310Y-83108362D01*
X118938867Y-83145082D01*
X118906061Y-83149500D01*
X118502129Y-83149500D01*
X118502123Y-83149501D01*
X118442516Y-83155908D01*
X118307671Y-83206202D01*
X118307664Y-83206206D01*
X118192455Y-83292452D01*
X118192452Y-83292455D01*
X118106206Y-83407664D01*
X118106202Y-83407671D01*
X118055910Y-83542513D01*
X118055909Y-83542517D01*
X118049500Y-83602127D01*
X118049500Y-83602134D01*
X118049500Y-83602135D01*
X118049500Y-84197870D01*
X118049501Y-84197876D01*
X118055908Y-84257479D01*
X118057692Y-84265026D01*
X118056229Y-84265371D01*
X118060585Y-84326371D01*
X118056173Y-84341396D01*
X118055908Y-84342517D01*
X118050499Y-84392831D01*
X118049501Y-84402123D01*
X118049500Y-84402136D01*
X118049500Y-84997870D01*
X118049501Y-84997876D01*
X118055908Y-85057479D01*
X118057692Y-85065026D01*
X118056229Y-85065371D01*
X118060585Y-85126371D01*
X118056173Y-85141396D01*
X118055908Y-85142517D01*
X118049501Y-85202117D01*
X118049501Y-85202123D01*
X118049500Y-85202136D01*
X118049500Y-85797870D01*
X118049501Y-85797876D01*
X118055909Y-85857487D01*
X118057692Y-85865031D01*
X118056438Y-85865327D01*
X118060856Y-85927069D01*
X118056864Y-85940664D01*
X118056401Y-85942624D01*
X118050000Y-86002155D01*
X118050000Y-86050000D01*
X118087306Y-86050000D01*
X118154345Y-86069685D01*
X118186570Y-86099686D01*
X118192454Y-86107546D01*
X118192455Y-86107546D01*
X118192456Y-86107548D01*
X118314769Y-86199112D01*
X118313070Y-86201381D01*
X118352264Y-86240580D01*
X118367111Y-86308854D01*
X118342690Y-86374317D01*
X118313689Y-86399446D01*
X118314769Y-86400889D01*
X118216080Y-86474767D01*
X118150615Y-86499184D01*
X118141769Y-86499500D01*
X115400097Y-86499500D01*
X115333058Y-86479815D01*
X115312416Y-86463181D01*
X114742590Y-85893355D01*
X114742588Y-85893352D01*
X114623717Y-85774481D01*
X114623716Y-85774480D01*
X114536904Y-85724360D01*
X114536904Y-85724359D01*
X114536900Y-85724358D01*
X114486785Y-85695423D01*
X114334057Y-85654499D01*
X114175943Y-85654499D01*
X114168347Y-85654499D01*
X114168331Y-85654500D01*
X113814091Y-85654500D01*
X113747052Y-85634815D01*
X113701711Y-85582909D01*
X113699037Y-85577175D01*
X113699034Y-85577170D01*
X113563494Y-85383597D01*
X113396402Y-85216506D01*
X113396396Y-85216501D01*
X113210842Y-85086575D01*
X113167217Y-85031998D01*
X113160023Y-84962500D01*
X113191546Y-84900145D01*
X113210842Y-84883425D01*
X113233026Y-84867891D01*
X113396401Y-84753495D01*
X113563495Y-84586401D01*
X113699035Y-84392830D01*
X113798903Y-84178663D01*
X113860063Y-83950408D01*
X113880659Y-83715000D01*
X113860063Y-83479592D01*
X113798903Y-83251337D01*
X113699035Y-83037171D01*
X113677353Y-83006206D01*
X113563496Y-82843600D01*
X113563495Y-82843599D01*
X113441567Y-82721671D01*
X113408084Y-82660351D01*
X113413068Y-82590659D01*
X113454939Y-82534725D01*
X113485915Y-82517810D01*
X113617331Y-82468796D01*
X113732546Y-82382546D01*
X113818796Y-82267331D01*
X113869091Y-82132483D01*
X113875500Y-82072873D01*
X113875499Y-80277128D01*
X113869091Y-80217517D01*
X113818796Y-80082669D01*
X113818795Y-80082668D01*
X113818793Y-80082664D01*
X113732547Y-79967455D01*
X113732544Y-79967452D01*
X113617335Y-79881206D01*
X113617328Y-79881202D01*
X113482482Y-79830908D01*
X113482483Y-79830908D01*
X113422883Y-79824501D01*
X113422881Y-79824500D01*
X113422873Y-79824500D01*
X113422864Y-79824500D01*
X111627129Y-79824500D01*
X111627123Y-79824501D01*
X111567516Y-79830908D01*
X111432671Y-79881202D01*
X111432664Y-79881206D01*
X111317455Y-79967452D01*
X111317452Y-79967455D01*
X111231206Y-80082664D01*
X111231202Y-80082671D01*
X111180908Y-80217517D01*
X111174501Y-80277116D01*
X111174501Y-80277123D01*
X111174500Y-80277135D01*
X111174500Y-81624902D01*
X111154815Y-81691941D01*
X111138181Y-81712583D01*
X107237584Y-85613181D01*
X107176261Y-85646666D01*
X107149903Y-85649500D01*
X107146729Y-85649500D01*
X107103396Y-85641682D01*
X107007482Y-85605908D01*
X107007483Y-85605908D01*
X106947883Y-85599501D01*
X106947881Y-85599500D01*
X106947873Y-85599500D01*
X106947864Y-85599500D01*
X105552129Y-85599500D01*
X105552123Y-85599501D01*
X105492516Y-85605908D01*
X105357671Y-85656202D01*
X105357664Y-85656206D01*
X105242455Y-85742452D01*
X105242452Y-85742455D01*
X105156206Y-85857664D01*
X105156202Y-85857671D01*
X105105978Y-85992331D01*
X105105909Y-85992517D01*
X105099500Y-86052127D01*
X100500500Y-86052127D01*
X100500500Y-83402135D01*
X101399500Y-83402135D01*
X101399500Y-85297870D01*
X101399501Y-85297876D01*
X101405908Y-85357483D01*
X101456202Y-85492328D01*
X101456206Y-85492335D01*
X101542452Y-85607544D01*
X101542455Y-85607547D01*
X101657664Y-85693793D01*
X101657671Y-85693797D01*
X101792517Y-85744091D01*
X101792516Y-85744091D01*
X101799444Y-85744835D01*
X101852127Y-85750500D01*
X104147872Y-85750499D01*
X104207483Y-85744091D01*
X104342331Y-85693796D01*
X104457546Y-85607546D01*
X104543796Y-85492331D01*
X104594091Y-85357483D01*
X104600500Y-85297873D01*
X104600499Y-83402128D01*
X104594091Y-83342517D01*
X104560082Y-83251335D01*
X104543797Y-83207671D01*
X104543793Y-83207664D01*
X104457547Y-83092455D01*
X104457544Y-83092452D01*
X104342335Y-83006206D01*
X104342328Y-83006202D01*
X104207482Y-82955908D01*
X104207483Y-82955908D01*
X104147883Y-82949501D01*
X104147881Y-82949500D01*
X104147873Y-82949500D01*
X104147864Y-82949500D01*
X101852129Y-82949500D01*
X101852123Y-82949501D01*
X101792516Y-82955908D01*
X101657671Y-83006202D01*
X101657664Y-83006206D01*
X101542455Y-83092452D01*
X101542452Y-83092455D01*
X101456206Y-83207664D01*
X101456202Y-83207671D01*
X101405908Y-83342517D01*
X101399501Y-83402116D01*
X101399501Y-83402123D01*
X101399500Y-83402135D01*
X100500500Y-83402135D01*
X100500500Y-77504066D01*
X100500765Y-77495956D01*
X100504819Y-77434108D01*
X100517075Y-77247102D01*
X100519190Y-77231048D01*
X100567045Y-76990462D01*
X100571243Y-76974797D01*
X100594337Y-76906762D01*
X100650093Y-76742512D01*
X100656291Y-76727547D01*
X100764790Y-76507533D01*
X100772893Y-76493498D01*
X100909182Y-76289527D01*
X100919039Y-76276681D01*
X101080786Y-76092244D01*
X101092244Y-76080786D01*
X101276681Y-75919039D01*
X101289527Y-75909182D01*
X101493498Y-75772893D01*
X101507533Y-75764790D01*
X101727547Y-75656291D01*
X101742512Y-75650093D01*
X101906762Y-75594337D01*
X101974797Y-75571243D01*
X101990464Y-75567045D01*
X102231048Y-75519190D01*
X102247102Y-75517075D01*
X102495957Y-75500765D01*
X102504067Y-75500500D01*
X102565892Y-75500500D01*
X103675456Y-75500500D01*
X103675484Y-75500502D01*
X103684111Y-75500502D01*
X103750002Y-75500502D01*
X103750003Y-75500502D01*
X103875201Y-75500501D01*
X104074147Y-75471896D01*
X104123043Y-75464867D01*
X104123044Y-75464866D01*
X104123048Y-75464866D01*
X104363302Y-75394321D01*
X104363305Y-75394319D01*
X104363307Y-75394319D01*
X104389965Y-75382143D01*
X104448098Y-75355594D01*
X104517256Y-75345650D01*
X104565583Y-75363394D01*
X104672304Y-75430452D01*
X104672307Y-75430454D01*
X104672305Y-75430454D01*
X104672309Y-75430455D01*
X104672310Y-75430456D01*
X104744913Y-75455860D01*
X104831943Y-75486314D01*
X104999997Y-75505249D01*
X105000000Y-75505249D01*
X105000003Y-75505249D01*
X105168056Y-75486314D01*
X105168065Y-75486311D01*
X105327690Y-75430456D01*
X105327692Y-75430454D01*
X105327694Y-75430454D01*
X105327697Y-75430452D01*
X105470884Y-75340481D01*
X105470885Y-75340480D01*
X105470890Y-75340477D01*
X105537319Y-75274048D01*
X105598642Y-75240563D01*
X105668334Y-75245547D01*
X105712681Y-75274048D01*
X105779109Y-75340476D01*
X105779115Y-75340481D01*
X105922302Y-75430452D01*
X105922305Y-75430454D01*
X105922309Y-75430455D01*
X105922310Y-75430456D01*
X105994913Y-75455860D01*
X106081943Y-75486314D01*
X106249997Y-75505249D01*
X106250000Y-75505249D01*
X106250003Y-75505249D01*
X106418056Y-75486314D01*
X106418065Y-75486311D01*
X106577690Y-75430456D01*
X106577692Y-75430454D01*
X106577694Y-75430454D01*
X106577697Y-75430452D01*
X106720884Y-75340481D01*
X106720885Y-75340480D01*
X106720890Y-75340477D01*
X106787319Y-75274048D01*
X106848642Y-75240563D01*
X106918334Y-75245547D01*
X106962681Y-75274048D01*
X107029109Y-75340476D01*
X107029115Y-75340481D01*
X107172302Y-75430452D01*
X107172305Y-75430454D01*
X107172309Y-75430455D01*
X107172310Y-75430456D01*
X107244913Y-75455860D01*
X107331943Y-75486314D01*
X107499997Y-75505249D01*
X107500000Y-75505249D01*
X107500003Y-75505249D01*
X107668056Y-75486314D01*
X107668065Y-75486311D01*
X107827690Y-75430456D01*
X107934417Y-75363394D01*
X108001651Y-75344394D01*
X108051896Y-75355593D01*
X108136698Y-75394321D01*
X108376952Y-75464866D01*
X108376953Y-75464866D01*
X108376956Y-75464867D01*
X108444086Y-75474518D01*
X108624799Y-75500501D01*
X108624802Y-75500501D01*
X108684104Y-75500501D01*
X108684106Y-75500502D01*
X108747903Y-75500501D01*
X108749997Y-75500502D01*
X108750025Y-75500502D01*
X108867245Y-75500502D01*
X108867248Y-75500500D01*
X116198640Y-75500500D01*
X116198653Y-75500503D01*
X116250006Y-75500503D01*
X116250006Y-75500504D01*
X116375204Y-75500503D01*
X116596481Y-75468687D01*
X116623046Y-75464868D01*
X116623047Y-75464867D01*
X116623052Y-75464867D01*
X116863305Y-75394322D01*
X116948103Y-75355594D01*
X117017261Y-75345650D01*
X117065588Y-75363394D01*
X117114807Y-75394321D01*
X117172309Y-75430452D01*
X117172307Y-75430452D01*
X117172311Y-75430453D01*
X117172312Y-75430454D01*
X117172318Y-75430456D01*
X117331945Y-75486312D01*
X117499999Y-75505247D01*
X117500002Y-75505247D01*
X117500005Y-75505247D01*
X117668058Y-75486312D01*
X117668061Y-75486311D01*
X117827692Y-75430454D01*
X117827694Y-75430452D01*
X117827696Y-75430452D01*
X117827699Y-75430450D01*
X117970886Y-75340479D01*
X117970887Y-75340478D01*
X117970892Y-75340475D01*
X118037321Y-75274046D01*
X118098644Y-75240561D01*
X118168336Y-75245545D01*
X118212683Y-75274046D01*
X118279111Y-75340474D01*
X118279117Y-75340479D01*
X118422304Y-75430450D01*
X118422307Y-75430452D01*
X118422311Y-75430453D01*
X118422312Y-75430454D01*
X118422318Y-75430456D01*
X118581945Y-75486312D01*
X118749999Y-75505247D01*
X118750002Y-75505247D01*
X118750005Y-75505247D01*
X118918058Y-75486312D01*
X118918061Y-75486311D01*
X119077692Y-75430454D01*
X119077694Y-75430452D01*
X119077696Y-75430452D01*
X119077699Y-75430450D01*
X119220886Y-75340479D01*
X119220887Y-75340478D01*
X119220892Y-75340475D01*
X119287321Y-75274046D01*
X119348644Y-75240561D01*
X119418336Y-75245545D01*
G37*
%TD.AperFunction*%
%TA.AperFunction,Conductor*%
G36*
X122504043Y-48000765D02*
G01*
X122752895Y-48017075D01*
X122768953Y-48019190D01*
X122976105Y-48060395D01*
X123009535Y-48067045D01*
X123025202Y-48071243D01*
X123194947Y-48128863D01*
X123257481Y-48150091D01*
X123272458Y-48156294D01*
X123481799Y-48259529D01*
X123492460Y-48264787D01*
X123506508Y-48272897D01*
X123710464Y-48409177D01*
X123723328Y-48419048D01*
X123907749Y-48580781D01*
X123919218Y-48592250D01*
X124080951Y-48776671D01*
X124090825Y-48789539D01*
X124227102Y-48993492D01*
X124235212Y-49007539D01*
X124343702Y-49227534D01*
X124349909Y-49242520D01*
X124428756Y-49474797D01*
X124432954Y-49490464D01*
X124480807Y-49731035D01*
X124482925Y-49747116D01*
X124499235Y-49995956D01*
X124499500Y-50004066D01*
X124499500Y-69995933D01*
X124499235Y-70004043D01*
X124482925Y-70252883D01*
X124480807Y-70268964D01*
X124432954Y-70509535D01*
X124428756Y-70525202D01*
X124349909Y-70757479D01*
X124343702Y-70772465D01*
X124235212Y-70992460D01*
X124227102Y-71006507D01*
X124090825Y-71210460D01*
X124080951Y-71223328D01*
X123919218Y-71407749D01*
X123907749Y-71419218D01*
X123723328Y-71580951D01*
X123710460Y-71590825D01*
X123506507Y-71727102D01*
X123492460Y-71735212D01*
X123272465Y-71843702D01*
X123257479Y-71849909D01*
X123025202Y-71928756D01*
X123009535Y-71932954D01*
X122768964Y-71980807D01*
X122752883Y-71982925D01*
X122504043Y-71999235D01*
X122495933Y-71999500D01*
X121324550Y-71999500D01*
X121324522Y-71999498D01*
X121315895Y-71999498D01*
X121250003Y-71999498D01*
X121198658Y-71999498D01*
X121198639Y-71999500D01*
X121175481Y-71999500D01*
X121175453Y-71999502D01*
X121124805Y-71999502D01*
X121099797Y-72003097D01*
X120876962Y-72035135D01*
X120876948Y-72035139D01*
X120636715Y-72105676D01*
X120551903Y-72144407D01*
X120482744Y-72154348D01*
X120434422Y-72136605D01*
X120327694Y-72069543D01*
X120327693Y-72069542D01*
X120327692Y-72069542D01*
X120289372Y-72056133D01*
X120168058Y-72013683D01*
X120000005Y-71994749D01*
X119999999Y-71994749D01*
X119831945Y-72013683D01*
X119672307Y-72069543D01*
X119672304Y-72069545D01*
X119529117Y-72159516D01*
X119529111Y-72159521D01*
X119462683Y-72225950D01*
X119401360Y-72259435D01*
X119331668Y-72254451D01*
X119287321Y-72225950D01*
X119220892Y-72159521D01*
X119220886Y-72159516D01*
X119077699Y-72069545D01*
X119077696Y-72069543D01*
X118918058Y-72013683D01*
X118750005Y-71994749D01*
X118749999Y-71994749D01*
X118581945Y-72013683D01*
X118422307Y-72069543D01*
X118422304Y-72069545D01*
X118279117Y-72159516D01*
X118279111Y-72159521D01*
X118212683Y-72225950D01*
X118151360Y-72259435D01*
X118081668Y-72254451D01*
X118037321Y-72225950D01*
X117970892Y-72159521D01*
X117970886Y-72159516D01*
X117827699Y-72069545D01*
X117827696Y-72069543D01*
X117668058Y-72013683D01*
X117500005Y-71994749D01*
X117499999Y-71994749D01*
X117331945Y-72013683D01*
X117172309Y-72069543D01*
X117065585Y-72136603D01*
X116998348Y-72155603D01*
X116948103Y-72144404D01*
X116863304Y-72105678D01*
X116740237Y-72069542D01*
X116623056Y-72035134D01*
X116623045Y-72035131D01*
X116403019Y-72003496D01*
X116375204Y-71999497D01*
X116375202Y-71999496D01*
X116375201Y-71999496D01*
X116250006Y-71999496D01*
X116184113Y-71999496D01*
X116176054Y-71999496D01*
X116175992Y-71999500D01*
X108815892Y-71999500D01*
X108750000Y-71999500D01*
X108624802Y-71999500D01*
X108589167Y-72004623D01*
X108376955Y-72035135D01*
X108376951Y-72035136D01*
X108136708Y-72105676D01*
X108136702Y-72105678D01*
X108051899Y-72144406D01*
X107982740Y-72154349D01*
X107934417Y-72136605D01*
X107827692Y-72069545D01*
X107827691Y-72069544D01*
X107827690Y-72069544D01*
X107789370Y-72056135D01*
X107668056Y-72013685D01*
X107500003Y-71994751D01*
X107499997Y-71994751D01*
X107331943Y-72013685D01*
X107172305Y-72069545D01*
X107172302Y-72069547D01*
X107029115Y-72159518D01*
X107029109Y-72159523D01*
X106962681Y-72225952D01*
X106901358Y-72259437D01*
X106831666Y-72254453D01*
X106787319Y-72225952D01*
X106720890Y-72159523D01*
X106720884Y-72159518D01*
X106577697Y-72069547D01*
X106577694Y-72069545D01*
X106418056Y-72013685D01*
X106250003Y-71994751D01*
X106249997Y-71994751D01*
X106081943Y-72013685D01*
X105922305Y-72069545D01*
X105922302Y-72069547D01*
X105779115Y-72159518D01*
X105779109Y-72159523D01*
X105712681Y-72225952D01*
X105651358Y-72259437D01*
X105581666Y-72254453D01*
X105537319Y-72225952D01*
X105470890Y-72159523D01*
X105470884Y-72159518D01*
X105327697Y-72069547D01*
X105327694Y-72069545D01*
X105168056Y-72013685D01*
X105000003Y-71994751D01*
X104999997Y-71994751D01*
X104831943Y-72013685D01*
X104672307Y-72069545D01*
X104565583Y-72136605D01*
X104498346Y-72155605D01*
X104448100Y-72144405D01*
X104363302Y-72105679D01*
X104240231Y-72069542D01*
X104123053Y-72035135D01*
X104123043Y-72035132D01*
X103900208Y-72003094D01*
X103875201Y-71999499D01*
X103875199Y-71999498D01*
X103750003Y-71999498D01*
X103684111Y-71999498D01*
X103675484Y-71999498D01*
X103675456Y-71999500D01*
X102504067Y-71999500D01*
X102495957Y-71999235D01*
X102247116Y-71982925D01*
X102231035Y-71980807D01*
X101990464Y-71932954D01*
X101974797Y-71928756D01*
X101742520Y-71849909D01*
X101727534Y-71843702D01*
X101507539Y-71735212D01*
X101493492Y-71727102D01*
X101289539Y-71590825D01*
X101276671Y-71580951D01*
X101092250Y-71419218D01*
X101080781Y-71407749D01*
X100919048Y-71223328D01*
X100909174Y-71210460D01*
X100772897Y-71006507D01*
X100764787Y-70992460D01*
X100658855Y-70777652D01*
X100656294Y-70772458D01*
X100650090Y-70757479D01*
X100571243Y-70525202D01*
X100567045Y-70509535D01*
X100559186Y-70470026D01*
X100519190Y-70268953D01*
X100517075Y-70252895D01*
X100500765Y-70004043D01*
X100500500Y-69995933D01*
X100500500Y-53649999D01*
X101894341Y-53649999D01*
X101894341Y-53650000D01*
X101914936Y-53885403D01*
X101914938Y-53885413D01*
X101976094Y-54113655D01*
X101976096Y-54113659D01*
X101976097Y-54113663D01*
X102070193Y-54315452D01*
X102075965Y-54327830D01*
X102075967Y-54327834D01*
X102211501Y-54521395D01*
X102211506Y-54521402D01*
X102378597Y-54688493D01*
X102378603Y-54688498D01*
X102564594Y-54818730D01*
X102608219Y-54873307D01*
X102615413Y-54942805D01*
X102583890Y-55005160D01*
X102564595Y-55021880D01*
X102378922Y-55151890D01*
X102378920Y-55151891D01*
X102211891Y-55318920D01*
X102211886Y-55318926D01*
X102076400Y-55512420D01*
X102076399Y-55512422D01*
X101976570Y-55726507D01*
X101976567Y-55726513D01*
X101919364Y-55939999D01*
X101919364Y-55940000D01*
X102816988Y-55940000D01*
X102784075Y-55997007D01*
X102750000Y-56124174D01*
X102750000Y-56255826D01*
X102784075Y-56382993D01*
X102816988Y-56440000D01*
X101919364Y-56440000D01*
X101976567Y-56653486D01*
X101976570Y-56653492D01*
X102076399Y-56867578D01*
X102211894Y-57061082D01*
X102378917Y-57228105D01*
X102564595Y-57358119D01*
X102608219Y-57412696D01*
X102615412Y-57482195D01*
X102583890Y-57544549D01*
X102564595Y-57561269D01*
X102378594Y-57691508D01*
X102211505Y-57858597D01*
X102075965Y-58052169D01*
X102075964Y-58052171D01*
X101976098Y-58266335D01*
X101976094Y-58266344D01*
X101914938Y-58494586D01*
X101914936Y-58494596D01*
X101894341Y-58729999D01*
X101894341Y-58730000D01*
X101914936Y-58965403D01*
X101914938Y-58965413D01*
X101976094Y-59193655D01*
X101976096Y-59193659D01*
X101976097Y-59193663D01*
X102048839Y-59349658D01*
X102075965Y-59407830D01*
X102075967Y-59407834D01*
X102211501Y-59601395D01*
X102211506Y-59601402D01*
X102378597Y-59768493D01*
X102378603Y-59768498D01*
X102564158Y-59898425D01*
X102607783Y-59953002D01*
X102614977Y-60022500D01*
X102583454Y-60084855D01*
X102564158Y-60101575D01*
X102378597Y-60231505D01*
X102211505Y-60398597D01*
X102075965Y-60592169D01*
X102075964Y-60592171D01*
X101976098Y-60806335D01*
X101976094Y-60806344D01*
X101914938Y-61034586D01*
X101914936Y-61034596D01*
X101894341Y-61269999D01*
X101894341Y-61270000D01*
X101914936Y-61505403D01*
X101914938Y-61505413D01*
X101976094Y-61733655D01*
X101976096Y-61733659D01*
X101976097Y-61733663D01*
X102053247Y-61899111D01*
X102075965Y-61947830D01*
X102075967Y-61947834D01*
X102211501Y-62141395D01*
X102211506Y-62141402D01*
X102378597Y-62308493D01*
X102378603Y-62308498D01*
X102564158Y-62438425D01*
X102607783Y-62493002D01*
X102614977Y-62562500D01*
X102583454Y-62624855D01*
X102564158Y-62641575D01*
X102378597Y-62771505D01*
X102211505Y-62938597D01*
X102075965Y-63132169D01*
X102075964Y-63132171D01*
X101976098Y-63346335D01*
X101976094Y-63346344D01*
X101914938Y-63574586D01*
X101914936Y-63574596D01*
X101894341Y-63809999D01*
X101894341Y-63810000D01*
X101914936Y-64045403D01*
X101914938Y-64045413D01*
X101976094Y-64273655D01*
X101976096Y-64273659D01*
X101976097Y-64273663D01*
X102011927Y-64350500D01*
X102075965Y-64487830D01*
X102075967Y-64487834D01*
X102138823Y-64577601D01*
X102211501Y-64681396D01*
X102211506Y-64681402D01*
X102333430Y-64803326D01*
X102366915Y-64864649D01*
X102361931Y-64934341D01*
X102320059Y-64990274D01*
X102289083Y-65007189D01*
X102157669Y-65056203D01*
X102157664Y-65056206D01*
X102042455Y-65142452D01*
X102042452Y-65142455D01*
X101956206Y-65257664D01*
X101956202Y-65257671D01*
X101905908Y-65392517D01*
X101899501Y-65452116D01*
X101899501Y-65452123D01*
X101899500Y-65452135D01*
X101899500Y-67247870D01*
X101899501Y-67247876D01*
X101905908Y-67307483D01*
X101956202Y-67442328D01*
X101956206Y-67442335D01*
X102042452Y-67557544D01*
X102042455Y-67557547D01*
X102157664Y-67643793D01*
X102157671Y-67643797D01*
X102292517Y-67694091D01*
X102292516Y-67694091D01*
X102299444Y-67694835D01*
X102352127Y-67700500D01*
X104147872Y-67700499D01*
X104207483Y-67694091D01*
X104342331Y-67643796D01*
X104457546Y-67557546D01*
X104543796Y-67442331D01*
X104594091Y-67307483D01*
X104600500Y-67247873D01*
X104600499Y-65452128D01*
X104594091Y-65392517D01*
X104561047Y-65303922D01*
X104543797Y-65257671D01*
X104543793Y-65257664D01*
X104457547Y-65142455D01*
X104457544Y-65142452D01*
X104342335Y-65056206D01*
X104342328Y-65056202D01*
X104210917Y-65007189D01*
X104154983Y-64965318D01*
X104130566Y-64899853D01*
X104145418Y-64831580D01*
X104166563Y-64803332D01*
X104288495Y-64681401D01*
X104424035Y-64487830D01*
X104523903Y-64273663D01*
X104585063Y-64045408D01*
X104605659Y-63810000D01*
X104585241Y-63576631D01*
X104599007Y-63508134D01*
X104621084Y-63478149D01*
X105462417Y-62636819D01*
X105523740Y-62603334D01*
X105550098Y-62600500D01*
X114417588Y-62600500D01*
X114484627Y-62620185D01*
X114494903Y-62627555D01*
X114497736Y-62629814D01*
X114497738Y-62629816D01*
X114650478Y-62725789D01*
X114781127Y-62771505D01*
X114820745Y-62785368D01*
X114820750Y-62785369D01*
X114999996Y-62805565D01*
X115000000Y-62805565D01*
X115000004Y-62805565D01*
X115179249Y-62785369D01*
X115179252Y-62785368D01*
X115179255Y-62785368D01*
X115349522Y-62725789D01*
X115502262Y-62629816D01*
X115629816Y-62502262D01*
X115725789Y-62349522D01*
X115785368Y-62179255D01*
X115794198Y-62100888D01*
X115805565Y-62000003D01*
X115805565Y-61999996D01*
X115798623Y-61938383D01*
X115810678Y-61869561D01*
X115858027Y-61818182D01*
X115921843Y-61800500D01*
X118141769Y-61800500D01*
X118208808Y-61820185D01*
X118216080Y-61825233D01*
X118314769Y-61899111D01*
X118313069Y-61901380D01*
X118352264Y-61940580D01*
X118367111Y-62008854D01*
X118342690Y-62074317D01*
X118313689Y-62099445D01*
X118314769Y-62100888D01*
X118192456Y-62192451D01*
X118192454Y-62192454D01*
X118186571Y-62200312D01*
X118130639Y-62242182D01*
X118087306Y-62250000D01*
X118050000Y-62250000D01*
X118050000Y-62297844D01*
X118056401Y-62357372D01*
X118058187Y-62364930D01*
X118056542Y-62365318D01*
X118060851Y-62425656D01*
X118055943Y-62442371D01*
X118055908Y-62442520D01*
X118050481Y-62493002D01*
X118049501Y-62502123D01*
X118049500Y-62502136D01*
X118049500Y-63097870D01*
X118049501Y-63097876D01*
X118055908Y-63157479D01*
X118057692Y-63165026D01*
X118056229Y-63165371D01*
X118060585Y-63226371D01*
X118056173Y-63241396D01*
X118055908Y-63242517D01*
X118049501Y-63302117D01*
X118049501Y-63302123D01*
X118049500Y-63302136D01*
X118049500Y-63897870D01*
X118049501Y-63897876D01*
X118055908Y-63957483D01*
X118106202Y-64092328D01*
X118106206Y-64092335D01*
X118192452Y-64207544D01*
X118192455Y-64207547D01*
X118307664Y-64293793D01*
X118307671Y-64293797D01*
X118442517Y-64344091D01*
X118442516Y-64344091D01*
X118449444Y-64344835D01*
X118502127Y-64350500D01*
X118906063Y-64350499D01*
X118973100Y-64370183D01*
X119018855Y-64422987D01*
X119028799Y-64492146D01*
X118999774Y-64555702D01*
X118974952Y-64577601D01*
X118878155Y-64642279D01*
X118878151Y-64642282D01*
X118742282Y-64778151D01*
X118742279Y-64778155D01*
X118635521Y-64937929D01*
X118635520Y-64937931D01*
X118561989Y-65115452D01*
X118561986Y-65115464D01*
X118524500Y-65303917D01*
X118524500Y-65496082D01*
X118561986Y-65684535D01*
X118561989Y-65684547D01*
X118635520Y-65862068D01*
X118635521Y-65862070D01*
X118742279Y-66021844D01*
X118742282Y-66021848D01*
X118878151Y-66157717D01*
X118878155Y-66157720D01*
X119037927Y-66264477D01*
X119037928Y-66264477D01*
X119037929Y-66264478D01*
X119037931Y-66264479D01*
X119215452Y-66338010D01*
X119215457Y-66338012D01*
X119403917Y-66375499D01*
X119403920Y-66375500D01*
X119403922Y-66375500D01*
X119596080Y-66375500D01*
X119596081Y-66375499D01*
X119784543Y-66338012D01*
X119962073Y-66264477D01*
X120121845Y-66157720D01*
X120257720Y-66021845D01*
X120364477Y-65862073D01*
X120438012Y-65684543D01*
X120475500Y-65496078D01*
X120475500Y-65303922D01*
X120475500Y-65303919D01*
X120475499Y-65303917D01*
X120443382Y-65142454D01*
X120438012Y-65115457D01*
X120389982Y-64999501D01*
X120364479Y-64937931D01*
X120364478Y-64937929D01*
X120339036Y-64899853D01*
X120257720Y-64778155D01*
X120257717Y-64778151D01*
X120121848Y-64642282D01*
X120121844Y-64642279D01*
X119962070Y-64535521D01*
X119962068Y-64535520D01*
X119910132Y-64514008D01*
X119855728Y-64470167D01*
X119833663Y-64403873D01*
X119850942Y-64336174D01*
X119886959Y-64301421D01*
X119885231Y-64299112D01*
X119965136Y-64239293D01*
X120007546Y-64207546D01*
X120093796Y-64092331D01*
X120144091Y-63957483D01*
X120150500Y-63897873D01*
X120150499Y-63302128D01*
X120144091Y-63242517D01*
X120144090Y-63242515D01*
X120144090Y-63242512D01*
X120142308Y-63234969D01*
X120143773Y-63234622D01*
X120139409Y-63173651D01*
X120143819Y-63158633D01*
X120144089Y-63157488D01*
X120144088Y-63157488D01*
X120144091Y-63157483D01*
X120150500Y-63097873D01*
X120150499Y-62502128D01*
X120144091Y-62442517D01*
X120144091Y-62442516D01*
X120142307Y-62434966D01*
X120143559Y-62434669D01*
X120139145Y-62372924D01*
X120143132Y-62359346D01*
X120143598Y-62357375D01*
X120149999Y-62297844D01*
X120150000Y-62297827D01*
X120150000Y-62250000D01*
X120112694Y-62250000D01*
X120045655Y-62230315D01*
X120013429Y-62200313D01*
X120007546Y-62192454D01*
X120007544Y-62192452D01*
X120007543Y-62192451D01*
X119885231Y-62100888D01*
X119886930Y-62098617D01*
X119847743Y-62059435D01*
X119832886Y-61991163D01*
X119857298Y-61925697D01*
X119886311Y-61900556D01*
X119885231Y-61899112D01*
X120014645Y-61802232D01*
X120016306Y-61804451D01*
X120065149Y-61777781D01*
X120134841Y-61782765D01*
X120179188Y-61811266D01*
X120247738Y-61879816D01*
X120282057Y-61901380D01*
X120355981Y-61947830D01*
X120400478Y-61975789D01*
X120570745Y-62035368D01*
X120570750Y-62035369D01*
X120749996Y-62055565D01*
X120750000Y-62055565D01*
X120750004Y-62055565D01*
X120929249Y-62035369D01*
X120929252Y-62035368D01*
X120929255Y-62035368D01*
X121099522Y-61975789D01*
X121252262Y-61879816D01*
X121295259Y-61836819D01*
X121356582Y-61803334D01*
X121382940Y-61800500D01*
X121941769Y-61800500D01*
X122008808Y-61820185D01*
X122016080Y-61825233D01*
X122114769Y-61899111D01*
X122113069Y-61901380D01*
X122152264Y-61940580D01*
X122167111Y-62008854D01*
X122142690Y-62074317D01*
X122113689Y-62099445D01*
X122114769Y-62100888D01*
X121992456Y-62192451D01*
X121992454Y-62192454D01*
X121986571Y-62200312D01*
X121930639Y-62242182D01*
X121887306Y-62250000D01*
X121850000Y-62250000D01*
X121850000Y-62297844D01*
X121856401Y-62357372D01*
X121858187Y-62364930D01*
X121856542Y-62365318D01*
X121860851Y-62425656D01*
X121855943Y-62442371D01*
X121855908Y-62442520D01*
X121850481Y-62493002D01*
X121849501Y-62502123D01*
X121849500Y-62502136D01*
X121849500Y-63097870D01*
X121849501Y-63097876D01*
X121855908Y-63157479D01*
X121857692Y-63165026D01*
X121856229Y-63165371D01*
X121860585Y-63226371D01*
X121856173Y-63241396D01*
X121855908Y-63242517D01*
X121849501Y-63302117D01*
X121849501Y-63302123D01*
X121849500Y-63302136D01*
X121849500Y-63897870D01*
X121849501Y-63897876D01*
X121855908Y-63957483D01*
X121906202Y-64092328D01*
X121906206Y-64092335D01*
X121992452Y-64207544D01*
X121992455Y-64207547D01*
X122107664Y-64293793D01*
X122107671Y-64293797D01*
X122242517Y-64344091D01*
X122242516Y-64344091D01*
X122249444Y-64344835D01*
X122302127Y-64350500D01*
X123497872Y-64350499D01*
X123557483Y-64344091D01*
X123692331Y-64293796D01*
X123807546Y-64207546D01*
X123893796Y-64092331D01*
X123944091Y-63957483D01*
X123950500Y-63897873D01*
X123950499Y-63302128D01*
X123944091Y-63242517D01*
X123944090Y-63242515D01*
X123944090Y-63242512D01*
X123942308Y-63234969D01*
X123943773Y-63234622D01*
X123939409Y-63173651D01*
X123943819Y-63158633D01*
X123944089Y-63157488D01*
X123944088Y-63157488D01*
X123944091Y-63157483D01*
X123950500Y-63097873D01*
X123950499Y-62502128D01*
X123944091Y-62442517D01*
X123944091Y-62442516D01*
X123942307Y-62434966D01*
X123943559Y-62434669D01*
X123939145Y-62372924D01*
X123943132Y-62359346D01*
X123943598Y-62357375D01*
X123949999Y-62297844D01*
X123950000Y-62297827D01*
X123950000Y-62250000D01*
X123912694Y-62250000D01*
X123845655Y-62230315D01*
X123813429Y-62200313D01*
X123807546Y-62192454D01*
X123807544Y-62192452D01*
X123807543Y-62192451D01*
X123685231Y-62100888D01*
X123686930Y-62098617D01*
X123647743Y-62059435D01*
X123632886Y-61991163D01*
X123657298Y-61925697D01*
X123686311Y-61900556D01*
X123685231Y-61899112D01*
X123793338Y-61818182D01*
X123807546Y-61807546D01*
X123813428Y-61799687D01*
X123869361Y-61757818D01*
X123912694Y-61750000D01*
X123950000Y-61750000D01*
X123950000Y-61702172D01*
X123949999Y-61702155D01*
X123943598Y-61642627D01*
X123941814Y-61635076D01*
X123943459Y-61634687D01*
X123939143Y-61574361D01*
X123944058Y-61557619D01*
X123944089Y-61557489D01*
X123944089Y-61557488D01*
X123944091Y-61557483D01*
X123950500Y-61497873D01*
X123950499Y-60902128D01*
X123944091Y-60842517D01*
X123944090Y-60842515D01*
X123944090Y-60842512D01*
X123942308Y-60834969D01*
X123943773Y-60834622D01*
X123939409Y-60773651D01*
X123943819Y-60758633D01*
X123944089Y-60757488D01*
X123944088Y-60757488D01*
X123944091Y-60757483D01*
X123950500Y-60697873D01*
X123950499Y-60102128D01*
X123944091Y-60042517D01*
X123944090Y-60042515D01*
X123944090Y-60042512D01*
X123942308Y-60034969D01*
X123943773Y-60034622D01*
X123939409Y-59973651D01*
X123943819Y-59958633D01*
X123944089Y-59957488D01*
X123944088Y-59957488D01*
X123944091Y-59957483D01*
X123950500Y-59897873D01*
X123950499Y-59302128D01*
X123944091Y-59242517D01*
X123944091Y-59242516D01*
X123942307Y-59234966D01*
X123943559Y-59234669D01*
X123939145Y-59172924D01*
X123943132Y-59159346D01*
X123943598Y-59157375D01*
X123949999Y-59097844D01*
X123950000Y-59097827D01*
X123950000Y-59050000D01*
X123912694Y-59050000D01*
X123845655Y-59030315D01*
X123813429Y-59000313D01*
X123807546Y-58992454D01*
X123807544Y-58992452D01*
X123807543Y-58992451D01*
X123685231Y-58900888D01*
X123686930Y-58898617D01*
X123647743Y-58859435D01*
X123632886Y-58791163D01*
X123657298Y-58725697D01*
X123686311Y-58700556D01*
X123685231Y-58699112D01*
X123807543Y-58607548D01*
X123807542Y-58607548D01*
X123807546Y-58607546D01*
X123813428Y-58599687D01*
X123869361Y-58557818D01*
X123912694Y-58550000D01*
X123950000Y-58550000D01*
X123950000Y-58502172D01*
X123949999Y-58502155D01*
X123943598Y-58442627D01*
X123941814Y-58435076D01*
X123943459Y-58434687D01*
X123939143Y-58374361D01*
X123944058Y-58357619D01*
X123944089Y-58357489D01*
X123944089Y-58357488D01*
X123944091Y-58357483D01*
X123950500Y-58297873D01*
X123950499Y-57702128D01*
X123944091Y-57642517D01*
X123944090Y-57642515D01*
X123944090Y-57642512D01*
X123942308Y-57634969D01*
X123943773Y-57634622D01*
X123939409Y-57573651D01*
X123943819Y-57558633D01*
X123944089Y-57557488D01*
X123944088Y-57557488D01*
X123944091Y-57557483D01*
X123950500Y-57497873D01*
X123950499Y-56902128D01*
X123944091Y-56842517D01*
X123944090Y-56842515D01*
X123944090Y-56842512D01*
X123942308Y-56834969D01*
X123943773Y-56834622D01*
X123939409Y-56773651D01*
X123943819Y-56758633D01*
X123944089Y-56757488D01*
X123944088Y-56757488D01*
X123944091Y-56757483D01*
X123950500Y-56697873D01*
X123950499Y-56102128D01*
X123944091Y-56042517D01*
X123905854Y-55939999D01*
X123893797Y-55907671D01*
X123893793Y-55907664D01*
X123807547Y-55792455D01*
X123807544Y-55792452D01*
X123692335Y-55706206D01*
X123692328Y-55706202D01*
X123557482Y-55655908D01*
X123557483Y-55655908D01*
X123497883Y-55649501D01*
X123497881Y-55649500D01*
X123497873Y-55649500D01*
X123497864Y-55649500D01*
X122302129Y-55649500D01*
X122302123Y-55649501D01*
X122242516Y-55655908D01*
X122107671Y-55706202D01*
X122107664Y-55706206D01*
X121992455Y-55792452D01*
X121992452Y-55792455D01*
X121906206Y-55907664D01*
X121906202Y-55907671D01*
X121855910Y-56042513D01*
X121855909Y-56042517D01*
X121849500Y-56102127D01*
X121849500Y-56102134D01*
X121849500Y-56102135D01*
X121849500Y-56697870D01*
X121849501Y-56697876D01*
X121855908Y-56757479D01*
X121857692Y-56765026D01*
X121856229Y-56765371D01*
X121860585Y-56826371D01*
X121856173Y-56841396D01*
X121855908Y-56842517D01*
X121849501Y-56902117D01*
X121849501Y-56902123D01*
X121849500Y-56902136D01*
X121849500Y-57497870D01*
X121849501Y-57497876D01*
X121855908Y-57557479D01*
X121857692Y-57565026D01*
X121856229Y-57565371D01*
X121860585Y-57626371D01*
X121856173Y-57641396D01*
X121855908Y-57642517D01*
X121849501Y-57702117D01*
X121849501Y-57702123D01*
X121849500Y-57702136D01*
X121849500Y-58297870D01*
X121849501Y-58297876D01*
X121855909Y-58357487D01*
X121857692Y-58365031D01*
X121856438Y-58365327D01*
X121860856Y-58427069D01*
X121856864Y-58440664D01*
X121856401Y-58442624D01*
X121850000Y-58502155D01*
X121850000Y-58550000D01*
X121887306Y-58550000D01*
X121954345Y-58569685D01*
X121986570Y-58599686D01*
X121992454Y-58607546D01*
X121992455Y-58607546D01*
X121992456Y-58607548D01*
X122114769Y-58699112D01*
X122113070Y-58701381D01*
X122152264Y-58740580D01*
X122167111Y-58808854D01*
X122142690Y-58874317D01*
X122113689Y-58899445D01*
X122114769Y-58900888D01*
X121992456Y-58992451D01*
X121992454Y-58992454D01*
X121986571Y-59000312D01*
X121930639Y-59042182D01*
X121887306Y-59050000D01*
X121850000Y-59050000D01*
X121850000Y-59097844D01*
X121856401Y-59157372D01*
X121858187Y-59164930D01*
X121856542Y-59165318D01*
X121860851Y-59225656D01*
X121855943Y-59242371D01*
X121855908Y-59242520D01*
X121849501Y-59302117D01*
X121849501Y-59302123D01*
X121849500Y-59302136D01*
X121849500Y-59897870D01*
X121849501Y-59897876D01*
X121855908Y-59957479D01*
X121857692Y-59965026D01*
X121856229Y-59965371D01*
X121860585Y-60026371D01*
X121856173Y-60041396D01*
X121855908Y-60042517D01*
X121849780Y-60099522D01*
X121849501Y-60102123D01*
X121849500Y-60102136D01*
X121849501Y-60475500D01*
X121829817Y-60542539D01*
X121777013Y-60588294D01*
X121725501Y-60599500D01*
X121255068Y-60599500D01*
X121189096Y-60580494D01*
X121099522Y-60524210D01*
X121099518Y-60524209D01*
X120929262Y-60464633D01*
X120929249Y-60464630D01*
X120750004Y-60444435D01*
X120749996Y-60444435D01*
X120570750Y-60464630D01*
X120570745Y-60464631D01*
X120400474Y-60524212D01*
X120340470Y-60561915D01*
X120273233Y-60580915D01*
X120206398Y-60560547D01*
X120161185Y-60507279D01*
X120150499Y-60456923D01*
X120150499Y-60102128D01*
X120144091Y-60042517D01*
X120144090Y-60042515D01*
X120144090Y-60042512D01*
X120142308Y-60034969D01*
X120143773Y-60034622D01*
X120139409Y-59973651D01*
X120143819Y-59958633D01*
X120144089Y-59957488D01*
X120144088Y-59957488D01*
X120144091Y-59957483D01*
X120150500Y-59897873D01*
X120150499Y-59302128D01*
X120144091Y-59242517D01*
X120144091Y-59242516D01*
X120142307Y-59234966D01*
X120143559Y-59234669D01*
X120139145Y-59172924D01*
X120143132Y-59159346D01*
X120143598Y-59157375D01*
X120149999Y-59097844D01*
X120150000Y-59097827D01*
X120150000Y-59050000D01*
X120112694Y-59050000D01*
X120045655Y-59030315D01*
X120013429Y-59000313D01*
X120007546Y-58992454D01*
X120007544Y-58992452D01*
X120007543Y-58992451D01*
X119885231Y-58900888D01*
X119886930Y-58898617D01*
X119847743Y-58859435D01*
X119832886Y-58791163D01*
X119857298Y-58725697D01*
X119886311Y-58700556D01*
X119885231Y-58699112D01*
X120007543Y-58607548D01*
X120007542Y-58607548D01*
X120007546Y-58607546D01*
X120013428Y-58599687D01*
X120069361Y-58557818D01*
X120112694Y-58550000D01*
X120150000Y-58550000D01*
X120150000Y-58502172D01*
X120149999Y-58502155D01*
X120143598Y-58442627D01*
X120141814Y-58435076D01*
X120143459Y-58434687D01*
X120139143Y-58374361D01*
X120144058Y-58357619D01*
X120144089Y-58357489D01*
X120144089Y-58357488D01*
X120144091Y-58357483D01*
X120150500Y-58297873D01*
X120150499Y-57702128D01*
X120144091Y-57642517D01*
X120144090Y-57642515D01*
X120144090Y-57642512D01*
X120142308Y-57634969D01*
X120143773Y-57634622D01*
X120139409Y-57573651D01*
X120143819Y-57558633D01*
X120144089Y-57557488D01*
X120144088Y-57557488D01*
X120144091Y-57557483D01*
X120150500Y-57497873D01*
X120150499Y-56902128D01*
X120144091Y-56842517D01*
X120144090Y-56842515D01*
X120144090Y-56842512D01*
X120142308Y-56834969D01*
X120143773Y-56834622D01*
X120139409Y-56773651D01*
X120143819Y-56758633D01*
X120144089Y-56757488D01*
X120144088Y-56757488D01*
X120144091Y-56757483D01*
X120150500Y-56697873D01*
X120150499Y-56102128D01*
X120144091Y-56042517D01*
X120105854Y-55939999D01*
X120093797Y-55907671D01*
X120093793Y-55907664D01*
X120007547Y-55792455D01*
X120007544Y-55792452D01*
X119885231Y-55700888D01*
X119887123Y-55698359D01*
X119848732Y-55659942D01*
X119833903Y-55591665D01*
X119858342Y-55526208D01*
X119910129Y-55485992D01*
X119962073Y-55464477D01*
X120121845Y-55357720D01*
X120257720Y-55221845D01*
X120364477Y-55062073D01*
X120438012Y-54884543D01*
X120475500Y-54696078D01*
X120475500Y-54503922D01*
X120475500Y-54503919D01*
X120475499Y-54503917D01*
X120438013Y-54315464D01*
X120438012Y-54315457D01*
X120364477Y-54137927D01*
X120257720Y-53978155D01*
X120257717Y-53978151D01*
X120121848Y-53842282D01*
X120121844Y-53842279D01*
X119962070Y-53735521D01*
X119962068Y-53735520D01*
X119784547Y-53661989D01*
X119784535Y-53661986D01*
X119596081Y-53624500D01*
X119596078Y-53624500D01*
X119403922Y-53624500D01*
X119403919Y-53624500D01*
X119215464Y-53661986D01*
X119215452Y-53661989D01*
X119037931Y-53735520D01*
X119037929Y-53735521D01*
X118878155Y-53842279D01*
X118878151Y-53842282D01*
X118742282Y-53978151D01*
X118742279Y-53978155D01*
X118635521Y-54137929D01*
X118635520Y-54137931D01*
X118561989Y-54315452D01*
X118561986Y-54315464D01*
X118524500Y-54503917D01*
X118524500Y-54696082D01*
X118561986Y-54884535D01*
X118561989Y-54884547D01*
X118635520Y-55062068D01*
X118635521Y-55062070D01*
X118742279Y-55221844D01*
X118742282Y-55221848D01*
X118878151Y-55357717D01*
X118878155Y-55357720D01*
X118974952Y-55422398D01*
X119019757Y-55476010D01*
X119028464Y-55545335D01*
X118998310Y-55608362D01*
X118938867Y-55645082D01*
X118906061Y-55649500D01*
X118502129Y-55649500D01*
X118502123Y-55649501D01*
X118442516Y-55655908D01*
X118307671Y-55706202D01*
X118307664Y-55706206D01*
X118192455Y-55792452D01*
X118192452Y-55792455D01*
X118106206Y-55907664D01*
X118106202Y-55907671D01*
X118055910Y-56042513D01*
X118055909Y-56042517D01*
X118049500Y-56102127D01*
X118049500Y-56102134D01*
X118049500Y-56102135D01*
X118049500Y-56697870D01*
X118049501Y-56697876D01*
X118055908Y-56757479D01*
X118057692Y-56765026D01*
X118056229Y-56765371D01*
X118060585Y-56826371D01*
X118056173Y-56841396D01*
X118055908Y-56842517D01*
X118049501Y-56902117D01*
X118049501Y-56902123D01*
X118049500Y-56902136D01*
X118049500Y-57497870D01*
X118049501Y-57497876D01*
X118055908Y-57557479D01*
X118057692Y-57565026D01*
X118056229Y-57565371D01*
X118060585Y-57626371D01*
X118056173Y-57641396D01*
X118055908Y-57642517D01*
X118049501Y-57702117D01*
X118049501Y-57702123D01*
X118049500Y-57702136D01*
X118049500Y-58297870D01*
X118049501Y-58297876D01*
X118055909Y-58357487D01*
X118057692Y-58365031D01*
X118056438Y-58365327D01*
X118060856Y-58427069D01*
X118056864Y-58440664D01*
X118056401Y-58442624D01*
X118050000Y-58502155D01*
X118050000Y-58550000D01*
X118087306Y-58550000D01*
X118154345Y-58569685D01*
X118186570Y-58599686D01*
X118192454Y-58607546D01*
X118192455Y-58607546D01*
X118192456Y-58607548D01*
X118314769Y-58699112D01*
X118313070Y-58701381D01*
X118352264Y-58740580D01*
X118367111Y-58808854D01*
X118342690Y-58874317D01*
X118313689Y-58899446D01*
X118314769Y-58900889D01*
X118216080Y-58974767D01*
X118150615Y-58999184D01*
X118141769Y-58999500D01*
X114400098Y-58999500D01*
X114333059Y-58979815D01*
X114312417Y-58963181D01*
X113717590Y-58368355D01*
X113717588Y-58368352D01*
X113598717Y-58249481D01*
X113598716Y-58249480D01*
X113511904Y-58199360D01*
X113511904Y-58199359D01*
X113511900Y-58199358D01*
X113461785Y-58170423D01*
X113309057Y-58129499D01*
X113150943Y-58129499D01*
X113143347Y-58129499D01*
X113143331Y-58129500D01*
X104539091Y-58129500D01*
X104472052Y-58109815D01*
X104426711Y-58057909D01*
X104424037Y-58052175D01*
X104424034Y-58052170D01*
X104424033Y-58052169D01*
X104288495Y-57858599D01*
X104288494Y-57858597D01*
X104121402Y-57691506D01*
X104121401Y-57691505D01*
X103941263Y-57565371D01*
X103935405Y-57561269D01*
X103891781Y-57506692D01*
X103884588Y-57437193D01*
X103916110Y-57374839D01*
X103935405Y-57358119D01*
X104121082Y-57228105D01*
X104288105Y-57061082D01*
X104423600Y-56867578D01*
X104523429Y-56653492D01*
X104523432Y-56653486D01*
X104580636Y-56440000D01*
X103683012Y-56440000D01*
X103715925Y-56382993D01*
X103750000Y-56255826D01*
X103750000Y-56124174D01*
X103715925Y-55997007D01*
X103683012Y-55940000D01*
X104580636Y-55940000D01*
X104580635Y-55939999D01*
X104523432Y-55726513D01*
X104523429Y-55726507D01*
X104423600Y-55512422D01*
X104423599Y-55512420D01*
X104288113Y-55318926D01*
X104288108Y-55318920D01*
X104121078Y-55151890D01*
X103935405Y-55021879D01*
X103891780Y-54967302D01*
X103884588Y-54897804D01*
X103916110Y-54835449D01*
X103935406Y-54818730D01*
X104121401Y-54688495D01*
X104288495Y-54521401D01*
X104424035Y-54327830D01*
X104523903Y-54113663D01*
X104585063Y-53885408D01*
X104605659Y-53650000D01*
X104585063Y-53414592D01*
X104523903Y-53186337D01*
X104424035Y-52972171D01*
X104288495Y-52778599D01*
X104288494Y-52778597D01*
X104121402Y-52611506D01*
X104121395Y-52611501D01*
X103927834Y-52475967D01*
X103927830Y-52475965D01*
X103927828Y-52475964D01*
X103713663Y-52376097D01*
X103713659Y-52376096D01*
X103713655Y-52376094D01*
X103485413Y-52314938D01*
X103485403Y-52314936D01*
X103250001Y-52294341D01*
X103249999Y-52294341D01*
X103014596Y-52314936D01*
X103014586Y-52314938D01*
X102786344Y-52376094D01*
X102786335Y-52376098D01*
X102572171Y-52475964D01*
X102572169Y-52475965D01*
X102378597Y-52611505D01*
X102211505Y-52778597D01*
X102075965Y-52972169D01*
X102075964Y-52972171D01*
X101976098Y-53186335D01*
X101976094Y-53186344D01*
X101914938Y-53414586D01*
X101914936Y-53414596D01*
X101894341Y-53649999D01*
X100500500Y-53649999D01*
X100500500Y-50004066D01*
X100500765Y-49995956D01*
X100504819Y-49934108D01*
X100517075Y-49747102D01*
X100519190Y-49731048D01*
X100567045Y-49490462D01*
X100571243Y-49474797D01*
X100594337Y-49406762D01*
X100650093Y-49242512D01*
X100656291Y-49227547D01*
X100764790Y-49007533D01*
X100772893Y-48993498D01*
X100909182Y-48789527D01*
X100919039Y-48776681D01*
X101080786Y-48592244D01*
X101092244Y-48580786D01*
X101276681Y-48419039D01*
X101289527Y-48409182D01*
X101493498Y-48272893D01*
X101507533Y-48264790D01*
X101727547Y-48156291D01*
X101742512Y-48150093D01*
X101906762Y-48094337D01*
X101974797Y-48071243D01*
X101990464Y-48067045D01*
X102231048Y-48019190D01*
X102247102Y-48017075D01*
X102495957Y-48000765D01*
X102504067Y-48000500D01*
X102565892Y-48000500D01*
X122434108Y-48000500D01*
X122495933Y-48000500D01*
X122504043Y-48000765D01*
G37*
%TD.AperFunction*%
%TD*%
M02*
