%TF.GenerationSoftware,KiCad,Pcbnew,8.0.3*%
%TF.CreationDate,2024-07-26T09:17:04-04:00*%
%TF.ProjectId,touch_adaptor,746f7563-685f-4616-9461-70746f722e6b,rev?*%
%TF.SameCoordinates,Original*%
%TF.FileFunction,Drillmap*%
%TF.FilePolarity,Positive*%
%FSLAX45Y45*%
G04 Gerber Fmt 4.5, Leading zero omitted, Abs format (unit mm)*
G04 Created by KiCad (PCBNEW 8.0.3) date 2024-07-26 09:17:04*
%MOMM*%
%LPD*%
G01*
G04 APERTURE LIST*
%ADD10C,0.050000*%
%ADD11C,0.200000*%
%ADD12C,0.100000*%
G04 APERTURE END LIST*
D10*
X11775000Y-7475000D02*
G75*
G02*
X11725000Y-7475000I-25000J0D01*
G01*
X11725000Y-7475000D02*
G75*
G02*
X11775000Y-7475000I25000J0D01*
G01*
X11750000Y-7375000D02*
G75*
G02*
X11625000Y-7500000I-125000J0D01*
G01*
X12125000Y-7500000D02*
G75*
G02*
X12000000Y-7375000I0J125000D01*
G01*
X11625000Y-7250000D02*
G75*
G02*
X11750000Y-7375000I0J-125000D01*
G01*
X12000000Y-7375000D02*
G75*
G02*
X12125000Y-7250000I125000J0D01*
G01*
X11775000Y-7275000D02*
G75*
G02*
X11725000Y-7275000I-25000J0D01*
G01*
X11725000Y-7275000D02*
G75*
G02*
X11775000Y-7275000I25000J0D01*
G01*
X12025000Y-7475000D02*
G75*
G02*
X11975000Y-7475000I-25000J0D01*
G01*
X11975000Y-7475000D02*
G75*
G02*
X12025000Y-7475000I25000J0D01*
G01*
X11900000Y-7475000D02*
G75*
G02*
X11850000Y-7475000I-25000J0D01*
G01*
X11850000Y-7475000D02*
G75*
G02*
X11900000Y-7475000I25000J0D01*
G01*
X12025000Y-7275000D02*
G75*
G02*
X11975000Y-7275000I-25000J0D01*
G01*
X11975000Y-7275000D02*
G75*
G02*
X12025000Y-7275000I25000J0D01*
G01*
X11900000Y-7275000D02*
G75*
G02*
X11850000Y-7275000I-25000J0D01*
G01*
X11850000Y-7275000D02*
G75*
G02*
X11900000Y-7275000I25000J0D01*
G01*
X10375000Y-7250000D02*
G75*
G02*
X10500000Y-7375000I0J-125000D01*
G01*
X10500000Y-7375000D02*
G75*
G02*
X10375000Y-7500000I-125000J0D01*
G01*
X10875000Y-7500000D02*
G75*
G02*
X10750000Y-7375000I0J125000D01*
G01*
X10750000Y-7375000D02*
G75*
G02*
X10875000Y-7250000I125000J0D01*
G01*
X10525000Y-7275000D02*
G75*
G02*
X10475000Y-7275000I-25000J0D01*
G01*
X10475000Y-7275000D02*
G75*
G02*
X10525000Y-7275000I25000J0D01*
G01*
X10775000Y-7275000D02*
G75*
G02*
X10725000Y-7275000I-25000J0D01*
G01*
X10725000Y-7275000D02*
G75*
G02*
X10775000Y-7275000I25000J0D01*
G01*
X10650000Y-7275000D02*
G75*
G02*
X10600000Y-7275000I-25000J0D01*
G01*
X10600000Y-7275000D02*
G75*
G02*
X10650000Y-7275000I25000J0D01*
G01*
X10650000Y-7475000D02*
G75*
G02*
X10600000Y-7475000I-25000J0D01*
G01*
X10600000Y-7475000D02*
G75*
G02*
X10650000Y-7475000I25000J0D01*
G01*
X10775000Y-7475000D02*
G75*
G02*
X10725000Y-7475000I-25000J0D01*
G01*
X10725000Y-7475000D02*
G75*
G02*
X10775000Y-7475000I25000J0D01*
G01*
X10525000Y-7475000D02*
G75*
G02*
X10475000Y-7475000I-25000J0D01*
G01*
X10475000Y-7475000D02*
G75*
G02*
X10525000Y-7475000I25000J0D01*
G01*
X12250000Y-7500000D02*
X12125000Y-7500000D01*
X12250000Y-7250000D02*
X12125000Y-7250000D01*
X11625000Y-7500000D02*
X10875000Y-7500000D01*
X11625000Y-7250000D02*
X10875000Y-7250000D01*
X10375000Y-7500000D02*
X10250000Y-7500000D01*
X10375000Y-7250000D02*
X10250000Y-7250000D01*
X10250000Y-10000000D02*
G75*
G02*
X10000000Y-9750000I0J250000D01*
G01*
X10000000Y-7750000D02*
G75*
G02*
X10250000Y-7500000I250000J0D01*
G01*
X10000000Y-5000000D02*
X10000000Y-7000000D01*
X10000000Y-7750000D02*
X10000000Y-9750000D01*
X10250000Y-7250000D02*
G75*
G02*
X10000000Y-7000000I0J250000D01*
G01*
X12250000Y-7500000D02*
G75*
G02*
X12500000Y-7750000I0J-250000D01*
G01*
X10000000Y-5000000D02*
G75*
G02*
X10250000Y-4750000I250000J0D01*
G01*
X12500000Y-7000000D02*
X12500000Y-5000000D01*
X10250000Y-10000000D02*
X12250000Y-10000000D01*
X12500000Y-7000000D02*
G75*
G02*
X12250000Y-7250000I-250000J0D01*
G01*
X12500000Y-9750000D02*
X12500000Y-7750000D01*
X12250000Y-4750000D02*
X10250000Y-4750000D01*
X12500000Y-9750000D02*
G75*
G02*
X12250000Y-10000000I-250000J0D01*
G01*
X12250000Y-4750000D02*
G75*
G02*
X12500000Y-5000000I0J-250000D01*
G01*
D11*
D12*
X10110000Y-5610000D02*
X10140000Y-5640000D01*
X10140000Y-5610000D02*
X10110000Y-5640000D01*
X10460000Y-8760000D02*
X10490000Y-8790000D01*
X10490000Y-8760000D02*
X10460000Y-8790000D01*
X10510000Y-5610000D02*
X10540000Y-5640000D01*
X10540000Y-5610000D02*
X10510000Y-5640000D01*
X10910000Y-8760000D02*
X10940000Y-8790000D01*
X10940000Y-8760000D02*
X10910000Y-8790000D01*
X11035000Y-8760000D02*
X11065000Y-8790000D01*
X11065000Y-8760000D02*
X11035000Y-8790000D01*
X11235000Y-5960000D02*
X11265000Y-5990000D01*
X11265000Y-5960000D02*
X11235000Y-5990000D01*
X11410000Y-8985000D02*
X11440000Y-9015000D01*
X11440000Y-8985000D02*
X11410000Y-9015000D01*
X11410000Y-9235000D02*
X11440000Y-9265000D01*
X11440000Y-9235000D02*
X11410000Y-9265000D01*
X11485000Y-6185000D02*
X11515000Y-6215000D01*
X11515000Y-6185000D02*
X11485000Y-6215000D01*
X11710000Y-5860000D02*
X11740000Y-5890000D01*
X11740000Y-5860000D02*
X11710000Y-5890000D01*
X11710000Y-6185000D02*
X11740000Y-6215000D01*
X11740000Y-6185000D02*
X11710000Y-6215000D01*
X11710000Y-8855000D02*
X11740000Y-8885000D01*
X11740000Y-8855000D02*
X11710000Y-8885000D01*
X11735000Y-8560000D02*
X11765000Y-8590000D01*
X11765000Y-8560000D02*
X11735000Y-8590000D01*
X11735000Y-9035000D02*
X11765000Y-9065000D01*
X11765000Y-9035000D02*
X11735000Y-9065000D01*
X12060000Y-6110000D02*
X12090000Y-6140000D01*
X12090000Y-6110000D02*
X12060000Y-6140000D01*
X12085000Y-5860000D02*
X12115000Y-5890000D01*
X12115000Y-5860000D02*
X12085000Y-5890000D01*
X12085000Y-8610000D02*
X12115000Y-8640000D01*
X12115000Y-8610000D02*
X12085000Y-8640000D01*
X12110000Y-6185000D02*
X12140000Y-6215000D01*
X12140000Y-6185000D02*
X12110000Y-6215000D01*
X12135000Y-8860000D02*
X12165000Y-8890000D01*
X12165000Y-8860000D02*
X12135000Y-8890000D01*
X12135000Y-8985000D02*
X12165000Y-9015000D01*
X12165000Y-8985000D02*
X12135000Y-9015000D01*
X12135000Y-9095000D02*
X12165000Y-9125000D01*
X12165000Y-9095000D02*
X12135000Y-9125000D01*
X10375000Y-5365000D02*
G75*
G02*
X10275000Y-5365000I-50000J0D01*
G01*
X10275000Y-5365000D02*
G75*
G02*
X10375000Y-5365000I50000J0D01*
G01*
X10375000Y-5619000D02*
G75*
G02*
X10275000Y-5619000I-50000J0D01*
G01*
X10275000Y-5619000D02*
G75*
G02*
X10375000Y-5619000I50000J0D01*
G01*
X10375000Y-5873000D02*
G75*
G02*
X10275000Y-5873000I-50000J0D01*
G01*
X10275000Y-5873000D02*
G75*
G02*
X10375000Y-5873000I50000J0D01*
G01*
X10375000Y-6127000D02*
G75*
G02*
X10275000Y-6127000I-50000J0D01*
G01*
X10275000Y-6127000D02*
G75*
G02*
X10375000Y-6127000I50000J0D01*
G01*
X10375000Y-6381000D02*
G75*
G02*
X10275000Y-6381000I-50000J0D01*
G01*
X10275000Y-6381000D02*
G75*
G02*
X10375000Y-6381000I50000J0D01*
G01*
X10375000Y-6635000D02*
G75*
G02*
X10275000Y-6635000I-50000J0D01*
G01*
X10275000Y-6635000D02*
G75*
G02*
X10375000Y-6635000I50000J0D01*
G01*
X11302500Y-8117500D02*
G75*
G02*
X11202500Y-8117500I-50000J0D01*
G01*
X11202500Y-8117500D02*
G75*
G02*
X11302500Y-8117500I50000J0D01*
G01*
X11302500Y-8371500D02*
G75*
G02*
X11202500Y-8371500I-50000J0D01*
G01*
X11202500Y-8371500D02*
G75*
G02*
X11302500Y-8371500I50000J0D01*
G01*
X11302500Y-8625500D02*
G75*
G02*
X11202500Y-8625500I-50000J0D01*
G01*
X11202500Y-8625500D02*
G75*
G02*
X11302500Y-8625500I50000J0D01*
G01*
X11302500Y-8879500D02*
G75*
G02*
X11202500Y-8879500I-50000J0D01*
G01*
X11202500Y-8879500D02*
G75*
G02*
X11302500Y-8879500I50000J0D01*
G01*
X11302500Y-9133500D02*
G75*
G02*
X11202500Y-9133500I-50000J0D01*
G01*
X11202500Y-9133500D02*
G75*
G02*
X11302500Y-9133500I50000J0D01*
G01*
X11302500Y-9387500D02*
G75*
G02*
X11202500Y-9387500I-50000J0D01*
G01*
X11202500Y-9387500D02*
G75*
G02*
X11302500Y-9387500I50000J0D01*
G01*
D11*
X10258277Y-10313984D02*
X10258277Y-10113984D01*
X10258277Y-10113984D02*
X10305896Y-10113984D01*
X10305896Y-10113984D02*
X10334467Y-10123508D01*
X10334467Y-10123508D02*
X10353515Y-10142555D01*
X10353515Y-10142555D02*
X10363039Y-10161603D01*
X10363039Y-10161603D02*
X10372563Y-10199698D01*
X10372563Y-10199698D02*
X10372563Y-10228270D01*
X10372563Y-10228270D02*
X10363039Y-10266365D01*
X10363039Y-10266365D02*
X10353515Y-10285412D01*
X10353515Y-10285412D02*
X10334467Y-10304460D01*
X10334467Y-10304460D02*
X10305896Y-10313984D01*
X10305896Y-10313984D02*
X10258277Y-10313984D01*
X10458277Y-10313984D02*
X10458277Y-10180650D01*
X10458277Y-10218746D02*
X10467801Y-10199698D01*
X10467801Y-10199698D02*
X10477324Y-10190174D01*
X10477324Y-10190174D02*
X10496372Y-10180650D01*
X10496372Y-10180650D02*
X10515420Y-10180650D01*
X10582086Y-10313984D02*
X10582086Y-10180650D01*
X10582086Y-10113984D02*
X10572563Y-10123508D01*
X10572563Y-10123508D02*
X10582086Y-10133031D01*
X10582086Y-10133031D02*
X10591610Y-10123508D01*
X10591610Y-10123508D02*
X10582086Y-10113984D01*
X10582086Y-10113984D02*
X10582086Y-10133031D01*
X10705896Y-10313984D02*
X10686848Y-10304460D01*
X10686848Y-10304460D02*
X10677324Y-10285412D01*
X10677324Y-10285412D02*
X10677324Y-10113984D01*
X10810658Y-10313984D02*
X10791610Y-10304460D01*
X10791610Y-10304460D02*
X10782086Y-10285412D01*
X10782086Y-10285412D02*
X10782086Y-10113984D01*
X11039229Y-10313984D02*
X11039229Y-10113984D01*
X11039229Y-10113984D02*
X11105896Y-10256841D01*
X11105896Y-10256841D02*
X11172563Y-10113984D01*
X11172563Y-10113984D02*
X11172563Y-10313984D01*
X11353515Y-10313984D02*
X11353515Y-10209222D01*
X11353515Y-10209222D02*
X11343991Y-10190174D01*
X11343991Y-10190174D02*
X11324943Y-10180650D01*
X11324943Y-10180650D02*
X11286848Y-10180650D01*
X11286848Y-10180650D02*
X11267801Y-10190174D01*
X11353515Y-10304460D02*
X11334467Y-10313984D01*
X11334467Y-10313984D02*
X11286848Y-10313984D01*
X11286848Y-10313984D02*
X11267801Y-10304460D01*
X11267801Y-10304460D02*
X11258277Y-10285412D01*
X11258277Y-10285412D02*
X11258277Y-10266365D01*
X11258277Y-10266365D02*
X11267801Y-10247317D01*
X11267801Y-10247317D02*
X11286848Y-10237793D01*
X11286848Y-10237793D02*
X11334467Y-10237793D01*
X11334467Y-10237793D02*
X11353515Y-10228270D01*
X11448753Y-10180650D02*
X11448753Y-10380650D01*
X11448753Y-10190174D02*
X11467801Y-10180650D01*
X11467801Y-10180650D02*
X11505896Y-10180650D01*
X11505896Y-10180650D02*
X11524943Y-10190174D01*
X11524943Y-10190174D02*
X11534467Y-10199698D01*
X11534467Y-10199698D02*
X11543991Y-10218746D01*
X11543991Y-10218746D02*
X11543991Y-10275889D01*
X11543991Y-10275889D02*
X11534467Y-10294936D01*
X11534467Y-10294936D02*
X11524943Y-10304460D01*
X11524943Y-10304460D02*
X11505896Y-10313984D01*
X11505896Y-10313984D02*
X11467801Y-10313984D01*
X11467801Y-10313984D02*
X11448753Y-10304460D01*
X11629705Y-10294936D02*
X11639229Y-10304460D01*
X11639229Y-10304460D02*
X11629705Y-10313984D01*
X11629705Y-10313984D02*
X11620182Y-10304460D01*
X11620182Y-10304460D02*
X11629705Y-10294936D01*
X11629705Y-10294936D02*
X11629705Y-10313984D01*
X11629705Y-10190174D02*
X11639229Y-10199698D01*
X11639229Y-10199698D02*
X11629705Y-10209222D01*
X11629705Y-10209222D02*
X11620182Y-10199698D01*
X11620182Y-10199698D02*
X11629705Y-10190174D01*
X11629705Y-10190174D02*
X11629705Y-10209222D01*
D12*
X9967500Y-10627500D02*
X9997500Y-10657500D01*
X9997500Y-10627500D02*
X9967500Y-10657500D01*
D11*
X10296372Y-10533984D02*
X10315420Y-10533984D01*
X10315420Y-10533984D02*
X10334467Y-10543508D01*
X10334467Y-10543508D02*
X10343991Y-10553031D01*
X10343991Y-10553031D02*
X10353515Y-10572079D01*
X10353515Y-10572079D02*
X10363039Y-10610174D01*
X10363039Y-10610174D02*
X10363039Y-10657793D01*
X10363039Y-10657793D02*
X10353515Y-10695889D01*
X10353515Y-10695889D02*
X10343991Y-10714936D01*
X10343991Y-10714936D02*
X10334467Y-10724460D01*
X10334467Y-10724460D02*
X10315420Y-10733984D01*
X10315420Y-10733984D02*
X10296372Y-10733984D01*
X10296372Y-10733984D02*
X10277324Y-10724460D01*
X10277324Y-10724460D02*
X10267801Y-10714936D01*
X10267801Y-10714936D02*
X10258277Y-10695889D01*
X10258277Y-10695889D02*
X10248753Y-10657793D01*
X10248753Y-10657793D02*
X10248753Y-10610174D01*
X10248753Y-10610174D02*
X10258277Y-10572079D01*
X10258277Y-10572079D02*
X10267801Y-10553031D01*
X10267801Y-10553031D02*
X10277324Y-10543508D01*
X10277324Y-10543508D02*
X10296372Y-10533984D01*
X10448753Y-10714936D02*
X10458277Y-10724460D01*
X10458277Y-10724460D02*
X10448753Y-10733984D01*
X10448753Y-10733984D02*
X10439229Y-10724460D01*
X10439229Y-10724460D02*
X10448753Y-10714936D01*
X10448753Y-10714936D02*
X10448753Y-10733984D01*
X10524944Y-10533984D02*
X10648753Y-10533984D01*
X10648753Y-10533984D02*
X10582086Y-10610174D01*
X10582086Y-10610174D02*
X10610658Y-10610174D01*
X10610658Y-10610174D02*
X10629705Y-10619698D01*
X10629705Y-10619698D02*
X10639229Y-10629222D01*
X10639229Y-10629222D02*
X10648753Y-10648270D01*
X10648753Y-10648270D02*
X10648753Y-10695889D01*
X10648753Y-10695889D02*
X10639229Y-10714936D01*
X10639229Y-10714936D02*
X10629705Y-10724460D01*
X10629705Y-10724460D02*
X10610658Y-10733984D01*
X10610658Y-10733984D02*
X10553515Y-10733984D01*
X10553515Y-10733984D02*
X10534467Y-10724460D01*
X10534467Y-10724460D02*
X10524944Y-10714936D01*
X10772563Y-10533984D02*
X10791610Y-10533984D01*
X10791610Y-10533984D02*
X10810658Y-10543508D01*
X10810658Y-10543508D02*
X10820182Y-10553031D01*
X10820182Y-10553031D02*
X10829705Y-10572079D01*
X10829705Y-10572079D02*
X10839229Y-10610174D01*
X10839229Y-10610174D02*
X10839229Y-10657793D01*
X10839229Y-10657793D02*
X10829705Y-10695889D01*
X10829705Y-10695889D02*
X10820182Y-10714936D01*
X10820182Y-10714936D02*
X10810658Y-10724460D01*
X10810658Y-10724460D02*
X10791610Y-10733984D01*
X10791610Y-10733984D02*
X10772563Y-10733984D01*
X10772563Y-10733984D02*
X10753515Y-10724460D01*
X10753515Y-10724460D02*
X10743991Y-10714936D01*
X10743991Y-10714936D02*
X10734467Y-10695889D01*
X10734467Y-10695889D02*
X10724944Y-10657793D01*
X10724944Y-10657793D02*
X10724944Y-10610174D01*
X10724944Y-10610174D02*
X10734467Y-10572079D01*
X10734467Y-10572079D02*
X10743991Y-10553031D01*
X10743991Y-10553031D02*
X10753515Y-10543508D01*
X10753515Y-10543508D02*
X10772563Y-10533984D01*
X10963039Y-10533984D02*
X10982086Y-10533984D01*
X10982086Y-10533984D02*
X11001134Y-10543508D01*
X11001134Y-10543508D02*
X11010658Y-10553031D01*
X11010658Y-10553031D02*
X11020182Y-10572079D01*
X11020182Y-10572079D02*
X11029705Y-10610174D01*
X11029705Y-10610174D02*
X11029705Y-10657793D01*
X11029705Y-10657793D02*
X11020182Y-10695889D01*
X11020182Y-10695889D02*
X11010658Y-10714936D01*
X11010658Y-10714936D02*
X11001134Y-10724460D01*
X11001134Y-10724460D02*
X10982086Y-10733984D01*
X10982086Y-10733984D02*
X10963039Y-10733984D01*
X10963039Y-10733984D02*
X10943991Y-10724460D01*
X10943991Y-10724460D02*
X10934467Y-10714936D01*
X10934467Y-10714936D02*
X10924944Y-10695889D01*
X10924944Y-10695889D02*
X10915420Y-10657793D01*
X10915420Y-10657793D02*
X10915420Y-10610174D01*
X10915420Y-10610174D02*
X10924944Y-10572079D01*
X10924944Y-10572079D02*
X10934467Y-10553031D01*
X10934467Y-10553031D02*
X10943991Y-10543508D01*
X10943991Y-10543508D02*
X10963039Y-10533984D01*
X11115420Y-10733984D02*
X11115420Y-10600650D01*
X11115420Y-10619698D02*
X11124944Y-10610174D01*
X11124944Y-10610174D02*
X11143991Y-10600650D01*
X11143991Y-10600650D02*
X11172563Y-10600650D01*
X11172563Y-10600650D02*
X11191610Y-10610174D01*
X11191610Y-10610174D02*
X11201134Y-10629222D01*
X11201134Y-10629222D02*
X11201134Y-10733984D01*
X11201134Y-10629222D02*
X11210658Y-10610174D01*
X11210658Y-10610174D02*
X11229705Y-10600650D01*
X11229705Y-10600650D02*
X11258277Y-10600650D01*
X11258277Y-10600650D02*
X11277324Y-10610174D01*
X11277324Y-10610174D02*
X11286848Y-10629222D01*
X11286848Y-10629222D02*
X11286848Y-10733984D01*
X11382086Y-10733984D02*
X11382086Y-10600650D01*
X11382086Y-10619698D02*
X11391610Y-10610174D01*
X11391610Y-10610174D02*
X11410658Y-10600650D01*
X11410658Y-10600650D02*
X11439229Y-10600650D01*
X11439229Y-10600650D02*
X11458277Y-10610174D01*
X11458277Y-10610174D02*
X11467801Y-10629222D01*
X11467801Y-10629222D02*
X11467801Y-10733984D01*
X11467801Y-10629222D02*
X11477324Y-10610174D01*
X11477324Y-10610174D02*
X11496372Y-10600650D01*
X11496372Y-10600650D02*
X11524943Y-10600650D01*
X11524943Y-10600650D02*
X11543991Y-10610174D01*
X11543991Y-10610174D02*
X11553515Y-10629222D01*
X11553515Y-10629222D02*
X11553515Y-10733984D01*
X11943991Y-10524460D02*
X11772563Y-10781603D01*
X12201134Y-10533984D02*
X12220182Y-10533984D01*
X12220182Y-10533984D02*
X12239229Y-10543508D01*
X12239229Y-10543508D02*
X12248753Y-10553031D01*
X12248753Y-10553031D02*
X12258277Y-10572079D01*
X12258277Y-10572079D02*
X12267801Y-10610174D01*
X12267801Y-10610174D02*
X12267801Y-10657793D01*
X12267801Y-10657793D02*
X12258277Y-10695889D01*
X12258277Y-10695889D02*
X12248753Y-10714936D01*
X12248753Y-10714936D02*
X12239229Y-10724460D01*
X12239229Y-10724460D02*
X12220182Y-10733984D01*
X12220182Y-10733984D02*
X12201134Y-10733984D01*
X12201134Y-10733984D02*
X12182086Y-10724460D01*
X12182086Y-10724460D02*
X12172563Y-10714936D01*
X12172563Y-10714936D02*
X12163039Y-10695889D01*
X12163039Y-10695889D02*
X12153515Y-10657793D01*
X12153515Y-10657793D02*
X12153515Y-10610174D01*
X12153515Y-10610174D02*
X12163039Y-10572079D01*
X12163039Y-10572079D02*
X12172563Y-10553031D01*
X12172563Y-10553031D02*
X12182086Y-10543508D01*
X12182086Y-10543508D02*
X12201134Y-10533984D01*
X12353515Y-10714936D02*
X12363039Y-10724460D01*
X12363039Y-10724460D02*
X12353515Y-10733984D01*
X12353515Y-10733984D02*
X12343991Y-10724460D01*
X12343991Y-10724460D02*
X12353515Y-10714936D01*
X12353515Y-10714936D02*
X12353515Y-10733984D01*
X12486848Y-10533984D02*
X12505896Y-10533984D01*
X12505896Y-10533984D02*
X12524944Y-10543508D01*
X12524944Y-10543508D02*
X12534467Y-10553031D01*
X12534467Y-10553031D02*
X12543991Y-10572079D01*
X12543991Y-10572079D02*
X12553515Y-10610174D01*
X12553515Y-10610174D02*
X12553515Y-10657793D01*
X12553515Y-10657793D02*
X12543991Y-10695889D01*
X12543991Y-10695889D02*
X12534467Y-10714936D01*
X12534467Y-10714936D02*
X12524944Y-10724460D01*
X12524944Y-10724460D02*
X12505896Y-10733984D01*
X12505896Y-10733984D02*
X12486848Y-10733984D01*
X12486848Y-10733984D02*
X12467801Y-10724460D01*
X12467801Y-10724460D02*
X12458277Y-10714936D01*
X12458277Y-10714936D02*
X12448753Y-10695889D01*
X12448753Y-10695889D02*
X12439229Y-10657793D01*
X12439229Y-10657793D02*
X12439229Y-10610174D01*
X12439229Y-10610174D02*
X12448753Y-10572079D01*
X12448753Y-10572079D02*
X12458277Y-10553031D01*
X12458277Y-10553031D02*
X12467801Y-10543508D01*
X12467801Y-10543508D02*
X12486848Y-10533984D01*
X12743991Y-10733984D02*
X12629706Y-10733984D01*
X12686848Y-10733984D02*
X12686848Y-10533984D01*
X12686848Y-10533984D02*
X12667801Y-10562555D01*
X12667801Y-10562555D02*
X12648753Y-10581603D01*
X12648753Y-10581603D02*
X12629706Y-10591127D01*
X12934467Y-10733984D02*
X12820182Y-10733984D01*
X12877325Y-10733984D02*
X12877325Y-10533984D01*
X12877325Y-10533984D02*
X12858277Y-10562555D01*
X12858277Y-10562555D02*
X12839229Y-10581603D01*
X12839229Y-10581603D02*
X12820182Y-10591127D01*
X13048753Y-10619698D02*
X13029706Y-10610174D01*
X13029706Y-10610174D02*
X13020182Y-10600650D01*
X13020182Y-10600650D02*
X13010658Y-10581603D01*
X13010658Y-10581603D02*
X13010658Y-10572079D01*
X13010658Y-10572079D02*
X13020182Y-10553031D01*
X13020182Y-10553031D02*
X13029706Y-10543508D01*
X13029706Y-10543508D02*
X13048753Y-10533984D01*
X13048753Y-10533984D02*
X13086848Y-10533984D01*
X13086848Y-10533984D02*
X13105896Y-10543508D01*
X13105896Y-10543508D02*
X13115420Y-10553031D01*
X13115420Y-10553031D02*
X13124944Y-10572079D01*
X13124944Y-10572079D02*
X13124944Y-10581603D01*
X13124944Y-10581603D02*
X13115420Y-10600650D01*
X13115420Y-10600650D02*
X13105896Y-10610174D01*
X13105896Y-10610174D02*
X13086848Y-10619698D01*
X13086848Y-10619698D02*
X13048753Y-10619698D01*
X13048753Y-10619698D02*
X13029706Y-10629222D01*
X13029706Y-10629222D02*
X13020182Y-10638746D01*
X13020182Y-10638746D02*
X13010658Y-10657793D01*
X13010658Y-10657793D02*
X13010658Y-10695889D01*
X13010658Y-10695889D02*
X13020182Y-10714936D01*
X13020182Y-10714936D02*
X13029706Y-10724460D01*
X13029706Y-10724460D02*
X13048753Y-10733984D01*
X13048753Y-10733984D02*
X13086848Y-10733984D01*
X13086848Y-10733984D02*
X13105896Y-10724460D01*
X13105896Y-10724460D02*
X13115420Y-10714936D01*
X13115420Y-10714936D02*
X13124944Y-10695889D01*
X13124944Y-10695889D02*
X13124944Y-10657793D01*
X13124944Y-10657793D02*
X13115420Y-10638746D01*
X13115420Y-10638746D02*
X13105896Y-10629222D01*
X13105896Y-10629222D02*
X13086848Y-10619698D01*
X13201134Y-10533984D02*
X13201134Y-10572079D01*
X13277325Y-10533984D02*
X13277325Y-10572079D01*
X13572563Y-10810174D02*
X13563039Y-10800650D01*
X13563039Y-10800650D02*
X13543991Y-10772079D01*
X13543991Y-10772079D02*
X13534468Y-10753031D01*
X13534468Y-10753031D02*
X13524944Y-10724460D01*
X13524944Y-10724460D02*
X13515420Y-10676841D01*
X13515420Y-10676841D02*
X13515420Y-10638746D01*
X13515420Y-10638746D02*
X13524944Y-10591127D01*
X13524944Y-10591127D02*
X13534468Y-10562555D01*
X13534468Y-10562555D02*
X13543991Y-10543508D01*
X13543991Y-10543508D02*
X13563039Y-10514936D01*
X13563039Y-10514936D02*
X13572563Y-10505412D01*
X13639229Y-10553031D02*
X13648753Y-10543508D01*
X13648753Y-10543508D02*
X13667801Y-10533984D01*
X13667801Y-10533984D02*
X13715420Y-10533984D01*
X13715420Y-10533984D02*
X13734468Y-10543508D01*
X13734468Y-10543508D02*
X13743991Y-10553031D01*
X13743991Y-10553031D02*
X13753515Y-10572079D01*
X13753515Y-10572079D02*
X13753515Y-10591127D01*
X13753515Y-10591127D02*
X13743991Y-10619698D01*
X13743991Y-10619698D02*
X13629706Y-10733984D01*
X13629706Y-10733984D02*
X13753515Y-10733984D01*
X13943991Y-10733984D02*
X13829706Y-10733984D01*
X13886848Y-10733984D02*
X13886848Y-10533984D01*
X13886848Y-10533984D02*
X13867801Y-10562555D01*
X13867801Y-10562555D02*
X13848753Y-10581603D01*
X13848753Y-10581603D02*
X13829706Y-10591127D01*
X14182087Y-10733984D02*
X14182087Y-10533984D01*
X14267801Y-10733984D02*
X14267801Y-10629222D01*
X14267801Y-10629222D02*
X14258277Y-10610174D01*
X14258277Y-10610174D02*
X14239230Y-10600650D01*
X14239230Y-10600650D02*
X14210658Y-10600650D01*
X14210658Y-10600650D02*
X14191610Y-10610174D01*
X14191610Y-10610174D02*
X14182087Y-10619698D01*
X14391610Y-10733984D02*
X14372563Y-10724460D01*
X14372563Y-10724460D02*
X14363039Y-10714936D01*
X14363039Y-10714936D02*
X14353515Y-10695889D01*
X14353515Y-10695889D02*
X14353515Y-10638746D01*
X14353515Y-10638746D02*
X14363039Y-10619698D01*
X14363039Y-10619698D02*
X14372563Y-10610174D01*
X14372563Y-10610174D02*
X14391610Y-10600650D01*
X14391610Y-10600650D02*
X14420182Y-10600650D01*
X14420182Y-10600650D02*
X14439230Y-10610174D01*
X14439230Y-10610174D02*
X14448753Y-10619698D01*
X14448753Y-10619698D02*
X14458277Y-10638746D01*
X14458277Y-10638746D02*
X14458277Y-10695889D01*
X14458277Y-10695889D02*
X14448753Y-10714936D01*
X14448753Y-10714936D02*
X14439230Y-10724460D01*
X14439230Y-10724460D02*
X14420182Y-10733984D01*
X14420182Y-10733984D02*
X14391610Y-10733984D01*
X14572563Y-10733984D02*
X14553515Y-10724460D01*
X14553515Y-10724460D02*
X14543991Y-10705412D01*
X14543991Y-10705412D02*
X14543991Y-10533984D01*
X14724944Y-10724460D02*
X14705896Y-10733984D01*
X14705896Y-10733984D02*
X14667801Y-10733984D01*
X14667801Y-10733984D02*
X14648753Y-10724460D01*
X14648753Y-10724460D02*
X14639230Y-10705412D01*
X14639230Y-10705412D02*
X14639230Y-10629222D01*
X14639230Y-10629222D02*
X14648753Y-10610174D01*
X14648753Y-10610174D02*
X14667801Y-10600650D01*
X14667801Y-10600650D02*
X14705896Y-10600650D01*
X14705896Y-10600650D02*
X14724944Y-10610174D01*
X14724944Y-10610174D02*
X14734468Y-10629222D01*
X14734468Y-10629222D02*
X14734468Y-10648270D01*
X14734468Y-10648270D02*
X14639230Y-10667317D01*
X14810658Y-10724460D02*
X14829706Y-10733984D01*
X14829706Y-10733984D02*
X14867801Y-10733984D01*
X14867801Y-10733984D02*
X14886849Y-10724460D01*
X14886849Y-10724460D02*
X14896372Y-10705412D01*
X14896372Y-10705412D02*
X14896372Y-10695889D01*
X14896372Y-10695889D02*
X14886849Y-10676841D01*
X14886849Y-10676841D02*
X14867801Y-10667317D01*
X14867801Y-10667317D02*
X14839230Y-10667317D01*
X14839230Y-10667317D02*
X14820182Y-10657793D01*
X14820182Y-10657793D02*
X14810658Y-10638746D01*
X14810658Y-10638746D02*
X14810658Y-10629222D01*
X14810658Y-10629222D02*
X14820182Y-10610174D01*
X14820182Y-10610174D02*
X14839230Y-10600650D01*
X14839230Y-10600650D02*
X14867801Y-10600650D01*
X14867801Y-10600650D02*
X14886849Y-10610174D01*
X14963039Y-10810174D02*
X14972563Y-10800650D01*
X14972563Y-10800650D02*
X14991611Y-10772079D01*
X14991611Y-10772079D02*
X15001134Y-10753031D01*
X15001134Y-10753031D02*
X15010658Y-10724460D01*
X15010658Y-10724460D02*
X15020182Y-10676841D01*
X15020182Y-10676841D02*
X15020182Y-10638746D01*
X15020182Y-10638746D02*
X15010658Y-10591127D01*
X15010658Y-10591127D02*
X15001134Y-10562555D01*
X15001134Y-10562555D02*
X14991611Y-10543508D01*
X14991611Y-10543508D02*
X14972563Y-10514936D01*
X14972563Y-10514936D02*
X14963039Y-10505412D01*
D12*
X9997500Y-10906500D02*
G75*
G02*
X9897500Y-10906500I-50000J0D01*
G01*
X9897500Y-10906500D02*
G75*
G02*
X9997500Y-10906500I50000J0D01*
G01*
D11*
X10363039Y-10997984D02*
X10248753Y-10997984D01*
X10305896Y-10997984D02*
X10305896Y-10797984D01*
X10305896Y-10797984D02*
X10286848Y-10826555D01*
X10286848Y-10826555D02*
X10267801Y-10845603D01*
X10267801Y-10845603D02*
X10248753Y-10855127D01*
X10448753Y-10978936D02*
X10458277Y-10988460D01*
X10458277Y-10988460D02*
X10448753Y-10997984D01*
X10448753Y-10997984D02*
X10439229Y-10988460D01*
X10439229Y-10988460D02*
X10448753Y-10978936D01*
X10448753Y-10978936D02*
X10448753Y-10997984D01*
X10582086Y-10797984D02*
X10601134Y-10797984D01*
X10601134Y-10797984D02*
X10620182Y-10807508D01*
X10620182Y-10807508D02*
X10629705Y-10817031D01*
X10629705Y-10817031D02*
X10639229Y-10836079D01*
X10639229Y-10836079D02*
X10648753Y-10874174D01*
X10648753Y-10874174D02*
X10648753Y-10921793D01*
X10648753Y-10921793D02*
X10639229Y-10959889D01*
X10639229Y-10959889D02*
X10629705Y-10978936D01*
X10629705Y-10978936D02*
X10620182Y-10988460D01*
X10620182Y-10988460D02*
X10601134Y-10997984D01*
X10601134Y-10997984D02*
X10582086Y-10997984D01*
X10582086Y-10997984D02*
X10563039Y-10988460D01*
X10563039Y-10988460D02*
X10553515Y-10978936D01*
X10553515Y-10978936D02*
X10543991Y-10959889D01*
X10543991Y-10959889D02*
X10534467Y-10921793D01*
X10534467Y-10921793D02*
X10534467Y-10874174D01*
X10534467Y-10874174D02*
X10543991Y-10836079D01*
X10543991Y-10836079D02*
X10553515Y-10817031D01*
X10553515Y-10817031D02*
X10563039Y-10807508D01*
X10563039Y-10807508D02*
X10582086Y-10797984D01*
X10772563Y-10797984D02*
X10791610Y-10797984D01*
X10791610Y-10797984D02*
X10810658Y-10807508D01*
X10810658Y-10807508D02*
X10820182Y-10817031D01*
X10820182Y-10817031D02*
X10829705Y-10836079D01*
X10829705Y-10836079D02*
X10839229Y-10874174D01*
X10839229Y-10874174D02*
X10839229Y-10921793D01*
X10839229Y-10921793D02*
X10829705Y-10959889D01*
X10829705Y-10959889D02*
X10820182Y-10978936D01*
X10820182Y-10978936D02*
X10810658Y-10988460D01*
X10810658Y-10988460D02*
X10791610Y-10997984D01*
X10791610Y-10997984D02*
X10772563Y-10997984D01*
X10772563Y-10997984D02*
X10753515Y-10988460D01*
X10753515Y-10988460D02*
X10743991Y-10978936D01*
X10743991Y-10978936D02*
X10734467Y-10959889D01*
X10734467Y-10959889D02*
X10724944Y-10921793D01*
X10724944Y-10921793D02*
X10724944Y-10874174D01*
X10724944Y-10874174D02*
X10734467Y-10836079D01*
X10734467Y-10836079D02*
X10743991Y-10817031D01*
X10743991Y-10817031D02*
X10753515Y-10807508D01*
X10753515Y-10807508D02*
X10772563Y-10797984D01*
X10963039Y-10797984D02*
X10982086Y-10797984D01*
X10982086Y-10797984D02*
X11001134Y-10807508D01*
X11001134Y-10807508D02*
X11010658Y-10817031D01*
X11010658Y-10817031D02*
X11020182Y-10836079D01*
X11020182Y-10836079D02*
X11029705Y-10874174D01*
X11029705Y-10874174D02*
X11029705Y-10921793D01*
X11029705Y-10921793D02*
X11020182Y-10959889D01*
X11020182Y-10959889D02*
X11010658Y-10978936D01*
X11010658Y-10978936D02*
X11001134Y-10988460D01*
X11001134Y-10988460D02*
X10982086Y-10997984D01*
X10982086Y-10997984D02*
X10963039Y-10997984D01*
X10963039Y-10997984D02*
X10943991Y-10988460D01*
X10943991Y-10988460D02*
X10934467Y-10978936D01*
X10934467Y-10978936D02*
X10924944Y-10959889D01*
X10924944Y-10959889D02*
X10915420Y-10921793D01*
X10915420Y-10921793D02*
X10915420Y-10874174D01*
X10915420Y-10874174D02*
X10924944Y-10836079D01*
X10924944Y-10836079D02*
X10934467Y-10817031D01*
X10934467Y-10817031D02*
X10943991Y-10807508D01*
X10943991Y-10807508D02*
X10963039Y-10797984D01*
X11115420Y-10997984D02*
X11115420Y-10864650D01*
X11115420Y-10883698D02*
X11124944Y-10874174D01*
X11124944Y-10874174D02*
X11143991Y-10864650D01*
X11143991Y-10864650D02*
X11172563Y-10864650D01*
X11172563Y-10864650D02*
X11191610Y-10874174D01*
X11191610Y-10874174D02*
X11201134Y-10893222D01*
X11201134Y-10893222D02*
X11201134Y-10997984D01*
X11201134Y-10893222D02*
X11210658Y-10874174D01*
X11210658Y-10874174D02*
X11229705Y-10864650D01*
X11229705Y-10864650D02*
X11258277Y-10864650D01*
X11258277Y-10864650D02*
X11277324Y-10874174D01*
X11277324Y-10874174D02*
X11286848Y-10893222D01*
X11286848Y-10893222D02*
X11286848Y-10997984D01*
X11382086Y-10997984D02*
X11382086Y-10864650D01*
X11382086Y-10883698D02*
X11391610Y-10874174D01*
X11391610Y-10874174D02*
X11410658Y-10864650D01*
X11410658Y-10864650D02*
X11439229Y-10864650D01*
X11439229Y-10864650D02*
X11458277Y-10874174D01*
X11458277Y-10874174D02*
X11467801Y-10893222D01*
X11467801Y-10893222D02*
X11467801Y-10997984D01*
X11467801Y-10893222D02*
X11477324Y-10874174D01*
X11477324Y-10874174D02*
X11496372Y-10864650D01*
X11496372Y-10864650D02*
X11524943Y-10864650D01*
X11524943Y-10864650D02*
X11543991Y-10874174D01*
X11543991Y-10874174D02*
X11553515Y-10893222D01*
X11553515Y-10893222D02*
X11553515Y-10997984D01*
X11943991Y-10788460D02*
X11772563Y-11045603D01*
X12201134Y-10797984D02*
X12220182Y-10797984D01*
X12220182Y-10797984D02*
X12239229Y-10807508D01*
X12239229Y-10807508D02*
X12248753Y-10817031D01*
X12248753Y-10817031D02*
X12258277Y-10836079D01*
X12258277Y-10836079D02*
X12267801Y-10874174D01*
X12267801Y-10874174D02*
X12267801Y-10921793D01*
X12267801Y-10921793D02*
X12258277Y-10959889D01*
X12258277Y-10959889D02*
X12248753Y-10978936D01*
X12248753Y-10978936D02*
X12239229Y-10988460D01*
X12239229Y-10988460D02*
X12220182Y-10997984D01*
X12220182Y-10997984D02*
X12201134Y-10997984D01*
X12201134Y-10997984D02*
X12182086Y-10988460D01*
X12182086Y-10988460D02*
X12172563Y-10978936D01*
X12172563Y-10978936D02*
X12163039Y-10959889D01*
X12163039Y-10959889D02*
X12153515Y-10921793D01*
X12153515Y-10921793D02*
X12153515Y-10874174D01*
X12153515Y-10874174D02*
X12163039Y-10836079D01*
X12163039Y-10836079D02*
X12172563Y-10817031D01*
X12172563Y-10817031D02*
X12182086Y-10807508D01*
X12182086Y-10807508D02*
X12201134Y-10797984D01*
X12353515Y-10978936D02*
X12363039Y-10988460D01*
X12363039Y-10988460D02*
X12353515Y-10997984D01*
X12353515Y-10997984D02*
X12343991Y-10988460D01*
X12343991Y-10988460D02*
X12353515Y-10978936D01*
X12353515Y-10978936D02*
X12353515Y-10997984D01*
X12486848Y-10797984D02*
X12505896Y-10797984D01*
X12505896Y-10797984D02*
X12524944Y-10807508D01*
X12524944Y-10807508D02*
X12534467Y-10817031D01*
X12534467Y-10817031D02*
X12543991Y-10836079D01*
X12543991Y-10836079D02*
X12553515Y-10874174D01*
X12553515Y-10874174D02*
X12553515Y-10921793D01*
X12553515Y-10921793D02*
X12543991Y-10959889D01*
X12543991Y-10959889D02*
X12534467Y-10978936D01*
X12534467Y-10978936D02*
X12524944Y-10988460D01*
X12524944Y-10988460D02*
X12505896Y-10997984D01*
X12505896Y-10997984D02*
X12486848Y-10997984D01*
X12486848Y-10997984D02*
X12467801Y-10988460D01*
X12467801Y-10988460D02*
X12458277Y-10978936D01*
X12458277Y-10978936D02*
X12448753Y-10959889D01*
X12448753Y-10959889D02*
X12439229Y-10921793D01*
X12439229Y-10921793D02*
X12439229Y-10874174D01*
X12439229Y-10874174D02*
X12448753Y-10836079D01*
X12448753Y-10836079D02*
X12458277Y-10817031D01*
X12458277Y-10817031D02*
X12467801Y-10807508D01*
X12467801Y-10807508D02*
X12486848Y-10797984D01*
X12620182Y-10797984D02*
X12743991Y-10797984D01*
X12743991Y-10797984D02*
X12677325Y-10874174D01*
X12677325Y-10874174D02*
X12705896Y-10874174D01*
X12705896Y-10874174D02*
X12724944Y-10883698D01*
X12724944Y-10883698D02*
X12734467Y-10893222D01*
X12734467Y-10893222D02*
X12743991Y-10912270D01*
X12743991Y-10912270D02*
X12743991Y-10959889D01*
X12743991Y-10959889D02*
X12734467Y-10978936D01*
X12734467Y-10978936D02*
X12724944Y-10988460D01*
X12724944Y-10988460D02*
X12705896Y-10997984D01*
X12705896Y-10997984D02*
X12648753Y-10997984D01*
X12648753Y-10997984D02*
X12629706Y-10988460D01*
X12629706Y-10988460D02*
X12620182Y-10978936D01*
X12839229Y-10997984D02*
X12877325Y-10997984D01*
X12877325Y-10997984D02*
X12896372Y-10988460D01*
X12896372Y-10988460D02*
X12905896Y-10978936D01*
X12905896Y-10978936D02*
X12924944Y-10950365D01*
X12924944Y-10950365D02*
X12934467Y-10912270D01*
X12934467Y-10912270D02*
X12934467Y-10836079D01*
X12934467Y-10836079D02*
X12924944Y-10817031D01*
X12924944Y-10817031D02*
X12915420Y-10807508D01*
X12915420Y-10807508D02*
X12896372Y-10797984D01*
X12896372Y-10797984D02*
X12858277Y-10797984D01*
X12858277Y-10797984D02*
X12839229Y-10807508D01*
X12839229Y-10807508D02*
X12829706Y-10817031D01*
X12829706Y-10817031D02*
X12820182Y-10836079D01*
X12820182Y-10836079D02*
X12820182Y-10883698D01*
X12820182Y-10883698D02*
X12829706Y-10902746D01*
X12829706Y-10902746D02*
X12839229Y-10912270D01*
X12839229Y-10912270D02*
X12858277Y-10921793D01*
X12858277Y-10921793D02*
X12896372Y-10921793D01*
X12896372Y-10921793D02*
X12915420Y-10912270D01*
X12915420Y-10912270D02*
X12924944Y-10902746D01*
X12924944Y-10902746D02*
X12934467Y-10883698D01*
X13105896Y-10864650D02*
X13105896Y-10997984D01*
X13058277Y-10788460D02*
X13010658Y-10931317D01*
X13010658Y-10931317D02*
X13134467Y-10931317D01*
X13201134Y-10797984D02*
X13201134Y-10836079D01*
X13277325Y-10797984D02*
X13277325Y-10836079D01*
X13572563Y-11074174D02*
X13563039Y-11064650D01*
X13563039Y-11064650D02*
X13543991Y-11036079D01*
X13543991Y-11036079D02*
X13534468Y-11017031D01*
X13534468Y-11017031D02*
X13524944Y-10988460D01*
X13524944Y-10988460D02*
X13515420Y-10940841D01*
X13515420Y-10940841D02*
X13515420Y-10902746D01*
X13515420Y-10902746D02*
X13524944Y-10855127D01*
X13524944Y-10855127D02*
X13534468Y-10826555D01*
X13534468Y-10826555D02*
X13543991Y-10807508D01*
X13543991Y-10807508D02*
X13563039Y-10778936D01*
X13563039Y-10778936D02*
X13572563Y-10769412D01*
X13753515Y-10997984D02*
X13639229Y-10997984D01*
X13696372Y-10997984D02*
X13696372Y-10797984D01*
X13696372Y-10797984D02*
X13677325Y-10826555D01*
X13677325Y-10826555D02*
X13658277Y-10845603D01*
X13658277Y-10845603D02*
X13639229Y-10855127D01*
X13829706Y-10817031D02*
X13839229Y-10807508D01*
X13839229Y-10807508D02*
X13858277Y-10797984D01*
X13858277Y-10797984D02*
X13905896Y-10797984D01*
X13905896Y-10797984D02*
X13924944Y-10807508D01*
X13924944Y-10807508D02*
X13934468Y-10817031D01*
X13934468Y-10817031D02*
X13943991Y-10836079D01*
X13943991Y-10836079D02*
X13943991Y-10855127D01*
X13943991Y-10855127D02*
X13934468Y-10883698D01*
X13934468Y-10883698D02*
X13820182Y-10997984D01*
X13820182Y-10997984D02*
X13943991Y-10997984D01*
X14182087Y-10997984D02*
X14182087Y-10797984D01*
X14267801Y-10997984D02*
X14267801Y-10893222D01*
X14267801Y-10893222D02*
X14258277Y-10874174D01*
X14258277Y-10874174D02*
X14239230Y-10864650D01*
X14239230Y-10864650D02*
X14210658Y-10864650D01*
X14210658Y-10864650D02*
X14191610Y-10874174D01*
X14191610Y-10874174D02*
X14182087Y-10883698D01*
X14391610Y-10997984D02*
X14372563Y-10988460D01*
X14372563Y-10988460D02*
X14363039Y-10978936D01*
X14363039Y-10978936D02*
X14353515Y-10959889D01*
X14353515Y-10959889D02*
X14353515Y-10902746D01*
X14353515Y-10902746D02*
X14363039Y-10883698D01*
X14363039Y-10883698D02*
X14372563Y-10874174D01*
X14372563Y-10874174D02*
X14391610Y-10864650D01*
X14391610Y-10864650D02*
X14420182Y-10864650D01*
X14420182Y-10864650D02*
X14439230Y-10874174D01*
X14439230Y-10874174D02*
X14448753Y-10883698D01*
X14448753Y-10883698D02*
X14458277Y-10902746D01*
X14458277Y-10902746D02*
X14458277Y-10959889D01*
X14458277Y-10959889D02*
X14448753Y-10978936D01*
X14448753Y-10978936D02*
X14439230Y-10988460D01*
X14439230Y-10988460D02*
X14420182Y-10997984D01*
X14420182Y-10997984D02*
X14391610Y-10997984D01*
X14572563Y-10997984D02*
X14553515Y-10988460D01*
X14553515Y-10988460D02*
X14543991Y-10969412D01*
X14543991Y-10969412D02*
X14543991Y-10797984D01*
X14724944Y-10988460D02*
X14705896Y-10997984D01*
X14705896Y-10997984D02*
X14667801Y-10997984D01*
X14667801Y-10997984D02*
X14648753Y-10988460D01*
X14648753Y-10988460D02*
X14639230Y-10969412D01*
X14639230Y-10969412D02*
X14639230Y-10893222D01*
X14639230Y-10893222D02*
X14648753Y-10874174D01*
X14648753Y-10874174D02*
X14667801Y-10864650D01*
X14667801Y-10864650D02*
X14705896Y-10864650D01*
X14705896Y-10864650D02*
X14724944Y-10874174D01*
X14724944Y-10874174D02*
X14734468Y-10893222D01*
X14734468Y-10893222D02*
X14734468Y-10912270D01*
X14734468Y-10912270D02*
X14639230Y-10931317D01*
X14810658Y-10988460D02*
X14829706Y-10997984D01*
X14829706Y-10997984D02*
X14867801Y-10997984D01*
X14867801Y-10997984D02*
X14886849Y-10988460D01*
X14886849Y-10988460D02*
X14896372Y-10969412D01*
X14896372Y-10969412D02*
X14896372Y-10959889D01*
X14896372Y-10959889D02*
X14886849Y-10940841D01*
X14886849Y-10940841D02*
X14867801Y-10931317D01*
X14867801Y-10931317D02*
X14839230Y-10931317D01*
X14839230Y-10931317D02*
X14820182Y-10921793D01*
X14820182Y-10921793D02*
X14810658Y-10902746D01*
X14810658Y-10902746D02*
X14810658Y-10893222D01*
X14810658Y-10893222D02*
X14820182Y-10874174D01*
X14820182Y-10874174D02*
X14839230Y-10864650D01*
X14839230Y-10864650D02*
X14867801Y-10864650D01*
X14867801Y-10864650D02*
X14886849Y-10874174D01*
X14963039Y-11074174D02*
X14972563Y-11064650D01*
X14972563Y-11064650D02*
X14991611Y-11036079D01*
X14991611Y-11036079D02*
X15001134Y-11017031D01*
X15001134Y-11017031D02*
X15010658Y-10988460D01*
X15010658Y-10988460D02*
X15020182Y-10940841D01*
X15020182Y-10940841D02*
X15020182Y-10902746D01*
X15020182Y-10902746D02*
X15010658Y-10855127D01*
X15010658Y-10855127D02*
X15001134Y-10826555D01*
X15001134Y-10826555D02*
X14991611Y-10807508D01*
X14991611Y-10807508D02*
X14972563Y-10778936D01*
X14972563Y-10778936D02*
X14963039Y-10769412D01*
M02*
